M48
; DRILL file {KiCad (5.1.6)-1} date 07/02/20 22:15:11
; FORMAT={-:-/ absolute / inch / decimal}
; #@! TF.CreationDate,2020-07-02T22:15:11-04:00
; #@! TF.GenerationSoftware,Kicad,Pcbnew,(5.1.6)-1
FMAT,2
INCH
T1C0.0236
T2C0.0315
T3C0.0354
T4C0.0362
T5C0.0394
T6C0.0472
T7C0.0551
T8C0.0917
T9C0.1693
%
G90
G05
T1
X5.5213Y-2.7
X5.6Y-2.7
X5.5213Y-3.05
X5.6Y-3.05
T2
X4.1571Y-3.3
X4.35Y-3.3
X3.9Y-2.7
X3.9Y-3.0
X4.0Y-2.7
X4.0Y-3.0
X4.1Y-2.7
X4.1Y-3.0
X4.2Y-2.7
X4.2Y-3.0
X4.3Y-2.7
X4.3Y-3.0
X4.4Y-2.7
X4.4Y-3.0
X4.5Y-2.7
X4.5Y-3.0
X4.6Y-2.7
X4.6Y-3.0
X4.7Y-2.7
X4.7Y-3.0
X4.8Y-2.7
X4.8Y-3.0
T3
X6.35Y-2.25
X6.45Y-2.25
X6.6Y-2.25
X6.7Y-2.25
X6.1Y-2.25
X6.2Y-2.25
T4
X6.85Y-3.0
X6.85Y-3.0984
X6.9287Y-3.0
X6.9287Y-3.0984
T5
X5.1Y-2.75
X5.1Y-2.85
X5.1Y-2.95
X5.2Y-2.75
X5.2Y-2.85
X5.2Y-2.95
X3.85Y-3.25
X3.85Y-3.35
X3.85Y-3.45
X3.85Y-3.55
X4.35Y-3.55
X4.35Y-3.7469
X4.15Y-3.55
X4.15Y-3.7469
X3.65Y-3.35
X3.65Y-3.45
T6
X4.65Y-3.45
X5.15Y-3.45
X3.65Y-2.7
X3.65Y-3.2
X4.65Y-3.7
X5.15Y-3.7
X5.35Y-3.2
X5.35Y-3.7
X5.75Y-3.2
X5.75Y-3.7
X6.1Y-2.55
X6.1Y-3.05
X6.35Y-2.55
X6.35Y-3.05
X3.8925Y-2.25
X3.8925Y-2.45
X4.0484Y-2.25
X4.0484Y-2.45
X4.2043Y-2.25
X4.2043Y-2.45
X4.3602Y-2.25
X4.3602Y-2.45
X4.5161Y-2.25
X4.5161Y-2.45
X4.672Y-2.25
X4.672Y-2.45
X4.828Y-2.25
X4.828Y-2.45
X4.9839Y-2.25
X4.9839Y-2.45
X5.1398Y-2.25
X5.1398Y-2.45
X5.2957Y-2.25
X5.2957Y-2.45
X5.4516Y-2.25
X5.4516Y-2.45
X5.6075Y-2.25
X5.6075Y-2.45
X6.6Y-2.55
X6.6Y-3.05
T7
X6.0Y-3.35
X6.5Y-3.35
X6.0Y-3.65
X6.5Y-3.65
T8
X7.0354Y-2.8122
X7.0354Y-3.2862
T9
X3.7Y-3.7
X3.7Y-2.35
X6.95Y-2.35
X6.95Y-3.7
T0
M30
