M48
; DRILL file {KiCad (5.1.6)-1} date 07/03/20 01:35:27
; FORMAT={-:-/ absolute / inch / decimal}
; #@! TF.CreationDate,2020-07-03T01:35:27-04:00
; #@! TF.GenerationSoftware,Kicad,Pcbnew,(5.1.6)-1
FMAT,2
INCH
T1C0.0236
T2C0.0315
T3C0.0354
T4C0.0362
T5C0.0394
T6C0.0472
T7C0.0551
T8C0.0917
%
G90
G05
T1
X4.1713Y-3.7
X4.25Y-3.7
X4.1713Y-3.425
X4.25Y-3.425
T2
X5.1071Y-3.75
X5.3Y-3.75
X4.675Y-3.2
X4.675Y-3.5
X4.775Y-3.2
X4.775Y-3.5
X4.875Y-3.2
X4.875Y-3.5
X4.975Y-3.2
X4.975Y-3.5
X5.075Y-3.2
X5.075Y-3.5
X5.175Y-3.2
X5.175Y-3.5
X5.275Y-3.2
X5.275Y-3.5
X5.375Y-3.2
X5.375Y-3.5
X5.475Y-3.2
X5.475Y-3.5
X5.575Y-3.2
X5.575Y-3.5
T3
X3.6Y-2.8
X3.7Y-2.8
X3.85Y-2.8
X3.95Y-2.8
X4.1Y-2.8
X4.2Y-2.8
T4
X3.8963Y-4.0516
X3.8963Y-4.15
X3.975Y-4.0516
X3.975Y-4.15
T5
X5.3Y-3.95
X5.3Y-4.1469
X5.825Y-3.2
X5.825Y-3.3
X5.825Y-3.4
X5.925Y-3.2
X5.925Y-3.3
X5.925Y-3.4
X5.1Y-3.9531
X5.1Y-4.15
X4.85Y-3.675
X4.85Y-3.775
X4.85Y-3.875
X4.85Y-3.975
T6
X6.1Y-3.75
X6.6Y-3.75
X6.1Y-3.25
X6.6Y-3.25
X5.6Y-3.65
X5.6Y-4.15
X4.7925Y-2.8
X4.7925Y-3.0
X4.9484Y-2.8
X4.9484Y-3.0
X5.1043Y-2.8
X5.1043Y-3.0
X5.2602Y-2.8
X5.2602Y-3.0
X5.4161Y-2.8
X5.4161Y-3.0
X5.572Y-2.8
X5.572Y-3.0
X5.728Y-2.8
X5.728Y-3.0
X5.8839Y-2.8
X5.8839Y-3.0
X6.0398Y-2.8
X6.0398Y-3.0
X6.1957Y-2.8
X6.1957Y-3.0
X6.3516Y-2.8
X6.3516Y-3.0
X6.5075Y-2.8
X6.5075Y-3.0
X4.45Y-3.2
X4.45Y-3.7
X5.85Y-3.65
X5.85Y-4.15
X4.175Y-4.25
X4.675Y-4.25
X4.175Y-3.95
X4.675Y-3.95
X6.1Y-3.5
X6.6Y-3.5
T7
X5.6Y-4.325
X6.1Y-4.325
X6.05Y-4.1
X6.55Y-4.1
T8
X3.7896Y-3.8638
X3.7896Y-4.3378
T0
M30
