%TF.GenerationSoftware,KiCad,Pcbnew,(5.1.6)-1*%
%TF.CreationDate,2020-07-03T01:35:13-04:00*%
%TF.ProjectId,controller,636f6e74-726f-46c6-9c65-722e6b696361,rev?*%
%TF.SameCoordinates,Original*%
%TF.FileFunction,Copper,L1,Top*%
%TF.FilePolarity,Positive*%
%FSLAX46Y46*%
G04 Gerber Fmt 4.6, Leading zero omitted, Abs format (unit mm)*
G04 Created by KiCad (PCBNEW (5.1.6)-1) date 2020-07-03 01:35:13*
%MOMM*%
%LPD*%
G01*
G04 APERTURE LIST*
%TA.AperFunction,ComponentPad*%
%ADD10C,2.500000*%
%TD*%
%TA.AperFunction,ComponentPad*%
%ADD11O,2.800000X2.800000*%
%TD*%
%TA.AperFunction,ComponentPad*%
%ADD12R,2.800000X2.800000*%
%TD*%
%TA.AperFunction,ComponentPad*%
%ADD13C,1.500000*%
%TD*%
%TA.AperFunction,ComponentPad*%
%ADD14O,1.600000X1.600000*%
%TD*%
%TA.AperFunction,ComponentPad*%
%ADD15R,1.600000X1.600000*%
%TD*%
%TA.AperFunction,ComponentPad*%
%ADD16O,2.400000X2.400000*%
%TD*%
%TA.AperFunction,ComponentPad*%
%ADD17C,2.400000*%
%TD*%
%TA.AperFunction,ComponentPad*%
%ADD18R,1.700000X1.700000*%
%TD*%
%TA.AperFunction,ComponentPad*%
%ADD19O,1.700000X1.700000*%
%TD*%
%TA.AperFunction,ComponentPad*%
%ADD20C,3.500000*%
%TD*%
%TA.AperFunction,ComponentPad*%
%ADD21C,1.700000*%
%TD*%
%TA.AperFunction,ComponentPad*%
%ADD22R,1.800000X1.800000*%
%TD*%
%TA.AperFunction,ComponentPad*%
%ADD23C,1.800000*%
%TD*%
%TA.AperFunction,ComponentPad*%
%ADD24C,1.200000*%
%TD*%
%TA.AperFunction,ComponentPad*%
%ADD25R,1.200000X1.200000*%
%TD*%
%TA.AperFunction,ComponentPad*%
%ADD26C,2.000000*%
%TD*%
%TA.AperFunction,Conductor*%
%ADD27C,0.254000*%
%TD*%
G04 APERTURE END LIST*
D10*
%TO.P,J1,12*%
%TO.N,+5V*%
X165290000Y-71120000D03*
%TO.P,J1,13*%
X165290000Y-76200000D03*
%TO.P,J1,11*%
%TO.N,GND*%
X161330000Y-71120000D03*
%TO.P,J1,14*%
X161330000Y-76200000D03*
%TO.P,J1,10*%
%TO.N,Net-(J1-Pad10)*%
X157370000Y-71120000D03*
%TO.P,J1,15*%
%TO.N,Net-(J1-Pad15)*%
X157370000Y-76200000D03*
%TO.P,J1,9*%
%TO.N,Net-(J1-Pad9)*%
X153410000Y-71120000D03*
%TO.P,J1,16*%
%TO.N,Net-(J1-Pad16)*%
X153410000Y-76200000D03*
%TO.P,J1,8*%
%TO.N,Net-(J1-Pad8)*%
X149450000Y-71120000D03*
%TO.P,J1,17*%
%TO.N,Net-(J1-Pad17)*%
X149450000Y-76200000D03*
%TO.P,J1,7*%
%TO.N,Net-(J1-Pad7)*%
X145490000Y-71120000D03*
%TO.P,J1,18*%
%TO.N,Net-(J1-Pad18)*%
X145490000Y-76200000D03*
%TO.P,J1,6*%
%TO.N,Net-(J1-Pad6)*%
X141530000Y-71120000D03*
%TO.P,J1,19*%
%TO.N,Net-(J1-Pad19)*%
X141530000Y-76200000D03*
%TO.P,J1,5*%
%TO.N,Net-(J1-Pad5)*%
X137570000Y-71120000D03*
%TO.P,J1,20*%
%TO.N,Net-(J1-Pad20)*%
X137570000Y-76200000D03*
%TO.P,J1,4*%
%TO.N,Net-(J1-Pad4)*%
X133610000Y-71120000D03*
%TO.P,J1,21*%
%TO.N,Net-(J1-Pad21)*%
X133610000Y-76200000D03*
%TO.P,J1,3*%
%TO.N,Net-(J1-Pad3)*%
X129650000Y-71120000D03*
%TO.P,J1,22*%
%TO.N,Net-(J1-Pad22)*%
X129650000Y-76200000D03*
%TO.P,J1,2*%
%TO.N,Net-(J1-Pad2)*%
X125690000Y-71120000D03*
%TO.P,J1,23*%
%TO.N,Net-(J1-Pad23)*%
X125690000Y-76200000D03*
%TO.P,J1,1*%
%TO.N,Net-(J1-Pad1)*%
X121730000Y-71120000D03*
%TO.P,J1,24*%
%TO.N,Net-(J1-Pad24)*%
X121730000Y-76200000D03*
%TD*%
D11*
%TO.P,Z2,2*%
%TO.N,GND*%
X154940000Y-109855000D03*
D12*
%TO.P,Z2,1*%
%TO.N,Net-(J2-Pad3)*%
X142240000Y-109855000D03*
%TD*%
D11*
%TO.P,Z1,2*%
%TO.N,GND*%
X166370000Y-104140000D03*
D12*
%TO.P,Z1,1*%
%TO.N,Net-(J2-Pad2)*%
X153670000Y-104140000D03*
%TD*%
D13*
%TO.P,X1,2*%
%TO.N,Net-(C2-Pad1)*%
X129720000Y-95250000D03*
%TO.P,X1,1*%
%TO.N,Net-(C1-Pad1)*%
X134620000Y-95250000D03*
%TD*%
D14*
%TO.P,U1,20*%
%TO.N,+5V*%
X118745000Y-81280000D03*
%TO.P,U1,10*%
%TO.N,GND*%
X141605000Y-88900000D03*
%TO.P,U1,19*%
%TO.N,Net-(J1-Pad24)*%
X121285000Y-81280000D03*
%TO.P,U1,9*%
%TO.N,Net-(R8-Pad2)*%
X139065000Y-88900000D03*
%TO.P,U1,18*%
%TO.N,Net-(J1-Pad23)*%
X123825000Y-81280000D03*
%TO.P,U1,8*%
%TO.N,Net-(R9-Pad2)*%
X136525000Y-88900000D03*
%TO.P,U1,17*%
%TO.N,Net-(J1-Pad22)*%
X126365000Y-81280000D03*
%TO.P,U1,7*%
%TO.N,D-*%
X133985000Y-88900000D03*
%TO.P,U1,16*%
%TO.N,Net-(J1-Pad21)*%
X128905000Y-81280000D03*
%TO.P,U1,6*%
%TO.N,D+*%
X131445000Y-88900000D03*
%TO.P,U1,15*%
%TO.N,Net-(J1-Pad20)*%
X131445000Y-81280000D03*
%TO.P,U1,5*%
%TO.N,Net-(C1-Pad1)*%
X128905000Y-88900000D03*
%TO.P,U1,14*%
%TO.N,Net-(J1-Pad19)*%
X133985000Y-81280000D03*
%TO.P,U1,4*%
%TO.N,Net-(C2-Pad1)*%
X126365000Y-88900000D03*
%TO.P,U1,13*%
%TO.N,Net-(J1-Pad18)*%
X136525000Y-81280000D03*
%TO.P,U1,3*%
%TO.N,T2*%
X123825000Y-88900000D03*
%TO.P,U1,12*%
%TO.N,Net-(J1-Pad16)*%
X139065000Y-81280000D03*
%TO.P,U1,2*%
%TO.N,T1*%
X121285000Y-88900000D03*
%TO.P,U1,11*%
%TO.N,Net-(R6-Pad2)*%
X141605000Y-81280000D03*
D15*
%TO.P,U1,1*%
%TO.N,RST*%
X118745000Y-88900000D03*
%TD*%
D16*
%TO.P,R9,2*%
%TO.N,Net-(R9-Pad2)*%
X154940000Y-82550000D03*
D17*
%TO.P,R9,1*%
%TO.N,Net-(D3-Pad2)*%
X167640000Y-82550000D03*
%TD*%
D16*
%TO.P,R8,2*%
%TO.N,Net-(R8-Pad2)*%
X154940000Y-95250000D03*
D17*
%TO.P,R8,1*%
%TO.N,Net-(D2-Pad2)*%
X167640000Y-95250000D03*
%TD*%
D16*
%TO.P,R6,2*%
%TO.N,Net-(R6-Pad2)*%
X154940000Y-88900000D03*
D17*
%TO.P,R6,1*%
%TO.N,Net-(D1-Pad2)*%
X167640000Y-88900000D03*
%TD*%
D16*
%TO.P,R5,2*%
%TO.N,+5V*%
X142240000Y-92710000D03*
D17*
%TO.P,R5,1*%
%TO.N,Net-(J2-Pad3)*%
X142240000Y-105410000D03*
%TD*%
D16*
%TO.P,R4,2*%
%TO.N,+5V*%
X148590000Y-92710000D03*
D17*
%TO.P,R4,1*%
%TO.N,Net-(J2-Pad2)*%
X148590000Y-105410000D03*
%TD*%
D16*
%TO.P,R3,2*%
%TO.N,D-*%
X118745000Y-107950000D03*
D17*
%TO.P,R3,1*%
%TO.N,Net-(J2-Pad2)*%
X106045000Y-107950000D03*
%TD*%
D16*
%TO.P,R2,2*%
%TO.N,D+*%
X118745000Y-100330000D03*
D17*
%TO.P,R2,1*%
%TO.N,Net-(J2-Pad3)*%
X106045000Y-100330000D03*
%TD*%
D16*
%TO.P,R1,2*%
%TO.N,+5V*%
X113030000Y-93980000D03*
D17*
%TO.P,R1,1*%
%TO.N,RST*%
X113030000Y-81280000D03*
%TD*%
D18*
%TO.P,J4,1*%
%TO.N,+5V*%
X123190000Y-93345000D03*
D19*
%TO.P,J4,2*%
%TO.N,T1*%
X123190000Y-95885000D03*
%TO.P,J4,3*%
%TO.N,T2*%
X123190000Y-98425000D03*
%TO.P,J4,4*%
%TO.N,GND*%
X123190000Y-100965000D03*
%TD*%
%TO.P,J3,6*%
%TO.N,GND*%
X150495000Y-86360000D03*
%TO.P,J3,5*%
%TO.N,RST*%
X147955000Y-86360000D03*
%TO.P,J3,4*%
%TO.N,Net-(J1-Pad22)*%
X150495000Y-83820000D03*
%TO.P,J3,3*%
%TO.N,Net-(J1-Pad24)*%
X147955000Y-83820000D03*
%TO.P,J3,2*%
%TO.N,+5V*%
X150495000Y-81280000D03*
D18*
%TO.P,J3,1*%
%TO.N,Net-(J1-Pad23)*%
X147955000Y-81280000D03*
%TD*%
D20*
%TO.P,J2,5*%
%TO.N,GND*%
X96255000Y-98140000D03*
X96255000Y-110180000D03*
D21*
%TO.P,J2,4*%
X98965000Y-105410000D03*
%TO.P,J2,3*%
%TO.N,Net-(J2-Pad3)*%
X98965000Y-102910000D03*
%TO.P,J2,2*%
%TO.N,Net-(J2-Pad2)*%
X100965000Y-102910000D03*
D18*
%TO.P,J2,1*%
%TO.N,+5V*%
X100965000Y-105410000D03*
%TD*%
D22*
%TO.P,D3,1*%
%TO.N,GND*%
X91440000Y-71120000D03*
D23*
%TO.P,D3,2*%
%TO.N,Net-(D3-Pad2)*%
X93980000Y-71120000D03*
%TD*%
D22*
%TO.P,D2,1*%
%TO.N,GND*%
X104140000Y-71120000D03*
D23*
%TO.P,D2,2*%
%TO.N,Net-(D2-Pad2)*%
X106680000Y-71120000D03*
%TD*%
D22*
%TO.P,D1,1*%
%TO.N,GND*%
X97790000Y-71120000D03*
D23*
%TO.P,D1,2*%
%TO.N,Net-(D1-Pad2)*%
X100330000Y-71120000D03*
%TD*%
D24*
%TO.P,C4,2*%
%TO.N,GND*%
X105950000Y-86995000D03*
D25*
%TO.P,C4,1*%
%TO.N,+5V*%
X107950000Y-86995000D03*
%TD*%
D24*
%TO.P,C3,2*%
%TO.N,GND*%
X105950000Y-93980000D03*
D25*
%TO.P,C3,1*%
%TO.N,+5V*%
X107950000Y-93980000D03*
%TD*%
D26*
%TO.P,C2,2*%
%TO.N,GND*%
X129540000Y-105410000D03*
%TO.P,C2,1*%
%TO.N,Net-(C2-Pad1)*%
X129540000Y-100410000D03*
%TD*%
%TO.P,C1,2*%
%TO.N,GND*%
X134620000Y-105330000D03*
%TO.P,C1,1*%
%TO.N,Net-(C1-Pad1)*%
X134620000Y-100330000D03*
%TD*%
D27*
%TO.N,GND*%
G36*
X178410000Y-113640000D02*
G01*
X90195000Y-113640000D01*
X90195000Y-111849609D01*
X94764997Y-111849609D01*
X94951073Y-112190766D01*
X95368409Y-112406513D01*
X95819815Y-112536696D01*
X96287946Y-112576313D01*
X96754811Y-112523842D01*
X97202468Y-112381297D01*
X97558927Y-112190766D01*
X97745003Y-111849609D01*
X96255000Y-110359605D01*
X94764997Y-111849609D01*
X90195000Y-111849609D01*
X90195000Y-110212946D01*
X93858687Y-110212946D01*
X93911158Y-110679811D01*
X94053703Y-111127468D01*
X94244234Y-111483927D01*
X94585391Y-111670003D01*
X96075395Y-110180000D01*
X96434605Y-110180000D01*
X97924609Y-111670003D01*
X98265766Y-111483927D01*
X98481513Y-111066591D01*
X98611696Y-110615185D01*
X98651313Y-110147054D01*
X98598842Y-109680189D01*
X98456297Y-109232532D01*
X98265766Y-108876073D01*
X97924609Y-108689997D01*
X96434605Y-110180000D01*
X96075395Y-110180000D01*
X94585391Y-108689997D01*
X94244234Y-108876073D01*
X94028487Y-109293409D01*
X93898304Y-109744815D01*
X93858687Y-110212946D01*
X90195000Y-110212946D01*
X90195000Y-108510391D01*
X94764997Y-108510391D01*
X96255000Y-110000395D01*
X97745003Y-108510391D01*
X97558927Y-108169234D01*
X97141591Y-107953487D01*
X96690185Y-107823304D01*
X96222054Y-107783687D01*
X95755189Y-107836158D01*
X95307532Y-107978703D01*
X94951073Y-108169234D01*
X94764997Y-108510391D01*
X90195000Y-108510391D01*
X90195000Y-107769268D01*
X104210000Y-107769268D01*
X104210000Y-108130732D01*
X104280518Y-108485250D01*
X104418844Y-108819199D01*
X104619662Y-109119744D01*
X104875256Y-109375338D01*
X105175801Y-109576156D01*
X105509750Y-109714482D01*
X105864268Y-109785000D01*
X106225732Y-109785000D01*
X106580250Y-109714482D01*
X106914199Y-109576156D01*
X107214744Y-109375338D01*
X107470338Y-109119744D01*
X107671156Y-108819199D01*
X107809482Y-108485250D01*
X107880000Y-108130732D01*
X107880000Y-107769268D01*
X116910000Y-107769268D01*
X116910000Y-108130732D01*
X116980518Y-108485250D01*
X117118844Y-108819199D01*
X117319662Y-109119744D01*
X117575256Y-109375338D01*
X117875801Y-109576156D01*
X118209750Y-109714482D01*
X118564268Y-109785000D01*
X118925732Y-109785000D01*
X119280250Y-109714482D01*
X119614199Y-109576156D01*
X119914744Y-109375338D01*
X120170338Y-109119744D01*
X120371156Y-108819199D01*
X120509482Y-108485250D01*
X120515499Y-108455000D01*
X140201928Y-108455000D01*
X140201928Y-111255000D01*
X140214188Y-111379482D01*
X140250498Y-111499180D01*
X140309463Y-111609494D01*
X140388815Y-111706185D01*
X140485506Y-111785537D01*
X140595820Y-111844502D01*
X140715518Y-111880812D01*
X140840000Y-111893072D01*
X143640000Y-111893072D01*
X143764482Y-111880812D01*
X143884180Y-111844502D01*
X143994494Y-111785537D01*
X144091185Y-111706185D01*
X144170537Y-111609494D01*
X144229502Y-111499180D01*
X144265812Y-111379482D01*
X144278072Y-111255000D01*
X144278072Y-110298160D01*
X152953840Y-110298160D01*
X153042358Y-110589979D01*
X153222208Y-110946068D01*
X153468072Y-111260228D01*
X153770501Y-111520386D01*
X154117873Y-111716544D01*
X154496839Y-111841164D01*
X154813000Y-111727287D01*
X154813000Y-109982000D01*
X155067000Y-109982000D01*
X155067000Y-111727287D01*
X155383161Y-111841164D01*
X155762127Y-111716544D01*
X156109499Y-111520386D01*
X156411928Y-111260228D01*
X156657792Y-110946068D01*
X156837642Y-110589979D01*
X156926160Y-110298160D01*
X156811947Y-109982000D01*
X155067000Y-109982000D01*
X154813000Y-109982000D01*
X153068053Y-109982000D01*
X152953840Y-110298160D01*
X144278072Y-110298160D01*
X144278072Y-109411840D01*
X152953840Y-109411840D01*
X153068053Y-109728000D01*
X154813000Y-109728000D01*
X154813000Y-107982713D01*
X155067000Y-107982713D01*
X155067000Y-109728000D01*
X156811947Y-109728000D01*
X156926160Y-109411840D01*
X156837642Y-109120021D01*
X156657792Y-108763932D01*
X156411928Y-108449772D01*
X156109499Y-108189614D01*
X155762127Y-107993456D01*
X155383161Y-107868836D01*
X155067000Y-107982713D01*
X154813000Y-107982713D01*
X154496839Y-107868836D01*
X154117873Y-107993456D01*
X153770501Y-108189614D01*
X153468072Y-108449772D01*
X153222208Y-108763932D01*
X153042358Y-109120021D01*
X152953840Y-109411840D01*
X144278072Y-109411840D01*
X144278072Y-108455000D01*
X144265812Y-108330518D01*
X144229502Y-108210820D01*
X144170537Y-108100506D01*
X144091185Y-108003815D01*
X143994494Y-107924463D01*
X143884180Y-107865498D01*
X143764482Y-107829188D01*
X143640000Y-107816928D01*
X140840000Y-107816928D01*
X140715518Y-107829188D01*
X140595820Y-107865498D01*
X140485506Y-107924463D01*
X140388815Y-108003815D01*
X140309463Y-108100506D01*
X140250498Y-108210820D01*
X140214188Y-108330518D01*
X140201928Y-108455000D01*
X120515499Y-108455000D01*
X120580000Y-108130732D01*
X120580000Y-107769268D01*
X120509482Y-107414750D01*
X120371156Y-107080801D01*
X120170338Y-106780256D01*
X119935495Y-106545413D01*
X128584192Y-106545413D01*
X128679956Y-106809814D01*
X128969571Y-106950704D01*
X129281108Y-107032384D01*
X129602595Y-107051718D01*
X129921675Y-107007961D01*
X130226088Y-106902795D01*
X130400044Y-106809814D01*
X130495808Y-106545413D01*
X130415808Y-106465413D01*
X133664192Y-106465413D01*
X133759956Y-106729814D01*
X134049571Y-106870704D01*
X134361108Y-106952384D01*
X134682595Y-106971718D01*
X135001675Y-106927961D01*
X135306088Y-106822795D01*
X135480044Y-106729814D01*
X135575808Y-106465413D01*
X134620000Y-105509605D01*
X133664192Y-106465413D01*
X130415808Y-106465413D01*
X129540000Y-105589605D01*
X128584192Y-106545413D01*
X119935495Y-106545413D01*
X119914744Y-106524662D01*
X119614199Y-106323844D01*
X119280250Y-106185518D01*
X118925732Y-106115000D01*
X118564268Y-106115000D01*
X118209750Y-106185518D01*
X117875801Y-106323844D01*
X117575256Y-106524662D01*
X117319662Y-106780256D01*
X117118844Y-107080801D01*
X116980518Y-107414750D01*
X116910000Y-107769268D01*
X107880000Y-107769268D01*
X107809482Y-107414750D01*
X107671156Y-107080801D01*
X107470338Y-106780256D01*
X107214744Y-106524662D01*
X106914199Y-106323844D01*
X106580250Y-106185518D01*
X106225732Y-106115000D01*
X105864268Y-106115000D01*
X105509750Y-106185518D01*
X105175801Y-106323844D01*
X104875256Y-106524662D01*
X104619662Y-106780256D01*
X104418844Y-107080801D01*
X104280518Y-107414750D01*
X104210000Y-107769268D01*
X90195000Y-107769268D01*
X90195000Y-105478531D01*
X97474389Y-105478531D01*
X97516401Y-105768019D01*
X97614081Y-106043747D01*
X97687528Y-106181157D01*
X97936603Y-106258792D01*
X98785395Y-105410000D01*
X97936603Y-104561208D01*
X97687528Y-104638843D01*
X97561629Y-104902883D01*
X97489661Y-105186411D01*
X97474389Y-105478531D01*
X90195000Y-105478531D01*
X90195000Y-102763740D01*
X97480000Y-102763740D01*
X97480000Y-103056260D01*
X97537068Y-103343158D01*
X97649010Y-103613411D01*
X97811525Y-103856632D01*
X98018368Y-104063475D01*
X98181410Y-104172416D01*
X98116208Y-104381603D01*
X98965000Y-105230395D01*
X98979143Y-105216253D01*
X99158748Y-105395858D01*
X99144605Y-105410000D01*
X99158748Y-105424143D01*
X98979143Y-105603748D01*
X98965000Y-105589605D01*
X98116208Y-106438397D01*
X98193843Y-106687472D01*
X98457883Y-106813371D01*
X98741411Y-106885339D01*
X99033531Y-106900611D01*
X99323019Y-106858599D01*
X99598747Y-106760919D01*
X99674850Y-106720241D01*
X99760506Y-106790537D01*
X99870820Y-106849502D01*
X99990518Y-106885812D01*
X100115000Y-106898072D01*
X101815000Y-106898072D01*
X101939482Y-106885812D01*
X102059180Y-106849502D01*
X102169494Y-106790537D01*
X102266185Y-106711185D01*
X102345537Y-106614494D01*
X102404502Y-106504180D01*
X102440812Y-106384482D01*
X102453072Y-106260000D01*
X102453072Y-105472595D01*
X127898282Y-105472595D01*
X127942039Y-105791675D01*
X128047205Y-106096088D01*
X128140186Y-106270044D01*
X128404587Y-106365808D01*
X129360395Y-105410000D01*
X129719605Y-105410000D01*
X130675413Y-106365808D01*
X130939814Y-106270044D01*
X131080704Y-105980429D01*
X131162384Y-105668892D01*
X131179000Y-105392595D01*
X132978282Y-105392595D01*
X133022039Y-105711675D01*
X133127205Y-106016088D01*
X133220186Y-106190044D01*
X133484587Y-106285808D01*
X134440395Y-105330000D01*
X134799605Y-105330000D01*
X135755413Y-106285808D01*
X136019814Y-106190044D01*
X136160704Y-105900429D01*
X136242384Y-105588892D01*
X136261718Y-105267405D01*
X136256489Y-105229268D01*
X140405000Y-105229268D01*
X140405000Y-105590732D01*
X140475518Y-105945250D01*
X140613844Y-106279199D01*
X140814662Y-106579744D01*
X141070256Y-106835338D01*
X141370801Y-107036156D01*
X141704750Y-107174482D01*
X142059268Y-107245000D01*
X142420732Y-107245000D01*
X142775250Y-107174482D01*
X143109199Y-107036156D01*
X143409744Y-106835338D01*
X143665338Y-106579744D01*
X143866156Y-106279199D01*
X144004482Y-105945250D01*
X144075000Y-105590732D01*
X144075000Y-105229268D01*
X146755000Y-105229268D01*
X146755000Y-105590732D01*
X146825518Y-105945250D01*
X146963844Y-106279199D01*
X147164662Y-106579744D01*
X147420256Y-106835338D01*
X147720801Y-107036156D01*
X148054750Y-107174482D01*
X148409268Y-107245000D01*
X148770732Y-107245000D01*
X149125250Y-107174482D01*
X149459199Y-107036156D01*
X149759744Y-106835338D01*
X150015338Y-106579744D01*
X150216156Y-106279199D01*
X150354482Y-105945250D01*
X150425000Y-105590732D01*
X150425000Y-105229268D01*
X150354482Y-104874750D01*
X150216156Y-104540801D01*
X150015338Y-104240256D01*
X149759744Y-103984662D01*
X149459199Y-103783844D01*
X149125250Y-103645518D01*
X148770732Y-103575000D01*
X148409268Y-103575000D01*
X148054750Y-103645518D01*
X147720801Y-103783844D01*
X147420256Y-103984662D01*
X147164662Y-104240256D01*
X146963844Y-104540801D01*
X146825518Y-104874750D01*
X146755000Y-105229268D01*
X144075000Y-105229268D01*
X144004482Y-104874750D01*
X143866156Y-104540801D01*
X143665338Y-104240256D01*
X143409744Y-103984662D01*
X143109199Y-103783844D01*
X142775250Y-103645518D01*
X142420732Y-103575000D01*
X142059268Y-103575000D01*
X141704750Y-103645518D01*
X141370801Y-103783844D01*
X141070256Y-103984662D01*
X140814662Y-104240256D01*
X140613844Y-104540801D01*
X140475518Y-104874750D01*
X140405000Y-105229268D01*
X136256489Y-105229268D01*
X136217961Y-104948325D01*
X136112795Y-104643912D01*
X136019814Y-104469956D01*
X135755413Y-104374192D01*
X134799605Y-105330000D01*
X134440395Y-105330000D01*
X133484587Y-104374192D01*
X133220186Y-104469956D01*
X133079296Y-104759571D01*
X132997616Y-105071108D01*
X132978282Y-105392595D01*
X131179000Y-105392595D01*
X131181718Y-105347405D01*
X131137961Y-105028325D01*
X131032795Y-104723912D01*
X130939814Y-104549956D01*
X130675413Y-104454192D01*
X129719605Y-105410000D01*
X129360395Y-105410000D01*
X128404587Y-104454192D01*
X128140186Y-104549956D01*
X127999296Y-104839571D01*
X127917616Y-105151108D01*
X127898282Y-105472595D01*
X102453072Y-105472595D01*
X102453072Y-104560000D01*
X102440812Y-104435518D01*
X102404502Y-104315820D01*
X102382463Y-104274587D01*
X128584192Y-104274587D01*
X129540000Y-105230395D01*
X130495808Y-104274587D01*
X130466833Y-104194587D01*
X133664192Y-104194587D01*
X134620000Y-105150395D01*
X135575808Y-104194587D01*
X135480044Y-103930186D01*
X135190429Y-103789296D01*
X134878892Y-103707616D01*
X134557405Y-103688282D01*
X134238325Y-103732039D01*
X133933912Y-103837205D01*
X133759956Y-103930186D01*
X133664192Y-104194587D01*
X130466833Y-104194587D01*
X130400044Y-104010186D01*
X130110429Y-103869296D01*
X129798892Y-103787616D01*
X129477405Y-103768282D01*
X129158325Y-103812039D01*
X128853912Y-103917205D01*
X128679956Y-104010186D01*
X128584192Y-104274587D01*
X102382463Y-104274587D01*
X102345537Y-104205506D01*
X102266185Y-104108815D01*
X102169494Y-104029463D01*
X102059180Y-103970498D01*
X102017310Y-103957797D01*
X102118475Y-103856632D01*
X102280990Y-103613411D01*
X102392932Y-103343158D01*
X102450000Y-103056260D01*
X102450000Y-102763740D01*
X102445278Y-102740000D01*
X151631928Y-102740000D01*
X151631928Y-105540000D01*
X151644188Y-105664482D01*
X151680498Y-105784180D01*
X151739463Y-105894494D01*
X151818815Y-105991185D01*
X151915506Y-106070537D01*
X152025820Y-106129502D01*
X152145518Y-106165812D01*
X152270000Y-106178072D01*
X155070000Y-106178072D01*
X155194482Y-106165812D01*
X155314180Y-106129502D01*
X155424494Y-106070537D01*
X155521185Y-105991185D01*
X155600537Y-105894494D01*
X155659502Y-105784180D01*
X155695812Y-105664482D01*
X155708072Y-105540000D01*
X155708072Y-104583160D01*
X164383840Y-104583160D01*
X164472358Y-104874979D01*
X164652208Y-105231068D01*
X164898072Y-105545228D01*
X165200501Y-105805386D01*
X165547873Y-106001544D01*
X165926839Y-106126164D01*
X166243000Y-106012287D01*
X166243000Y-104267000D01*
X166497000Y-104267000D01*
X166497000Y-106012287D01*
X166813161Y-106126164D01*
X167192127Y-106001544D01*
X167539499Y-105805386D01*
X167841928Y-105545228D01*
X168087792Y-105231068D01*
X168267642Y-104874979D01*
X168356160Y-104583160D01*
X168241947Y-104267000D01*
X166497000Y-104267000D01*
X166243000Y-104267000D01*
X164498053Y-104267000D01*
X164383840Y-104583160D01*
X155708072Y-104583160D01*
X155708072Y-103696840D01*
X164383840Y-103696840D01*
X164498053Y-104013000D01*
X166243000Y-104013000D01*
X166243000Y-102267713D01*
X166497000Y-102267713D01*
X166497000Y-104013000D01*
X168241947Y-104013000D01*
X168356160Y-103696840D01*
X168267642Y-103405021D01*
X168087792Y-103048932D01*
X167841928Y-102734772D01*
X167539499Y-102474614D01*
X167192127Y-102278456D01*
X166813161Y-102153836D01*
X166497000Y-102267713D01*
X166243000Y-102267713D01*
X165926839Y-102153836D01*
X165547873Y-102278456D01*
X165200501Y-102474614D01*
X164898072Y-102734772D01*
X164652208Y-103048932D01*
X164472358Y-103405021D01*
X164383840Y-103696840D01*
X155708072Y-103696840D01*
X155708072Y-102740000D01*
X155695812Y-102615518D01*
X155659502Y-102495820D01*
X155600537Y-102385506D01*
X155521185Y-102288815D01*
X155424494Y-102209463D01*
X155314180Y-102150498D01*
X155194482Y-102114188D01*
X155070000Y-102101928D01*
X152270000Y-102101928D01*
X152145518Y-102114188D01*
X152025820Y-102150498D01*
X151915506Y-102209463D01*
X151818815Y-102288815D01*
X151739463Y-102385506D01*
X151680498Y-102495820D01*
X151644188Y-102615518D01*
X151631928Y-102740000D01*
X102445278Y-102740000D01*
X102392932Y-102476842D01*
X102280990Y-102206589D01*
X102118475Y-101963368D01*
X101911632Y-101756525D01*
X101668411Y-101594010D01*
X101398158Y-101482068D01*
X101111260Y-101425000D01*
X100818740Y-101425000D01*
X100531842Y-101482068D01*
X100261589Y-101594010D01*
X100018368Y-101756525D01*
X99965000Y-101809893D01*
X99911632Y-101756525D01*
X99668411Y-101594010D01*
X99398158Y-101482068D01*
X99111260Y-101425000D01*
X98818740Y-101425000D01*
X98531842Y-101482068D01*
X98261589Y-101594010D01*
X98018368Y-101756525D01*
X97811525Y-101963368D01*
X97649010Y-102206589D01*
X97537068Y-102476842D01*
X97480000Y-102763740D01*
X90195000Y-102763740D01*
X90195000Y-99809609D01*
X94764997Y-99809609D01*
X94951073Y-100150766D01*
X95368409Y-100366513D01*
X95819815Y-100496696D01*
X96287946Y-100536313D01*
X96754811Y-100483842D01*
X97202468Y-100341297D01*
X97558927Y-100150766D01*
X97559744Y-100149268D01*
X104210000Y-100149268D01*
X104210000Y-100510732D01*
X104280518Y-100865250D01*
X104418844Y-101199199D01*
X104619662Y-101499744D01*
X104875256Y-101755338D01*
X105175801Y-101956156D01*
X105509750Y-102094482D01*
X105864268Y-102165000D01*
X106225732Y-102165000D01*
X106580250Y-102094482D01*
X106914199Y-101956156D01*
X107214744Y-101755338D01*
X107470338Y-101499744D01*
X107671156Y-101199199D01*
X107809482Y-100865250D01*
X107880000Y-100510732D01*
X107880000Y-100149268D01*
X116910000Y-100149268D01*
X116910000Y-100510732D01*
X116980518Y-100865250D01*
X117118844Y-101199199D01*
X117319662Y-101499744D01*
X117575256Y-101755338D01*
X117875801Y-101956156D01*
X118209750Y-102094482D01*
X118564268Y-102165000D01*
X118925732Y-102165000D01*
X119280250Y-102094482D01*
X119614199Y-101956156D01*
X119914744Y-101755338D01*
X120170338Y-101499744D01*
X120289176Y-101321890D01*
X121748524Y-101321890D01*
X121793175Y-101469099D01*
X121918359Y-101731920D01*
X122092412Y-101965269D01*
X122308645Y-102160178D01*
X122558748Y-102309157D01*
X122833109Y-102406481D01*
X123063000Y-102285814D01*
X123063000Y-101092000D01*
X123317000Y-101092000D01*
X123317000Y-102285814D01*
X123546891Y-102406481D01*
X123821252Y-102309157D01*
X124071355Y-102160178D01*
X124287588Y-101965269D01*
X124461641Y-101731920D01*
X124586825Y-101469099D01*
X124631476Y-101321890D01*
X124510155Y-101092000D01*
X123317000Y-101092000D01*
X123063000Y-101092000D01*
X121869845Y-101092000D01*
X121748524Y-101321890D01*
X120289176Y-101321890D01*
X120371156Y-101199199D01*
X120509482Y-100865250D01*
X120580000Y-100510732D01*
X120580000Y-100149268D01*
X120509482Y-99794750D01*
X120371156Y-99460801D01*
X120170338Y-99160256D01*
X119914744Y-98904662D01*
X119614199Y-98703844D01*
X119280250Y-98565518D01*
X118925732Y-98495000D01*
X118564268Y-98495000D01*
X118209750Y-98565518D01*
X117875801Y-98703844D01*
X117575256Y-98904662D01*
X117319662Y-99160256D01*
X117118844Y-99460801D01*
X116980518Y-99794750D01*
X116910000Y-100149268D01*
X107880000Y-100149268D01*
X107809482Y-99794750D01*
X107671156Y-99460801D01*
X107470338Y-99160256D01*
X107214744Y-98904662D01*
X106914199Y-98703844D01*
X106580250Y-98565518D01*
X106225732Y-98495000D01*
X105864268Y-98495000D01*
X105509750Y-98565518D01*
X105175801Y-98703844D01*
X104875256Y-98904662D01*
X104619662Y-99160256D01*
X104418844Y-99460801D01*
X104280518Y-99794750D01*
X104210000Y-100149268D01*
X97559744Y-100149268D01*
X97745003Y-99809609D01*
X96255000Y-98319605D01*
X94764997Y-99809609D01*
X90195000Y-99809609D01*
X90195000Y-98172946D01*
X93858687Y-98172946D01*
X93911158Y-98639811D01*
X94053703Y-99087468D01*
X94244234Y-99443927D01*
X94585391Y-99630003D01*
X96075395Y-98140000D01*
X96434605Y-98140000D01*
X97924609Y-99630003D01*
X98265766Y-99443927D01*
X98481513Y-99026591D01*
X98611696Y-98575185D01*
X98651313Y-98107054D01*
X98598842Y-97640189D01*
X98456297Y-97192532D01*
X98265766Y-96836073D01*
X97924609Y-96649997D01*
X96434605Y-98140000D01*
X96075395Y-98140000D01*
X94585391Y-96649997D01*
X94244234Y-96836073D01*
X94028487Y-97253409D01*
X93898304Y-97704815D01*
X93858687Y-98172946D01*
X90195000Y-98172946D01*
X90195000Y-96470391D01*
X94764997Y-96470391D01*
X96255000Y-97960395D01*
X97745003Y-96470391D01*
X97558927Y-96129234D01*
X97141591Y-95913487D01*
X96690185Y-95783304D01*
X96222054Y-95743687D01*
X95755189Y-95796158D01*
X95307532Y-95938703D01*
X94951073Y-96129234D01*
X94764997Y-96470391D01*
X90195000Y-96470391D01*
X90195000Y-94058438D01*
X104711505Y-94058438D01*
X104750605Y-94298549D01*
X104835798Y-94526418D01*
X104876652Y-94602852D01*
X105100236Y-94650159D01*
X105770395Y-93980000D01*
X105100236Y-93309841D01*
X104876652Y-93357148D01*
X104775763Y-93578516D01*
X104720000Y-93815313D01*
X104711505Y-94058438D01*
X90195000Y-94058438D01*
X90195000Y-93130236D01*
X105279841Y-93130236D01*
X105950000Y-93800395D01*
X105964143Y-93786253D01*
X106143748Y-93965858D01*
X106129605Y-93980000D01*
X106143748Y-93994143D01*
X105964143Y-94173748D01*
X105950000Y-94159605D01*
X105279841Y-94829764D01*
X105327148Y-95053348D01*
X105548516Y-95154237D01*
X105785313Y-95210000D01*
X106028438Y-95218495D01*
X106268549Y-95179395D01*
X106496418Y-95094202D01*
X106572852Y-95053348D01*
X106620158Y-94829766D01*
X106737264Y-94946872D01*
X106795142Y-94888994D01*
X106819463Y-94934494D01*
X106898815Y-95031185D01*
X106995506Y-95110537D01*
X107105820Y-95169502D01*
X107225518Y-95205812D01*
X107350000Y-95218072D01*
X108550000Y-95218072D01*
X108674482Y-95205812D01*
X108794180Y-95169502D01*
X108904494Y-95110537D01*
X109001185Y-95031185D01*
X109080537Y-94934494D01*
X109139502Y-94824180D01*
X109175812Y-94704482D01*
X109188072Y-94580000D01*
X109188072Y-93799268D01*
X111195000Y-93799268D01*
X111195000Y-94160732D01*
X111265518Y-94515250D01*
X111403844Y-94849199D01*
X111604662Y-95149744D01*
X111860256Y-95405338D01*
X112160801Y-95606156D01*
X112494750Y-95744482D01*
X112849268Y-95815000D01*
X113210732Y-95815000D01*
X113565250Y-95744482D01*
X113899199Y-95606156D01*
X114199744Y-95405338D01*
X114455338Y-95149744D01*
X114656156Y-94849199D01*
X114794482Y-94515250D01*
X114865000Y-94160732D01*
X114865000Y-93799268D01*
X114794482Y-93444750D01*
X114656156Y-93110801D01*
X114455338Y-92810256D01*
X114199744Y-92554662D01*
X114110454Y-92495000D01*
X121701928Y-92495000D01*
X121701928Y-94195000D01*
X121714188Y-94319482D01*
X121750498Y-94439180D01*
X121809463Y-94549494D01*
X121888815Y-94646185D01*
X121985506Y-94725537D01*
X122095820Y-94784502D01*
X122168380Y-94806513D01*
X122036525Y-94938368D01*
X121874010Y-95181589D01*
X121762068Y-95451842D01*
X121705000Y-95738740D01*
X121705000Y-96031260D01*
X121762068Y-96318158D01*
X121874010Y-96588411D01*
X122036525Y-96831632D01*
X122243368Y-97038475D01*
X122417760Y-97155000D01*
X122243368Y-97271525D01*
X122036525Y-97478368D01*
X121874010Y-97721589D01*
X121762068Y-97991842D01*
X121705000Y-98278740D01*
X121705000Y-98571260D01*
X121762068Y-98858158D01*
X121874010Y-99128411D01*
X122036525Y-99371632D01*
X122243368Y-99578475D01*
X122425534Y-99700195D01*
X122308645Y-99769822D01*
X122092412Y-99964731D01*
X121918359Y-100198080D01*
X121793175Y-100460901D01*
X121748524Y-100608110D01*
X121869845Y-100838000D01*
X123063000Y-100838000D01*
X123063000Y-100818000D01*
X123317000Y-100818000D01*
X123317000Y-100838000D01*
X124510155Y-100838000D01*
X124631476Y-100608110D01*
X124586825Y-100460901D01*
X124485879Y-100248967D01*
X127905000Y-100248967D01*
X127905000Y-100571033D01*
X127967832Y-100886912D01*
X128091082Y-101184463D01*
X128270013Y-101452252D01*
X128497748Y-101679987D01*
X128765537Y-101858918D01*
X129063088Y-101982168D01*
X129378967Y-102045000D01*
X129701033Y-102045000D01*
X130016912Y-101982168D01*
X130314463Y-101858918D01*
X130582252Y-101679987D01*
X130809987Y-101452252D01*
X130988918Y-101184463D01*
X131112168Y-100886912D01*
X131175000Y-100571033D01*
X131175000Y-100248967D01*
X131159088Y-100168967D01*
X132985000Y-100168967D01*
X132985000Y-100491033D01*
X133047832Y-100806912D01*
X133171082Y-101104463D01*
X133350013Y-101372252D01*
X133577748Y-101599987D01*
X133845537Y-101778918D01*
X134143088Y-101902168D01*
X134458967Y-101965000D01*
X134781033Y-101965000D01*
X135096912Y-101902168D01*
X135394463Y-101778918D01*
X135662252Y-101599987D01*
X135889987Y-101372252D01*
X136068918Y-101104463D01*
X136192168Y-100806912D01*
X136255000Y-100491033D01*
X136255000Y-100168967D01*
X136192168Y-99853088D01*
X136068918Y-99555537D01*
X135889987Y-99287748D01*
X135662252Y-99060013D01*
X135394463Y-98881082D01*
X135096912Y-98757832D01*
X134781033Y-98695000D01*
X134458967Y-98695000D01*
X134143088Y-98757832D01*
X133845537Y-98881082D01*
X133577748Y-99060013D01*
X133350013Y-99287748D01*
X133171082Y-99555537D01*
X133047832Y-99853088D01*
X132985000Y-100168967D01*
X131159088Y-100168967D01*
X131112168Y-99933088D01*
X130988918Y-99635537D01*
X130809987Y-99367748D01*
X130582252Y-99140013D01*
X130314463Y-98961082D01*
X130016912Y-98837832D01*
X129701033Y-98775000D01*
X129378967Y-98775000D01*
X129063088Y-98837832D01*
X128765537Y-98961082D01*
X128497748Y-99140013D01*
X128270013Y-99367748D01*
X128091082Y-99635537D01*
X127967832Y-99933088D01*
X127905000Y-100248967D01*
X124485879Y-100248967D01*
X124461641Y-100198080D01*
X124287588Y-99964731D01*
X124071355Y-99769822D01*
X123954466Y-99700195D01*
X124136632Y-99578475D01*
X124343475Y-99371632D01*
X124505990Y-99128411D01*
X124617932Y-98858158D01*
X124675000Y-98571260D01*
X124675000Y-98278740D01*
X124617932Y-97991842D01*
X124505990Y-97721589D01*
X124343475Y-97478368D01*
X124136632Y-97271525D01*
X123962240Y-97155000D01*
X124136632Y-97038475D01*
X124343475Y-96831632D01*
X124505990Y-96588411D01*
X124617932Y-96318158D01*
X124675000Y-96031260D01*
X124675000Y-95738740D01*
X124617932Y-95451842D01*
X124505990Y-95181589D01*
X124460554Y-95113589D01*
X128335000Y-95113589D01*
X128335000Y-95386411D01*
X128388225Y-95653989D01*
X128492629Y-95906043D01*
X128644201Y-96132886D01*
X128837114Y-96325799D01*
X129063957Y-96477371D01*
X129316011Y-96581775D01*
X129583589Y-96635000D01*
X129856411Y-96635000D01*
X130123989Y-96581775D01*
X130376043Y-96477371D01*
X130602886Y-96325799D01*
X130795799Y-96132886D01*
X130947371Y-95906043D01*
X131051775Y-95653989D01*
X131105000Y-95386411D01*
X131105000Y-95113589D01*
X133235000Y-95113589D01*
X133235000Y-95386411D01*
X133288225Y-95653989D01*
X133392629Y-95906043D01*
X133544201Y-96132886D01*
X133737114Y-96325799D01*
X133963957Y-96477371D01*
X134216011Y-96581775D01*
X134483589Y-96635000D01*
X134756411Y-96635000D01*
X135023989Y-96581775D01*
X135276043Y-96477371D01*
X135502886Y-96325799D01*
X135695799Y-96132886D01*
X135847371Y-95906043D01*
X135951775Y-95653989D01*
X136005000Y-95386411D01*
X136005000Y-95113589D01*
X135996184Y-95069268D01*
X153105000Y-95069268D01*
X153105000Y-95430732D01*
X153175518Y-95785250D01*
X153313844Y-96119199D01*
X153514662Y-96419744D01*
X153770256Y-96675338D01*
X154070801Y-96876156D01*
X154404750Y-97014482D01*
X154759268Y-97085000D01*
X155120732Y-97085000D01*
X155475250Y-97014482D01*
X155809199Y-96876156D01*
X156109744Y-96675338D01*
X156365338Y-96419744D01*
X156566156Y-96119199D01*
X156704482Y-95785250D01*
X156775000Y-95430732D01*
X156775000Y-95069268D01*
X165805000Y-95069268D01*
X165805000Y-95430732D01*
X165875518Y-95785250D01*
X166013844Y-96119199D01*
X166214662Y-96419744D01*
X166470256Y-96675338D01*
X166770801Y-96876156D01*
X167104750Y-97014482D01*
X167459268Y-97085000D01*
X167820732Y-97085000D01*
X168175250Y-97014482D01*
X168509199Y-96876156D01*
X168809744Y-96675338D01*
X169065338Y-96419744D01*
X169266156Y-96119199D01*
X169404482Y-95785250D01*
X169475000Y-95430732D01*
X169475000Y-95069268D01*
X169404482Y-94714750D01*
X169266156Y-94380801D01*
X169065338Y-94080256D01*
X168809744Y-93824662D01*
X168509199Y-93623844D01*
X168175250Y-93485518D01*
X167820732Y-93415000D01*
X167459268Y-93415000D01*
X167104750Y-93485518D01*
X166770801Y-93623844D01*
X166470256Y-93824662D01*
X166214662Y-94080256D01*
X166013844Y-94380801D01*
X165875518Y-94714750D01*
X165805000Y-95069268D01*
X156775000Y-95069268D01*
X156704482Y-94714750D01*
X156566156Y-94380801D01*
X156365338Y-94080256D01*
X156109744Y-93824662D01*
X155809199Y-93623844D01*
X155475250Y-93485518D01*
X155120732Y-93415000D01*
X154759268Y-93415000D01*
X154404750Y-93485518D01*
X154070801Y-93623844D01*
X153770256Y-93824662D01*
X153514662Y-94080256D01*
X153313844Y-94380801D01*
X153175518Y-94714750D01*
X153105000Y-95069268D01*
X135996184Y-95069268D01*
X135951775Y-94846011D01*
X135847371Y-94593957D01*
X135695799Y-94367114D01*
X135502886Y-94174201D01*
X135276043Y-94022629D01*
X135023989Y-93918225D01*
X134756411Y-93865000D01*
X134483589Y-93865000D01*
X134216011Y-93918225D01*
X133963957Y-94022629D01*
X133737114Y-94174201D01*
X133544201Y-94367114D01*
X133392629Y-94593957D01*
X133288225Y-94846011D01*
X133235000Y-95113589D01*
X131105000Y-95113589D01*
X131051775Y-94846011D01*
X130947371Y-94593957D01*
X130795799Y-94367114D01*
X130602886Y-94174201D01*
X130376043Y-94022629D01*
X130123989Y-93918225D01*
X129856411Y-93865000D01*
X129583589Y-93865000D01*
X129316011Y-93918225D01*
X129063957Y-94022629D01*
X128837114Y-94174201D01*
X128644201Y-94367114D01*
X128492629Y-94593957D01*
X128388225Y-94846011D01*
X128335000Y-95113589D01*
X124460554Y-95113589D01*
X124343475Y-94938368D01*
X124211620Y-94806513D01*
X124284180Y-94784502D01*
X124394494Y-94725537D01*
X124491185Y-94646185D01*
X124570537Y-94549494D01*
X124629502Y-94439180D01*
X124665812Y-94319482D01*
X124678072Y-94195000D01*
X124678072Y-92529268D01*
X140405000Y-92529268D01*
X140405000Y-92890732D01*
X140475518Y-93245250D01*
X140613844Y-93579199D01*
X140814662Y-93879744D01*
X141070256Y-94135338D01*
X141370801Y-94336156D01*
X141704750Y-94474482D01*
X142059268Y-94545000D01*
X142420732Y-94545000D01*
X142775250Y-94474482D01*
X143109199Y-94336156D01*
X143409744Y-94135338D01*
X143665338Y-93879744D01*
X143866156Y-93579199D01*
X144004482Y-93245250D01*
X144075000Y-92890732D01*
X144075000Y-92529268D01*
X146755000Y-92529268D01*
X146755000Y-92890732D01*
X146825518Y-93245250D01*
X146963844Y-93579199D01*
X147164662Y-93879744D01*
X147420256Y-94135338D01*
X147720801Y-94336156D01*
X148054750Y-94474482D01*
X148409268Y-94545000D01*
X148770732Y-94545000D01*
X149125250Y-94474482D01*
X149459199Y-94336156D01*
X149759744Y-94135338D01*
X150015338Y-93879744D01*
X150216156Y-93579199D01*
X150354482Y-93245250D01*
X150425000Y-92890732D01*
X150425000Y-92529268D01*
X150354482Y-92174750D01*
X150216156Y-91840801D01*
X150015338Y-91540256D01*
X149759744Y-91284662D01*
X149459199Y-91083844D01*
X149125250Y-90945518D01*
X148770732Y-90875000D01*
X148409268Y-90875000D01*
X148054750Y-90945518D01*
X147720801Y-91083844D01*
X147420256Y-91284662D01*
X147164662Y-91540256D01*
X146963844Y-91840801D01*
X146825518Y-92174750D01*
X146755000Y-92529268D01*
X144075000Y-92529268D01*
X144004482Y-92174750D01*
X143866156Y-91840801D01*
X143665338Y-91540256D01*
X143409744Y-91284662D01*
X143109199Y-91083844D01*
X142775250Y-90945518D01*
X142420732Y-90875000D01*
X142059268Y-90875000D01*
X141704750Y-90945518D01*
X141370801Y-91083844D01*
X141070256Y-91284662D01*
X140814662Y-91540256D01*
X140613844Y-91840801D01*
X140475518Y-92174750D01*
X140405000Y-92529268D01*
X124678072Y-92529268D01*
X124678072Y-92495000D01*
X124665812Y-92370518D01*
X124629502Y-92250820D01*
X124570537Y-92140506D01*
X124491185Y-92043815D01*
X124394494Y-91964463D01*
X124284180Y-91905498D01*
X124164482Y-91869188D01*
X124040000Y-91856928D01*
X122340000Y-91856928D01*
X122215518Y-91869188D01*
X122095820Y-91905498D01*
X121985506Y-91964463D01*
X121888815Y-92043815D01*
X121809463Y-92140506D01*
X121750498Y-92250820D01*
X121714188Y-92370518D01*
X121701928Y-92495000D01*
X114110454Y-92495000D01*
X113899199Y-92353844D01*
X113565250Y-92215518D01*
X113210732Y-92145000D01*
X112849268Y-92145000D01*
X112494750Y-92215518D01*
X112160801Y-92353844D01*
X111860256Y-92554662D01*
X111604662Y-92810256D01*
X111403844Y-93110801D01*
X111265518Y-93444750D01*
X111195000Y-93799268D01*
X109188072Y-93799268D01*
X109188072Y-93380000D01*
X109175812Y-93255518D01*
X109139502Y-93135820D01*
X109080537Y-93025506D01*
X109001185Y-92928815D01*
X108904494Y-92849463D01*
X108794180Y-92790498D01*
X108674482Y-92754188D01*
X108550000Y-92741928D01*
X107350000Y-92741928D01*
X107225518Y-92754188D01*
X107105820Y-92790498D01*
X106995506Y-92849463D01*
X106898815Y-92928815D01*
X106819463Y-93025506D01*
X106795142Y-93071006D01*
X106737264Y-93013128D01*
X106620158Y-93130234D01*
X106572852Y-92906652D01*
X106351484Y-92805763D01*
X106114687Y-92750000D01*
X105871562Y-92741505D01*
X105631451Y-92780605D01*
X105403582Y-92865798D01*
X105327148Y-92906652D01*
X105279841Y-93130236D01*
X90195000Y-93130236D01*
X90195000Y-87073438D01*
X104711505Y-87073438D01*
X104750605Y-87313549D01*
X104835798Y-87541418D01*
X104876652Y-87617852D01*
X105100236Y-87665159D01*
X105770395Y-86995000D01*
X105100236Y-86324841D01*
X104876652Y-86372148D01*
X104775763Y-86593516D01*
X104720000Y-86830313D01*
X104711505Y-87073438D01*
X90195000Y-87073438D01*
X90195000Y-86145236D01*
X105279841Y-86145236D01*
X105950000Y-86815395D01*
X105964143Y-86801253D01*
X106143748Y-86980858D01*
X106129605Y-86995000D01*
X106143748Y-87009143D01*
X105964143Y-87188748D01*
X105950000Y-87174605D01*
X105279841Y-87844764D01*
X105327148Y-88068348D01*
X105548516Y-88169237D01*
X105785313Y-88225000D01*
X106028438Y-88233495D01*
X106268549Y-88194395D01*
X106496418Y-88109202D01*
X106572852Y-88068348D01*
X106620158Y-87844766D01*
X106737264Y-87961872D01*
X106795142Y-87903994D01*
X106819463Y-87949494D01*
X106898815Y-88046185D01*
X106995506Y-88125537D01*
X107105820Y-88184502D01*
X107225518Y-88220812D01*
X107350000Y-88233072D01*
X108550000Y-88233072D01*
X108674482Y-88220812D01*
X108794180Y-88184502D01*
X108904494Y-88125537D01*
X108935611Y-88100000D01*
X117306928Y-88100000D01*
X117306928Y-89700000D01*
X117319188Y-89824482D01*
X117355498Y-89944180D01*
X117414463Y-90054494D01*
X117493815Y-90151185D01*
X117590506Y-90230537D01*
X117700820Y-90289502D01*
X117820518Y-90325812D01*
X117945000Y-90338072D01*
X119545000Y-90338072D01*
X119669482Y-90325812D01*
X119789180Y-90289502D01*
X119899494Y-90230537D01*
X119996185Y-90151185D01*
X120075537Y-90054494D01*
X120134502Y-89944180D01*
X120170812Y-89824482D01*
X120171643Y-89816039D01*
X120370241Y-90014637D01*
X120605273Y-90171680D01*
X120866426Y-90279853D01*
X121143665Y-90335000D01*
X121426335Y-90335000D01*
X121703574Y-90279853D01*
X121964727Y-90171680D01*
X122199759Y-90014637D01*
X122399637Y-89814759D01*
X122555000Y-89582241D01*
X122710363Y-89814759D01*
X122910241Y-90014637D01*
X123145273Y-90171680D01*
X123406426Y-90279853D01*
X123683665Y-90335000D01*
X123966335Y-90335000D01*
X124243574Y-90279853D01*
X124504727Y-90171680D01*
X124739759Y-90014637D01*
X124939637Y-89814759D01*
X125095000Y-89582241D01*
X125250363Y-89814759D01*
X125450241Y-90014637D01*
X125685273Y-90171680D01*
X125946426Y-90279853D01*
X126223665Y-90335000D01*
X126506335Y-90335000D01*
X126783574Y-90279853D01*
X127044727Y-90171680D01*
X127279759Y-90014637D01*
X127479637Y-89814759D01*
X127635000Y-89582241D01*
X127790363Y-89814759D01*
X127990241Y-90014637D01*
X128225273Y-90171680D01*
X128486426Y-90279853D01*
X128763665Y-90335000D01*
X129046335Y-90335000D01*
X129323574Y-90279853D01*
X129584727Y-90171680D01*
X129819759Y-90014637D01*
X130019637Y-89814759D01*
X130175000Y-89582241D01*
X130330363Y-89814759D01*
X130530241Y-90014637D01*
X130765273Y-90171680D01*
X131026426Y-90279853D01*
X131303665Y-90335000D01*
X131586335Y-90335000D01*
X131863574Y-90279853D01*
X132124727Y-90171680D01*
X132359759Y-90014637D01*
X132559637Y-89814759D01*
X132715000Y-89582241D01*
X132870363Y-89814759D01*
X133070241Y-90014637D01*
X133305273Y-90171680D01*
X133566426Y-90279853D01*
X133843665Y-90335000D01*
X134126335Y-90335000D01*
X134403574Y-90279853D01*
X134664727Y-90171680D01*
X134899759Y-90014637D01*
X135099637Y-89814759D01*
X135255000Y-89582241D01*
X135410363Y-89814759D01*
X135610241Y-90014637D01*
X135845273Y-90171680D01*
X136106426Y-90279853D01*
X136383665Y-90335000D01*
X136666335Y-90335000D01*
X136943574Y-90279853D01*
X137204727Y-90171680D01*
X137439759Y-90014637D01*
X137639637Y-89814759D01*
X137795000Y-89582241D01*
X137950363Y-89814759D01*
X138150241Y-90014637D01*
X138385273Y-90171680D01*
X138646426Y-90279853D01*
X138923665Y-90335000D01*
X139206335Y-90335000D01*
X139483574Y-90279853D01*
X139744727Y-90171680D01*
X139979759Y-90014637D01*
X140179637Y-89814759D01*
X140336680Y-89579727D01*
X140341067Y-89569135D01*
X140452615Y-89755131D01*
X140641586Y-89963519D01*
X140867580Y-90131037D01*
X141121913Y-90251246D01*
X141255961Y-90291904D01*
X141478000Y-90169915D01*
X141478000Y-89027000D01*
X141732000Y-89027000D01*
X141732000Y-90169915D01*
X141954039Y-90291904D01*
X142088087Y-90251246D01*
X142342420Y-90131037D01*
X142568414Y-89963519D01*
X142757385Y-89755131D01*
X142902070Y-89513881D01*
X142996909Y-89249040D01*
X142875624Y-89027000D01*
X141732000Y-89027000D01*
X141478000Y-89027000D01*
X141458000Y-89027000D01*
X141458000Y-88773000D01*
X141478000Y-88773000D01*
X141478000Y-87630085D01*
X141732000Y-87630085D01*
X141732000Y-88773000D01*
X142875624Y-88773000D01*
X142904974Y-88719268D01*
X153105000Y-88719268D01*
X153105000Y-89080732D01*
X153175518Y-89435250D01*
X153313844Y-89769199D01*
X153514662Y-90069744D01*
X153770256Y-90325338D01*
X154070801Y-90526156D01*
X154404750Y-90664482D01*
X154759268Y-90735000D01*
X155120732Y-90735000D01*
X155475250Y-90664482D01*
X155809199Y-90526156D01*
X156109744Y-90325338D01*
X156365338Y-90069744D01*
X156566156Y-89769199D01*
X156704482Y-89435250D01*
X156775000Y-89080732D01*
X156775000Y-88719268D01*
X165805000Y-88719268D01*
X165805000Y-89080732D01*
X165875518Y-89435250D01*
X166013844Y-89769199D01*
X166214662Y-90069744D01*
X166470256Y-90325338D01*
X166770801Y-90526156D01*
X167104750Y-90664482D01*
X167459268Y-90735000D01*
X167820732Y-90735000D01*
X168175250Y-90664482D01*
X168509199Y-90526156D01*
X168809744Y-90325338D01*
X169065338Y-90069744D01*
X169266156Y-89769199D01*
X169404482Y-89435250D01*
X169475000Y-89080732D01*
X169475000Y-88719268D01*
X169404482Y-88364750D01*
X169266156Y-88030801D01*
X169065338Y-87730256D01*
X168809744Y-87474662D01*
X168509199Y-87273844D01*
X168175250Y-87135518D01*
X167820732Y-87065000D01*
X167459268Y-87065000D01*
X167104750Y-87135518D01*
X166770801Y-87273844D01*
X166470256Y-87474662D01*
X166214662Y-87730256D01*
X166013844Y-88030801D01*
X165875518Y-88364750D01*
X165805000Y-88719268D01*
X156775000Y-88719268D01*
X156704482Y-88364750D01*
X156566156Y-88030801D01*
X156365338Y-87730256D01*
X156109744Y-87474662D01*
X155809199Y-87273844D01*
X155475250Y-87135518D01*
X155120732Y-87065000D01*
X154759268Y-87065000D01*
X154404750Y-87135518D01*
X154070801Y-87273844D01*
X153770256Y-87474662D01*
X153514662Y-87730256D01*
X153313844Y-88030801D01*
X153175518Y-88364750D01*
X153105000Y-88719268D01*
X142904974Y-88719268D01*
X142996909Y-88550960D01*
X142902070Y-88286119D01*
X142757385Y-88044869D01*
X142568414Y-87836481D01*
X142342420Y-87668963D01*
X142088087Y-87548754D01*
X141954039Y-87508096D01*
X141732000Y-87630085D01*
X141478000Y-87630085D01*
X141255961Y-87508096D01*
X141121913Y-87548754D01*
X140867580Y-87668963D01*
X140641586Y-87836481D01*
X140452615Y-88044869D01*
X140341067Y-88230865D01*
X140336680Y-88220273D01*
X140179637Y-87985241D01*
X139979759Y-87785363D01*
X139744727Y-87628320D01*
X139483574Y-87520147D01*
X139206335Y-87465000D01*
X138923665Y-87465000D01*
X138646426Y-87520147D01*
X138385273Y-87628320D01*
X138150241Y-87785363D01*
X137950363Y-87985241D01*
X137795000Y-88217759D01*
X137639637Y-87985241D01*
X137439759Y-87785363D01*
X137204727Y-87628320D01*
X136943574Y-87520147D01*
X136666335Y-87465000D01*
X136383665Y-87465000D01*
X136106426Y-87520147D01*
X135845273Y-87628320D01*
X135610241Y-87785363D01*
X135410363Y-87985241D01*
X135255000Y-88217759D01*
X135099637Y-87985241D01*
X134899759Y-87785363D01*
X134664727Y-87628320D01*
X134403574Y-87520147D01*
X134126335Y-87465000D01*
X133843665Y-87465000D01*
X133566426Y-87520147D01*
X133305273Y-87628320D01*
X133070241Y-87785363D01*
X132870363Y-87985241D01*
X132715000Y-88217759D01*
X132559637Y-87985241D01*
X132359759Y-87785363D01*
X132124727Y-87628320D01*
X131863574Y-87520147D01*
X131586335Y-87465000D01*
X131303665Y-87465000D01*
X131026426Y-87520147D01*
X130765273Y-87628320D01*
X130530241Y-87785363D01*
X130330363Y-87985241D01*
X130175000Y-88217759D01*
X130019637Y-87985241D01*
X129819759Y-87785363D01*
X129584727Y-87628320D01*
X129323574Y-87520147D01*
X129046335Y-87465000D01*
X128763665Y-87465000D01*
X128486426Y-87520147D01*
X128225273Y-87628320D01*
X127990241Y-87785363D01*
X127790363Y-87985241D01*
X127635000Y-88217759D01*
X127479637Y-87985241D01*
X127279759Y-87785363D01*
X127044727Y-87628320D01*
X126783574Y-87520147D01*
X126506335Y-87465000D01*
X126223665Y-87465000D01*
X125946426Y-87520147D01*
X125685273Y-87628320D01*
X125450241Y-87785363D01*
X125250363Y-87985241D01*
X125095000Y-88217759D01*
X124939637Y-87985241D01*
X124739759Y-87785363D01*
X124504727Y-87628320D01*
X124243574Y-87520147D01*
X123966335Y-87465000D01*
X123683665Y-87465000D01*
X123406426Y-87520147D01*
X123145273Y-87628320D01*
X122910241Y-87785363D01*
X122710363Y-87985241D01*
X122555000Y-88217759D01*
X122399637Y-87985241D01*
X122199759Y-87785363D01*
X121964727Y-87628320D01*
X121703574Y-87520147D01*
X121426335Y-87465000D01*
X121143665Y-87465000D01*
X120866426Y-87520147D01*
X120605273Y-87628320D01*
X120370241Y-87785363D01*
X120171643Y-87983961D01*
X120170812Y-87975518D01*
X120134502Y-87855820D01*
X120075537Y-87745506D01*
X119996185Y-87648815D01*
X119899494Y-87569463D01*
X119789180Y-87510498D01*
X119669482Y-87474188D01*
X119545000Y-87461928D01*
X117945000Y-87461928D01*
X117820518Y-87474188D01*
X117700820Y-87510498D01*
X117590506Y-87569463D01*
X117493815Y-87648815D01*
X117414463Y-87745506D01*
X117355498Y-87855820D01*
X117319188Y-87975518D01*
X117306928Y-88100000D01*
X108935611Y-88100000D01*
X109001185Y-88046185D01*
X109080537Y-87949494D01*
X109139502Y-87839180D01*
X109175812Y-87719482D01*
X109188072Y-87595000D01*
X109188072Y-86395000D01*
X109175812Y-86270518D01*
X109139502Y-86150820D01*
X109080537Y-86040506D01*
X109001185Y-85943815D01*
X108904494Y-85864463D01*
X108794180Y-85805498D01*
X108674482Y-85769188D01*
X108550000Y-85756928D01*
X107350000Y-85756928D01*
X107225518Y-85769188D01*
X107105820Y-85805498D01*
X106995506Y-85864463D01*
X106898815Y-85943815D01*
X106819463Y-86040506D01*
X106795142Y-86086006D01*
X106737264Y-86028128D01*
X106620158Y-86145234D01*
X106572852Y-85921652D01*
X106351484Y-85820763D01*
X106114687Y-85765000D01*
X105871562Y-85756505D01*
X105631451Y-85795605D01*
X105403582Y-85880798D01*
X105327148Y-85921652D01*
X105279841Y-86145236D01*
X90195000Y-86145236D01*
X90195000Y-81099268D01*
X111195000Y-81099268D01*
X111195000Y-81460732D01*
X111265518Y-81815250D01*
X111403844Y-82149199D01*
X111604662Y-82449744D01*
X111860256Y-82705338D01*
X112160801Y-82906156D01*
X112494750Y-83044482D01*
X112849268Y-83115000D01*
X113210732Y-83115000D01*
X113565250Y-83044482D01*
X113899199Y-82906156D01*
X114199744Y-82705338D01*
X114455338Y-82449744D01*
X114656156Y-82149199D01*
X114794482Y-81815250D01*
X114865000Y-81460732D01*
X114865000Y-81138665D01*
X117310000Y-81138665D01*
X117310000Y-81421335D01*
X117365147Y-81698574D01*
X117473320Y-81959727D01*
X117630363Y-82194759D01*
X117830241Y-82394637D01*
X118065273Y-82551680D01*
X118326426Y-82659853D01*
X118603665Y-82715000D01*
X118886335Y-82715000D01*
X119163574Y-82659853D01*
X119424727Y-82551680D01*
X119659759Y-82394637D01*
X119859637Y-82194759D01*
X120015000Y-81962241D01*
X120170363Y-82194759D01*
X120370241Y-82394637D01*
X120605273Y-82551680D01*
X120866426Y-82659853D01*
X121143665Y-82715000D01*
X121426335Y-82715000D01*
X121703574Y-82659853D01*
X121964727Y-82551680D01*
X122199759Y-82394637D01*
X122399637Y-82194759D01*
X122555000Y-81962241D01*
X122710363Y-82194759D01*
X122910241Y-82394637D01*
X123145273Y-82551680D01*
X123406426Y-82659853D01*
X123683665Y-82715000D01*
X123966335Y-82715000D01*
X124243574Y-82659853D01*
X124504727Y-82551680D01*
X124739759Y-82394637D01*
X124939637Y-82194759D01*
X125095000Y-81962241D01*
X125250363Y-82194759D01*
X125450241Y-82394637D01*
X125685273Y-82551680D01*
X125946426Y-82659853D01*
X126223665Y-82715000D01*
X126506335Y-82715000D01*
X126783574Y-82659853D01*
X127044727Y-82551680D01*
X127279759Y-82394637D01*
X127479637Y-82194759D01*
X127635000Y-81962241D01*
X127790363Y-82194759D01*
X127990241Y-82394637D01*
X128225273Y-82551680D01*
X128486426Y-82659853D01*
X128763665Y-82715000D01*
X129046335Y-82715000D01*
X129323574Y-82659853D01*
X129584727Y-82551680D01*
X129819759Y-82394637D01*
X130019637Y-82194759D01*
X130175000Y-81962241D01*
X130330363Y-82194759D01*
X130530241Y-82394637D01*
X130765273Y-82551680D01*
X131026426Y-82659853D01*
X131303665Y-82715000D01*
X131586335Y-82715000D01*
X131863574Y-82659853D01*
X132124727Y-82551680D01*
X132359759Y-82394637D01*
X132559637Y-82194759D01*
X132715000Y-81962241D01*
X132870363Y-82194759D01*
X133070241Y-82394637D01*
X133305273Y-82551680D01*
X133566426Y-82659853D01*
X133843665Y-82715000D01*
X134126335Y-82715000D01*
X134403574Y-82659853D01*
X134664727Y-82551680D01*
X134899759Y-82394637D01*
X135099637Y-82194759D01*
X135255000Y-81962241D01*
X135410363Y-82194759D01*
X135610241Y-82394637D01*
X135845273Y-82551680D01*
X136106426Y-82659853D01*
X136383665Y-82715000D01*
X136666335Y-82715000D01*
X136943574Y-82659853D01*
X137204727Y-82551680D01*
X137439759Y-82394637D01*
X137639637Y-82194759D01*
X137795000Y-81962241D01*
X137950363Y-82194759D01*
X138150241Y-82394637D01*
X138385273Y-82551680D01*
X138646426Y-82659853D01*
X138923665Y-82715000D01*
X139206335Y-82715000D01*
X139483574Y-82659853D01*
X139744727Y-82551680D01*
X139979759Y-82394637D01*
X140179637Y-82194759D01*
X140335000Y-81962241D01*
X140490363Y-82194759D01*
X140690241Y-82394637D01*
X140925273Y-82551680D01*
X141186426Y-82659853D01*
X141463665Y-82715000D01*
X141746335Y-82715000D01*
X142023574Y-82659853D01*
X142284727Y-82551680D01*
X142519759Y-82394637D01*
X142719637Y-82194759D01*
X142876680Y-81959727D01*
X142984853Y-81698574D01*
X143040000Y-81421335D01*
X143040000Y-81138665D01*
X142984853Y-80861426D01*
X142876680Y-80600273D01*
X142762908Y-80430000D01*
X146466928Y-80430000D01*
X146466928Y-82130000D01*
X146479188Y-82254482D01*
X146515498Y-82374180D01*
X146574463Y-82484494D01*
X146653815Y-82581185D01*
X146750506Y-82660537D01*
X146860820Y-82719502D01*
X146933380Y-82741513D01*
X146801525Y-82873368D01*
X146639010Y-83116589D01*
X146527068Y-83386842D01*
X146470000Y-83673740D01*
X146470000Y-83966260D01*
X146527068Y-84253158D01*
X146639010Y-84523411D01*
X146801525Y-84766632D01*
X147008368Y-84973475D01*
X147182760Y-85090000D01*
X147008368Y-85206525D01*
X146801525Y-85413368D01*
X146639010Y-85656589D01*
X146527068Y-85926842D01*
X146470000Y-86213740D01*
X146470000Y-86506260D01*
X146527068Y-86793158D01*
X146639010Y-87063411D01*
X146801525Y-87306632D01*
X147008368Y-87513475D01*
X147251589Y-87675990D01*
X147521842Y-87787932D01*
X147808740Y-87845000D01*
X148101260Y-87845000D01*
X148388158Y-87787932D01*
X148658411Y-87675990D01*
X148901632Y-87513475D01*
X149108475Y-87306632D01*
X149226100Y-87130594D01*
X149397412Y-87360269D01*
X149613645Y-87555178D01*
X149863748Y-87704157D01*
X150138109Y-87801481D01*
X150368000Y-87680814D01*
X150368000Y-86487000D01*
X150622000Y-86487000D01*
X150622000Y-87680814D01*
X150851891Y-87801481D01*
X151126252Y-87704157D01*
X151376355Y-87555178D01*
X151592588Y-87360269D01*
X151766641Y-87126920D01*
X151891825Y-86864099D01*
X151936476Y-86716890D01*
X151815155Y-86487000D01*
X150622000Y-86487000D01*
X150368000Y-86487000D01*
X150348000Y-86487000D01*
X150348000Y-86233000D01*
X150368000Y-86233000D01*
X150368000Y-86213000D01*
X150622000Y-86213000D01*
X150622000Y-86233000D01*
X151815155Y-86233000D01*
X151936476Y-86003110D01*
X151891825Y-85855901D01*
X151766641Y-85593080D01*
X151592588Y-85359731D01*
X151376355Y-85164822D01*
X151259466Y-85095195D01*
X151441632Y-84973475D01*
X151648475Y-84766632D01*
X151810990Y-84523411D01*
X151922932Y-84253158D01*
X151980000Y-83966260D01*
X151980000Y-83673740D01*
X151922932Y-83386842D01*
X151810990Y-83116589D01*
X151648475Y-82873368D01*
X151441632Y-82666525D01*
X151267240Y-82550000D01*
X151441632Y-82433475D01*
X151505839Y-82369268D01*
X153105000Y-82369268D01*
X153105000Y-82730732D01*
X153175518Y-83085250D01*
X153313844Y-83419199D01*
X153514662Y-83719744D01*
X153770256Y-83975338D01*
X154070801Y-84176156D01*
X154404750Y-84314482D01*
X154759268Y-84385000D01*
X155120732Y-84385000D01*
X155475250Y-84314482D01*
X155809199Y-84176156D01*
X156109744Y-83975338D01*
X156365338Y-83719744D01*
X156566156Y-83419199D01*
X156704482Y-83085250D01*
X156775000Y-82730732D01*
X156775000Y-82369268D01*
X165805000Y-82369268D01*
X165805000Y-82730732D01*
X165875518Y-83085250D01*
X166013844Y-83419199D01*
X166214662Y-83719744D01*
X166470256Y-83975338D01*
X166770801Y-84176156D01*
X167104750Y-84314482D01*
X167459268Y-84385000D01*
X167820732Y-84385000D01*
X168175250Y-84314482D01*
X168509199Y-84176156D01*
X168809744Y-83975338D01*
X169065338Y-83719744D01*
X169266156Y-83419199D01*
X169404482Y-83085250D01*
X169475000Y-82730732D01*
X169475000Y-82369268D01*
X169404482Y-82014750D01*
X169266156Y-81680801D01*
X169065338Y-81380256D01*
X168809744Y-81124662D01*
X168509199Y-80923844D01*
X168175250Y-80785518D01*
X167820732Y-80715000D01*
X167459268Y-80715000D01*
X167104750Y-80785518D01*
X166770801Y-80923844D01*
X166470256Y-81124662D01*
X166214662Y-81380256D01*
X166013844Y-81680801D01*
X165875518Y-82014750D01*
X165805000Y-82369268D01*
X156775000Y-82369268D01*
X156704482Y-82014750D01*
X156566156Y-81680801D01*
X156365338Y-81380256D01*
X156109744Y-81124662D01*
X155809199Y-80923844D01*
X155475250Y-80785518D01*
X155120732Y-80715000D01*
X154759268Y-80715000D01*
X154404750Y-80785518D01*
X154070801Y-80923844D01*
X153770256Y-81124662D01*
X153514662Y-81380256D01*
X153313844Y-81680801D01*
X153175518Y-82014750D01*
X153105000Y-82369268D01*
X151505839Y-82369268D01*
X151648475Y-82226632D01*
X151810990Y-81983411D01*
X151922932Y-81713158D01*
X151980000Y-81426260D01*
X151980000Y-81133740D01*
X151922932Y-80846842D01*
X151810990Y-80576589D01*
X151648475Y-80333368D01*
X151441632Y-80126525D01*
X151198411Y-79964010D01*
X150928158Y-79852068D01*
X150641260Y-79795000D01*
X150348740Y-79795000D01*
X150061842Y-79852068D01*
X149791589Y-79964010D01*
X149548368Y-80126525D01*
X149416513Y-80258380D01*
X149394502Y-80185820D01*
X149335537Y-80075506D01*
X149256185Y-79978815D01*
X149159494Y-79899463D01*
X149049180Y-79840498D01*
X148929482Y-79804188D01*
X148805000Y-79791928D01*
X147105000Y-79791928D01*
X146980518Y-79804188D01*
X146860820Y-79840498D01*
X146750506Y-79899463D01*
X146653815Y-79978815D01*
X146574463Y-80075506D01*
X146515498Y-80185820D01*
X146479188Y-80305518D01*
X146466928Y-80430000D01*
X142762908Y-80430000D01*
X142719637Y-80365241D01*
X142519759Y-80165363D01*
X142284727Y-80008320D01*
X142023574Y-79900147D01*
X141746335Y-79845000D01*
X141463665Y-79845000D01*
X141186426Y-79900147D01*
X140925273Y-80008320D01*
X140690241Y-80165363D01*
X140490363Y-80365241D01*
X140335000Y-80597759D01*
X140179637Y-80365241D01*
X139979759Y-80165363D01*
X139744727Y-80008320D01*
X139483574Y-79900147D01*
X139206335Y-79845000D01*
X138923665Y-79845000D01*
X138646426Y-79900147D01*
X138385273Y-80008320D01*
X138150241Y-80165363D01*
X137950363Y-80365241D01*
X137795000Y-80597759D01*
X137639637Y-80365241D01*
X137439759Y-80165363D01*
X137204727Y-80008320D01*
X136943574Y-79900147D01*
X136666335Y-79845000D01*
X136383665Y-79845000D01*
X136106426Y-79900147D01*
X135845273Y-80008320D01*
X135610241Y-80165363D01*
X135410363Y-80365241D01*
X135255000Y-80597759D01*
X135099637Y-80365241D01*
X134899759Y-80165363D01*
X134664727Y-80008320D01*
X134403574Y-79900147D01*
X134126335Y-79845000D01*
X133843665Y-79845000D01*
X133566426Y-79900147D01*
X133305273Y-80008320D01*
X133070241Y-80165363D01*
X132870363Y-80365241D01*
X132715000Y-80597759D01*
X132559637Y-80365241D01*
X132359759Y-80165363D01*
X132124727Y-80008320D01*
X131863574Y-79900147D01*
X131586335Y-79845000D01*
X131303665Y-79845000D01*
X131026426Y-79900147D01*
X130765273Y-80008320D01*
X130530241Y-80165363D01*
X130330363Y-80365241D01*
X130175000Y-80597759D01*
X130019637Y-80365241D01*
X129819759Y-80165363D01*
X129584727Y-80008320D01*
X129323574Y-79900147D01*
X129046335Y-79845000D01*
X128763665Y-79845000D01*
X128486426Y-79900147D01*
X128225273Y-80008320D01*
X127990241Y-80165363D01*
X127790363Y-80365241D01*
X127635000Y-80597759D01*
X127479637Y-80365241D01*
X127279759Y-80165363D01*
X127044727Y-80008320D01*
X126783574Y-79900147D01*
X126506335Y-79845000D01*
X126223665Y-79845000D01*
X125946426Y-79900147D01*
X125685273Y-80008320D01*
X125450241Y-80165363D01*
X125250363Y-80365241D01*
X125095000Y-80597759D01*
X124939637Y-80365241D01*
X124739759Y-80165363D01*
X124504727Y-80008320D01*
X124243574Y-79900147D01*
X123966335Y-79845000D01*
X123683665Y-79845000D01*
X123406426Y-79900147D01*
X123145273Y-80008320D01*
X122910241Y-80165363D01*
X122710363Y-80365241D01*
X122555000Y-80597759D01*
X122399637Y-80365241D01*
X122199759Y-80165363D01*
X121964727Y-80008320D01*
X121703574Y-79900147D01*
X121426335Y-79845000D01*
X121143665Y-79845000D01*
X120866426Y-79900147D01*
X120605273Y-80008320D01*
X120370241Y-80165363D01*
X120170363Y-80365241D01*
X120015000Y-80597759D01*
X119859637Y-80365241D01*
X119659759Y-80165363D01*
X119424727Y-80008320D01*
X119163574Y-79900147D01*
X118886335Y-79845000D01*
X118603665Y-79845000D01*
X118326426Y-79900147D01*
X118065273Y-80008320D01*
X117830241Y-80165363D01*
X117630363Y-80365241D01*
X117473320Y-80600273D01*
X117365147Y-80861426D01*
X117310000Y-81138665D01*
X114865000Y-81138665D01*
X114865000Y-81099268D01*
X114794482Y-80744750D01*
X114656156Y-80410801D01*
X114455338Y-80110256D01*
X114199744Y-79854662D01*
X113899199Y-79653844D01*
X113565250Y-79515518D01*
X113210732Y-79445000D01*
X112849268Y-79445000D01*
X112494750Y-79515518D01*
X112160801Y-79653844D01*
X111860256Y-79854662D01*
X111604662Y-80110256D01*
X111403844Y-80410801D01*
X111265518Y-80744750D01*
X111195000Y-81099268D01*
X90195000Y-81099268D01*
X90195000Y-76014344D01*
X119845000Y-76014344D01*
X119845000Y-76385656D01*
X119917439Y-76749834D01*
X120059534Y-77092882D01*
X120265825Y-77401618D01*
X120528382Y-77664175D01*
X120837118Y-77870466D01*
X121180166Y-78012561D01*
X121544344Y-78085000D01*
X121915656Y-78085000D01*
X122279834Y-78012561D01*
X122622882Y-77870466D01*
X122931618Y-77664175D01*
X123194175Y-77401618D01*
X123400466Y-77092882D01*
X123542561Y-76749834D01*
X123615000Y-76385656D01*
X123615000Y-76014344D01*
X123805000Y-76014344D01*
X123805000Y-76385656D01*
X123877439Y-76749834D01*
X124019534Y-77092882D01*
X124225825Y-77401618D01*
X124488382Y-77664175D01*
X124797118Y-77870466D01*
X125140166Y-78012561D01*
X125504344Y-78085000D01*
X125875656Y-78085000D01*
X126239834Y-78012561D01*
X126582882Y-77870466D01*
X126891618Y-77664175D01*
X127154175Y-77401618D01*
X127360466Y-77092882D01*
X127502561Y-76749834D01*
X127575000Y-76385656D01*
X127575000Y-76014344D01*
X127765000Y-76014344D01*
X127765000Y-76385656D01*
X127837439Y-76749834D01*
X127979534Y-77092882D01*
X128185825Y-77401618D01*
X128448382Y-77664175D01*
X128757118Y-77870466D01*
X129100166Y-78012561D01*
X129464344Y-78085000D01*
X129835656Y-78085000D01*
X130199834Y-78012561D01*
X130542882Y-77870466D01*
X130851618Y-77664175D01*
X131114175Y-77401618D01*
X131320466Y-77092882D01*
X131462561Y-76749834D01*
X131535000Y-76385656D01*
X131535000Y-76014344D01*
X131725000Y-76014344D01*
X131725000Y-76385656D01*
X131797439Y-76749834D01*
X131939534Y-77092882D01*
X132145825Y-77401618D01*
X132408382Y-77664175D01*
X132717118Y-77870466D01*
X133060166Y-78012561D01*
X133424344Y-78085000D01*
X133795656Y-78085000D01*
X134159834Y-78012561D01*
X134502882Y-77870466D01*
X134811618Y-77664175D01*
X135074175Y-77401618D01*
X135280466Y-77092882D01*
X135422561Y-76749834D01*
X135495000Y-76385656D01*
X135495000Y-76014344D01*
X135685000Y-76014344D01*
X135685000Y-76385656D01*
X135757439Y-76749834D01*
X135899534Y-77092882D01*
X136105825Y-77401618D01*
X136368382Y-77664175D01*
X136677118Y-77870466D01*
X137020166Y-78012561D01*
X137384344Y-78085000D01*
X137755656Y-78085000D01*
X138119834Y-78012561D01*
X138462882Y-77870466D01*
X138771618Y-77664175D01*
X139034175Y-77401618D01*
X139240466Y-77092882D01*
X139382561Y-76749834D01*
X139455000Y-76385656D01*
X139455000Y-76014344D01*
X139645000Y-76014344D01*
X139645000Y-76385656D01*
X139717439Y-76749834D01*
X139859534Y-77092882D01*
X140065825Y-77401618D01*
X140328382Y-77664175D01*
X140637118Y-77870466D01*
X140980166Y-78012561D01*
X141344344Y-78085000D01*
X141715656Y-78085000D01*
X142079834Y-78012561D01*
X142422882Y-77870466D01*
X142731618Y-77664175D01*
X142994175Y-77401618D01*
X143200466Y-77092882D01*
X143342561Y-76749834D01*
X143415000Y-76385656D01*
X143415000Y-76014344D01*
X143605000Y-76014344D01*
X143605000Y-76385656D01*
X143677439Y-76749834D01*
X143819534Y-77092882D01*
X144025825Y-77401618D01*
X144288382Y-77664175D01*
X144597118Y-77870466D01*
X144940166Y-78012561D01*
X145304344Y-78085000D01*
X145675656Y-78085000D01*
X146039834Y-78012561D01*
X146382882Y-77870466D01*
X146691618Y-77664175D01*
X146954175Y-77401618D01*
X147160466Y-77092882D01*
X147302561Y-76749834D01*
X147375000Y-76385656D01*
X147375000Y-76014344D01*
X147565000Y-76014344D01*
X147565000Y-76385656D01*
X147637439Y-76749834D01*
X147779534Y-77092882D01*
X147985825Y-77401618D01*
X148248382Y-77664175D01*
X148557118Y-77870466D01*
X148900166Y-78012561D01*
X149264344Y-78085000D01*
X149635656Y-78085000D01*
X149999834Y-78012561D01*
X150342882Y-77870466D01*
X150651618Y-77664175D01*
X150914175Y-77401618D01*
X151120466Y-77092882D01*
X151262561Y-76749834D01*
X151335000Y-76385656D01*
X151335000Y-76014344D01*
X151525000Y-76014344D01*
X151525000Y-76385656D01*
X151597439Y-76749834D01*
X151739534Y-77092882D01*
X151945825Y-77401618D01*
X152208382Y-77664175D01*
X152517118Y-77870466D01*
X152860166Y-78012561D01*
X153224344Y-78085000D01*
X153595656Y-78085000D01*
X153959834Y-78012561D01*
X154302882Y-77870466D01*
X154611618Y-77664175D01*
X154874175Y-77401618D01*
X155080466Y-77092882D01*
X155222561Y-76749834D01*
X155295000Y-76385656D01*
X155295000Y-76014344D01*
X155485000Y-76014344D01*
X155485000Y-76385656D01*
X155557439Y-76749834D01*
X155699534Y-77092882D01*
X155905825Y-77401618D01*
X156168382Y-77664175D01*
X156477118Y-77870466D01*
X156820166Y-78012561D01*
X157184344Y-78085000D01*
X157555656Y-78085000D01*
X157919834Y-78012561D01*
X158262882Y-77870466D01*
X158571618Y-77664175D01*
X158722188Y-77513605D01*
X160196000Y-77513605D01*
X160321914Y-77803577D01*
X160654126Y-77969433D01*
X161012312Y-78067290D01*
X161382706Y-78093389D01*
X161751075Y-78046725D01*
X162103262Y-77929094D01*
X162338086Y-77803577D01*
X162464000Y-77513605D01*
X161330000Y-76379605D01*
X160196000Y-77513605D01*
X158722188Y-77513605D01*
X158834175Y-77401618D01*
X159040466Y-77092882D01*
X159182561Y-76749834D01*
X159255000Y-76385656D01*
X159255000Y-76252706D01*
X159436611Y-76252706D01*
X159483275Y-76621075D01*
X159600906Y-76973262D01*
X159726423Y-77208086D01*
X160016395Y-77334000D01*
X161150395Y-76200000D01*
X161509605Y-76200000D01*
X162643605Y-77334000D01*
X162933577Y-77208086D01*
X163099433Y-76875874D01*
X163197290Y-76517688D01*
X163223389Y-76147294D01*
X163206548Y-76014344D01*
X163405000Y-76014344D01*
X163405000Y-76385656D01*
X163477439Y-76749834D01*
X163619534Y-77092882D01*
X163825825Y-77401618D01*
X164088382Y-77664175D01*
X164397118Y-77870466D01*
X164740166Y-78012561D01*
X165104344Y-78085000D01*
X165475656Y-78085000D01*
X165839834Y-78012561D01*
X166182882Y-77870466D01*
X166491618Y-77664175D01*
X166754175Y-77401618D01*
X166960466Y-77092882D01*
X167102561Y-76749834D01*
X167175000Y-76385656D01*
X167175000Y-76014344D01*
X167102561Y-75650166D01*
X166960466Y-75307118D01*
X166754175Y-74998382D01*
X166491618Y-74735825D01*
X166182882Y-74529534D01*
X165839834Y-74387439D01*
X165475656Y-74315000D01*
X165104344Y-74315000D01*
X164740166Y-74387439D01*
X164397118Y-74529534D01*
X164088382Y-74735825D01*
X163825825Y-74998382D01*
X163619534Y-75307118D01*
X163477439Y-75650166D01*
X163405000Y-76014344D01*
X163206548Y-76014344D01*
X163176725Y-75778925D01*
X163059094Y-75426738D01*
X162933577Y-75191914D01*
X162643605Y-75066000D01*
X161509605Y-76200000D01*
X161150395Y-76200000D01*
X160016395Y-75066000D01*
X159726423Y-75191914D01*
X159560567Y-75524126D01*
X159462710Y-75882312D01*
X159436611Y-76252706D01*
X159255000Y-76252706D01*
X159255000Y-76014344D01*
X159182561Y-75650166D01*
X159040466Y-75307118D01*
X158834175Y-74998382D01*
X158722188Y-74886395D01*
X160196000Y-74886395D01*
X161330000Y-76020395D01*
X162464000Y-74886395D01*
X162338086Y-74596423D01*
X162005874Y-74430567D01*
X161647688Y-74332710D01*
X161277294Y-74306611D01*
X160908925Y-74353275D01*
X160556738Y-74470906D01*
X160321914Y-74596423D01*
X160196000Y-74886395D01*
X158722188Y-74886395D01*
X158571618Y-74735825D01*
X158262882Y-74529534D01*
X157919834Y-74387439D01*
X157555656Y-74315000D01*
X157184344Y-74315000D01*
X156820166Y-74387439D01*
X156477118Y-74529534D01*
X156168382Y-74735825D01*
X155905825Y-74998382D01*
X155699534Y-75307118D01*
X155557439Y-75650166D01*
X155485000Y-76014344D01*
X155295000Y-76014344D01*
X155222561Y-75650166D01*
X155080466Y-75307118D01*
X154874175Y-74998382D01*
X154611618Y-74735825D01*
X154302882Y-74529534D01*
X153959834Y-74387439D01*
X153595656Y-74315000D01*
X153224344Y-74315000D01*
X152860166Y-74387439D01*
X152517118Y-74529534D01*
X152208382Y-74735825D01*
X151945825Y-74998382D01*
X151739534Y-75307118D01*
X151597439Y-75650166D01*
X151525000Y-76014344D01*
X151335000Y-76014344D01*
X151262561Y-75650166D01*
X151120466Y-75307118D01*
X150914175Y-74998382D01*
X150651618Y-74735825D01*
X150342882Y-74529534D01*
X149999834Y-74387439D01*
X149635656Y-74315000D01*
X149264344Y-74315000D01*
X148900166Y-74387439D01*
X148557118Y-74529534D01*
X148248382Y-74735825D01*
X147985825Y-74998382D01*
X147779534Y-75307118D01*
X147637439Y-75650166D01*
X147565000Y-76014344D01*
X147375000Y-76014344D01*
X147302561Y-75650166D01*
X147160466Y-75307118D01*
X146954175Y-74998382D01*
X146691618Y-74735825D01*
X146382882Y-74529534D01*
X146039834Y-74387439D01*
X145675656Y-74315000D01*
X145304344Y-74315000D01*
X144940166Y-74387439D01*
X144597118Y-74529534D01*
X144288382Y-74735825D01*
X144025825Y-74998382D01*
X143819534Y-75307118D01*
X143677439Y-75650166D01*
X143605000Y-76014344D01*
X143415000Y-76014344D01*
X143342561Y-75650166D01*
X143200466Y-75307118D01*
X142994175Y-74998382D01*
X142731618Y-74735825D01*
X142422882Y-74529534D01*
X142079834Y-74387439D01*
X141715656Y-74315000D01*
X141344344Y-74315000D01*
X140980166Y-74387439D01*
X140637118Y-74529534D01*
X140328382Y-74735825D01*
X140065825Y-74998382D01*
X139859534Y-75307118D01*
X139717439Y-75650166D01*
X139645000Y-76014344D01*
X139455000Y-76014344D01*
X139382561Y-75650166D01*
X139240466Y-75307118D01*
X139034175Y-74998382D01*
X138771618Y-74735825D01*
X138462882Y-74529534D01*
X138119834Y-74387439D01*
X137755656Y-74315000D01*
X137384344Y-74315000D01*
X137020166Y-74387439D01*
X136677118Y-74529534D01*
X136368382Y-74735825D01*
X136105825Y-74998382D01*
X135899534Y-75307118D01*
X135757439Y-75650166D01*
X135685000Y-76014344D01*
X135495000Y-76014344D01*
X135422561Y-75650166D01*
X135280466Y-75307118D01*
X135074175Y-74998382D01*
X134811618Y-74735825D01*
X134502882Y-74529534D01*
X134159834Y-74387439D01*
X133795656Y-74315000D01*
X133424344Y-74315000D01*
X133060166Y-74387439D01*
X132717118Y-74529534D01*
X132408382Y-74735825D01*
X132145825Y-74998382D01*
X131939534Y-75307118D01*
X131797439Y-75650166D01*
X131725000Y-76014344D01*
X131535000Y-76014344D01*
X131462561Y-75650166D01*
X131320466Y-75307118D01*
X131114175Y-74998382D01*
X130851618Y-74735825D01*
X130542882Y-74529534D01*
X130199834Y-74387439D01*
X129835656Y-74315000D01*
X129464344Y-74315000D01*
X129100166Y-74387439D01*
X128757118Y-74529534D01*
X128448382Y-74735825D01*
X128185825Y-74998382D01*
X127979534Y-75307118D01*
X127837439Y-75650166D01*
X127765000Y-76014344D01*
X127575000Y-76014344D01*
X127502561Y-75650166D01*
X127360466Y-75307118D01*
X127154175Y-74998382D01*
X126891618Y-74735825D01*
X126582882Y-74529534D01*
X126239834Y-74387439D01*
X125875656Y-74315000D01*
X125504344Y-74315000D01*
X125140166Y-74387439D01*
X124797118Y-74529534D01*
X124488382Y-74735825D01*
X124225825Y-74998382D01*
X124019534Y-75307118D01*
X123877439Y-75650166D01*
X123805000Y-76014344D01*
X123615000Y-76014344D01*
X123542561Y-75650166D01*
X123400466Y-75307118D01*
X123194175Y-74998382D01*
X122931618Y-74735825D01*
X122622882Y-74529534D01*
X122279834Y-74387439D01*
X121915656Y-74315000D01*
X121544344Y-74315000D01*
X121180166Y-74387439D01*
X120837118Y-74529534D01*
X120528382Y-74735825D01*
X120265825Y-74998382D01*
X120059534Y-75307118D01*
X119917439Y-75650166D01*
X119845000Y-76014344D01*
X90195000Y-76014344D01*
X90195000Y-72555612D01*
X90295820Y-72609502D01*
X90415518Y-72645812D01*
X90540000Y-72658072D01*
X91154250Y-72655000D01*
X91313000Y-72496250D01*
X91313000Y-71247000D01*
X91293000Y-71247000D01*
X91293000Y-70993000D01*
X91313000Y-70993000D01*
X91313000Y-69743750D01*
X91567000Y-69743750D01*
X91567000Y-70993000D01*
X91587000Y-70993000D01*
X91587000Y-71247000D01*
X91567000Y-71247000D01*
X91567000Y-72496250D01*
X91725750Y-72655000D01*
X92340000Y-72658072D01*
X92464482Y-72645812D01*
X92584180Y-72609502D01*
X92694494Y-72550537D01*
X92791185Y-72471185D01*
X92870537Y-72374494D01*
X92929502Y-72264180D01*
X92935056Y-72245873D01*
X93001495Y-72312312D01*
X93252905Y-72480299D01*
X93532257Y-72596011D01*
X93828816Y-72655000D01*
X94131184Y-72655000D01*
X94427743Y-72596011D01*
X94707095Y-72480299D01*
X94958505Y-72312312D01*
X95172312Y-72098505D01*
X95224767Y-72020000D01*
X96251928Y-72020000D01*
X96264188Y-72144482D01*
X96300498Y-72264180D01*
X96359463Y-72374494D01*
X96438815Y-72471185D01*
X96535506Y-72550537D01*
X96645820Y-72609502D01*
X96765518Y-72645812D01*
X96890000Y-72658072D01*
X97504250Y-72655000D01*
X97663000Y-72496250D01*
X97663000Y-71247000D01*
X96413750Y-71247000D01*
X96255000Y-71405750D01*
X96251928Y-72020000D01*
X95224767Y-72020000D01*
X95340299Y-71847095D01*
X95456011Y-71567743D01*
X95515000Y-71271184D01*
X95515000Y-70968816D01*
X95456011Y-70672257D01*
X95340299Y-70392905D01*
X95224768Y-70220000D01*
X96251928Y-70220000D01*
X96255000Y-70834250D01*
X96413750Y-70993000D01*
X97663000Y-70993000D01*
X97663000Y-69743750D01*
X97917000Y-69743750D01*
X97917000Y-70993000D01*
X97937000Y-70993000D01*
X97937000Y-71247000D01*
X97917000Y-71247000D01*
X97917000Y-72496250D01*
X98075750Y-72655000D01*
X98690000Y-72658072D01*
X98814482Y-72645812D01*
X98934180Y-72609502D01*
X99044494Y-72550537D01*
X99141185Y-72471185D01*
X99220537Y-72374494D01*
X99279502Y-72264180D01*
X99285056Y-72245873D01*
X99351495Y-72312312D01*
X99602905Y-72480299D01*
X99882257Y-72596011D01*
X100178816Y-72655000D01*
X100481184Y-72655000D01*
X100777743Y-72596011D01*
X101057095Y-72480299D01*
X101308505Y-72312312D01*
X101522312Y-72098505D01*
X101574767Y-72020000D01*
X102601928Y-72020000D01*
X102614188Y-72144482D01*
X102650498Y-72264180D01*
X102709463Y-72374494D01*
X102788815Y-72471185D01*
X102885506Y-72550537D01*
X102995820Y-72609502D01*
X103115518Y-72645812D01*
X103240000Y-72658072D01*
X103854250Y-72655000D01*
X104013000Y-72496250D01*
X104013000Y-71247000D01*
X102763750Y-71247000D01*
X102605000Y-71405750D01*
X102601928Y-72020000D01*
X101574767Y-72020000D01*
X101690299Y-71847095D01*
X101806011Y-71567743D01*
X101865000Y-71271184D01*
X101865000Y-70968816D01*
X101806011Y-70672257D01*
X101690299Y-70392905D01*
X101574768Y-70220000D01*
X102601928Y-70220000D01*
X102605000Y-70834250D01*
X102763750Y-70993000D01*
X104013000Y-70993000D01*
X104013000Y-69743750D01*
X104267000Y-69743750D01*
X104267000Y-70993000D01*
X104287000Y-70993000D01*
X104287000Y-71247000D01*
X104267000Y-71247000D01*
X104267000Y-72496250D01*
X104425750Y-72655000D01*
X105040000Y-72658072D01*
X105164482Y-72645812D01*
X105284180Y-72609502D01*
X105394494Y-72550537D01*
X105491185Y-72471185D01*
X105570537Y-72374494D01*
X105629502Y-72264180D01*
X105635056Y-72245873D01*
X105701495Y-72312312D01*
X105952905Y-72480299D01*
X106232257Y-72596011D01*
X106528816Y-72655000D01*
X106831184Y-72655000D01*
X107127743Y-72596011D01*
X107407095Y-72480299D01*
X107658505Y-72312312D01*
X107872312Y-72098505D01*
X108040299Y-71847095D01*
X108156011Y-71567743D01*
X108215000Y-71271184D01*
X108215000Y-70968816D01*
X108208144Y-70934344D01*
X119845000Y-70934344D01*
X119845000Y-71305656D01*
X119917439Y-71669834D01*
X120059534Y-72012882D01*
X120265825Y-72321618D01*
X120528382Y-72584175D01*
X120837118Y-72790466D01*
X121180166Y-72932561D01*
X121544344Y-73005000D01*
X121915656Y-73005000D01*
X122279834Y-72932561D01*
X122622882Y-72790466D01*
X122931618Y-72584175D01*
X123194175Y-72321618D01*
X123400466Y-72012882D01*
X123542561Y-71669834D01*
X123615000Y-71305656D01*
X123615000Y-70934344D01*
X123805000Y-70934344D01*
X123805000Y-71305656D01*
X123877439Y-71669834D01*
X124019534Y-72012882D01*
X124225825Y-72321618D01*
X124488382Y-72584175D01*
X124797118Y-72790466D01*
X125140166Y-72932561D01*
X125504344Y-73005000D01*
X125875656Y-73005000D01*
X126239834Y-72932561D01*
X126582882Y-72790466D01*
X126891618Y-72584175D01*
X127154175Y-72321618D01*
X127360466Y-72012882D01*
X127502561Y-71669834D01*
X127575000Y-71305656D01*
X127575000Y-70934344D01*
X127765000Y-70934344D01*
X127765000Y-71305656D01*
X127837439Y-71669834D01*
X127979534Y-72012882D01*
X128185825Y-72321618D01*
X128448382Y-72584175D01*
X128757118Y-72790466D01*
X129100166Y-72932561D01*
X129464344Y-73005000D01*
X129835656Y-73005000D01*
X130199834Y-72932561D01*
X130542882Y-72790466D01*
X130851618Y-72584175D01*
X131114175Y-72321618D01*
X131320466Y-72012882D01*
X131462561Y-71669834D01*
X131535000Y-71305656D01*
X131535000Y-70934344D01*
X131725000Y-70934344D01*
X131725000Y-71305656D01*
X131797439Y-71669834D01*
X131939534Y-72012882D01*
X132145825Y-72321618D01*
X132408382Y-72584175D01*
X132717118Y-72790466D01*
X133060166Y-72932561D01*
X133424344Y-73005000D01*
X133795656Y-73005000D01*
X134159834Y-72932561D01*
X134502882Y-72790466D01*
X134811618Y-72584175D01*
X135074175Y-72321618D01*
X135280466Y-72012882D01*
X135422561Y-71669834D01*
X135495000Y-71305656D01*
X135495000Y-70934344D01*
X135685000Y-70934344D01*
X135685000Y-71305656D01*
X135757439Y-71669834D01*
X135899534Y-72012882D01*
X136105825Y-72321618D01*
X136368382Y-72584175D01*
X136677118Y-72790466D01*
X137020166Y-72932561D01*
X137384344Y-73005000D01*
X137755656Y-73005000D01*
X138119834Y-72932561D01*
X138462882Y-72790466D01*
X138771618Y-72584175D01*
X139034175Y-72321618D01*
X139240466Y-72012882D01*
X139382561Y-71669834D01*
X139455000Y-71305656D01*
X139455000Y-70934344D01*
X139645000Y-70934344D01*
X139645000Y-71305656D01*
X139717439Y-71669834D01*
X139859534Y-72012882D01*
X140065825Y-72321618D01*
X140328382Y-72584175D01*
X140637118Y-72790466D01*
X140980166Y-72932561D01*
X141344344Y-73005000D01*
X141715656Y-73005000D01*
X142079834Y-72932561D01*
X142422882Y-72790466D01*
X142731618Y-72584175D01*
X142994175Y-72321618D01*
X143200466Y-72012882D01*
X143342561Y-71669834D01*
X143415000Y-71305656D01*
X143415000Y-70934344D01*
X143605000Y-70934344D01*
X143605000Y-71305656D01*
X143677439Y-71669834D01*
X143819534Y-72012882D01*
X144025825Y-72321618D01*
X144288382Y-72584175D01*
X144597118Y-72790466D01*
X144940166Y-72932561D01*
X145304344Y-73005000D01*
X145675656Y-73005000D01*
X146039834Y-72932561D01*
X146382882Y-72790466D01*
X146691618Y-72584175D01*
X146954175Y-72321618D01*
X147160466Y-72012882D01*
X147302561Y-71669834D01*
X147375000Y-71305656D01*
X147375000Y-70934344D01*
X147565000Y-70934344D01*
X147565000Y-71305656D01*
X147637439Y-71669834D01*
X147779534Y-72012882D01*
X147985825Y-72321618D01*
X148248382Y-72584175D01*
X148557118Y-72790466D01*
X148900166Y-72932561D01*
X149264344Y-73005000D01*
X149635656Y-73005000D01*
X149999834Y-72932561D01*
X150342882Y-72790466D01*
X150651618Y-72584175D01*
X150914175Y-72321618D01*
X151120466Y-72012882D01*
X151262561Y-71669834D01*
X151335000Y-71305656D01*
X151335000Y-70934344D01*
X151525000Y-70934344D01*
X151525000Y-71305656D01*
X151597439Y-71669834D01*
X151739534Y-72012882D01*
X151945825Y-72321618D01*
X152208382Y-72584175D01*
X152517118Y-72790466D01*
X152860166Y-72932561D01*
X153224344Y-73005000D01*
X153595656Y-73005000D01*
X153959834Y-72932561D01*
X154302882Y-72790466D01*
X154611618Y-72584175D01*
X154874175Y-72321618D01*
X155080466Y-72012882D01*
X155222561Y-71669834D01*
X155295000Y-71305656D01*
X155295000Y-70934344D01*
X155485000Y-70934344D01*
X155485000Y-71305656D01*
X155557439Y-71669834D01*
X155699534Y-72012882D01*
X155905825Y-72321618D01*
X156168382Y-72584175D01*
X156477118Y-72790466D01*
X156820166Y-72932561D01*
X157184344Y-73005000D01*
X157555656Y-73005000D01*
X157919834Y-72932561D01*
X158262882Y-72790466D01*
X158571618Y-72584175D01*
X158722188Y-72433605D01*
X160196000Y-72433605D01*
X160321914Y-72723577D01*
X160654126Y-72889433D01*
X161012312Y-72987290D01*
X161382706Y-73013389D01*
X161751075Y-72966725D01*
X162103262Y-72849094D01*
X162338086Y-72723577D01*
X162464000Y-72433605D01*
X161330000Y-71299605D01*
X160196000Y-72433605D01*
X158722188Y-72433605D01*
X158834175Y-72321618D01*
X159040466Y-72012882D01*
X159182561Y-71669834D01*
X159255000Y-71305656D01*
X159255000Y-71172706D01*
X159436611Y-71172706D01*
X159483275Y-71541075D01*
X159600906Y-71893262D01*
X159726423Y-72128086D01*
X160016395Y-72254000D01*
X161150395Y-71120000D01*
X161509605Y-71120000D01*
X162643605Y-72254000D01*
X162933577Y-72128086D01*
X163099433Y-71795874D01*
X163197290Y-71437688D01*
X163223389Y-71067294D01*
X163206548Y-70934344D01*
X163405000Y-70934344D01*
X163405000Y-71305656D01*
X163477439Y-71669834D01*
X163619534Y-72012882D01*
X163825825Y-72321618D01*
X164088382Y-72584175D01*
X164397118Y-72790466D01*
X164740166Y-72932561D01*
X165104344Y-73005000D01*
X165475656Y-73005000D01*
X165839834Y-72932561D01*
X166182882Y-72790466D01*
X166491618Y-72584175D01*
X166754175Y-72321618D01*
X166960466Y-72012882D01*
X167102561Y-71669834D01*
X167175000Y-71305656D01*
X167175000Y-70934344D01*
X167102561Y-70570166D01*
X166960466Y-70227118D01*
X166754175Y-69918382D01*
X166491618Y-69655825D01*
X166182882Y-69449534D01*
X165839834Y-69307439D01*
X165475656Y-69235000D01*
X165104344Y-69235000D01*
X164740166Y-69307439D01*
X164397118Y-69449534D01*
X164088382Y-69655825D01*
X163825825Y-69918382D01*
X163619534Y-70227118D01*
X163477439Y-70570166D01*
X163405000Y-70934344D01*
X163206548Y-70934344D01*
X163176725Y-70698925D01*
X163059094Y-70346738D01*
X162933577Y-70111914D01*
X162643605Y-69986000D01*
X161509605Y-71120000D01*
X161150395Y-71120000D01*
X160016395Y-69986000D01*
X159726423Y-70111914D01*
X159560567Y-70444126D01*
X159462710Y-70802312D01*
X159436611Y-71172706D01*
X159255000Y-71172706D01*
X159255000Y-70934344D01*
X159182561Y-70570166D01*
X159040466Y-70227118D01*
X158834175Y-69918382D01*
X158722188Y-69806395D01*
X160196000Y-69806395D01*
X161330000Y-70940395D01*
X162464000Y-69806395D01*
X162338086Y-69516423D01*
X162005874Y-69350567D01*
X161647688Y-69252710D01*
X161277294Y-69226611D01*
X160908925Y-69273275D01*
X160556738Y-69390906D01*
X160321914Y-69516423D01*
X160196000Y-69806395D01*
X158722188Y-69806395D01*
X158571618Y-69655825D01*
X158262882Y-69449534D01*
X157919834Y-69307439D01*
X157555656Y-69235000D01*
X157184344Y-69235000D01*
X156820166Y-69307439D01*
X156477118Y-69449534D01*
X156168382Y-69655825D01*
X155905825Y-69918382D01*
X155699534Y-70227118D01*
X155557439Y-70570166D01*
X155485000Y-70934344D01*
X155295000Y-70934344D01*
X155222561Y-70570166D01*
X155080466Y-70227118D01*
X154874175Y-69918382D01*
X154611618Y-69655825D01*
X154302882Y-69449534D01*
X153959834Y-69307439D01*
X153595656Y-69235000D01*
X153224344Y-69235000D01*
X152860166Y-69307439D01*
X152517118Y-69449534D01*
X152208382Y-69655825D01*
X151945825Y-69918382D01*
X151739534Y-70227118D01*
X151597439Y-70570166D01*
X151525000Y-70934344D01*
X151335000Y-70934344D01*
X151262561Y-70570166D01*
X151120466Y-70227118D01*
X150914175Y-69918382D01*
X150651618Y-69655825D01*
X150342882Y-69449534D01*
X149999834Y-69307439D01*
X149635656Y-69235000D01*
X149264344Y-69235000D01*
X148900166Y-69307439D01*
X148557118Y-69449534D01*
X148248382Y-69655825D01*
X147985825Y-69918382D01*
X147779534Y-70227118D01*
X147637439Y-70570166D01*
X147565000Y-70934344D01*
X147375000Y-70934344D01*
X147302561Y-70570166D01*
X147160466Y-70227118D01*
X146954175Y-69918382D01*
X146691618Y-69655825D01*
X146382882Y-69449534D01*
X146039834Y-69307439D01*
X145675656Y-69235000D01*
X145304344Y-69235000D01*
X144940166Y-69307439D01*
X144597118Y-69449534D01*
X144288382Y-69655825D01*
X144025825Y-69918382D01*
X143819534Y-70227118D01*
X143677439Y-70570166D01*
X143605000Y-70934344D01*
X143415000Y-70934344D01*
X143342561Y-70570166D01*
X143200466Y-70227118D01*
X142994175Y-69918382D01*
X142731618Y-69655825D01*
X142422882Y-69449534D01*
X142079834Y-69307439D01*
X141715656Y-69235000D01*
X141344344Y-69235000D01*
X140980166Y-69307439D01*
X140637118Y-69449534D01*
X140328382Y-69655825D01*
X140065825Y-69918382D01*
X139859534Y-70227118D01*
X139717439Y-70570166D01*
X139645000Y-70934344D01*
X139455000Y-70934344D01*
X139382561Y-70570166D01*
X139240466Y-70227118D01*
X139034175Y-69918382D01*
X138771618Y-69655825D01*
X138462882Y-69449534D01*
X138119834Y-69307439D01*
X137755656Y-69235000D01*
X137384344Y-69235000D01*
X137020166Y-69307439D01*
X136677118Y-69449534D01*
X136368382Y-69655825D01*
X136105825Y-69918382D01*
X135899534Y-70227118D01*
X135757439Y-70570166D01*
X135685000Y-70934344D01*
X135495000Y-70934344D01*
X135422561Y-70570166D01*
X135280466Y-70227118D01*
X135074175Y-69918382D01*
X134811618Y-69655825D01*
X134502882Y-69449534D01*
X134159834Y-69307439D01*
X133795656Y-69235000D01*
X133424344Y-69235000D01*
X133060166Y-69307439D01*
X132717118Y-69449534D01*
X132408382Y-69655825D01*
X132145825Y-69918382D01*
X131939534Y-70227118D01*
X131797439Y-70570166D01*
X131725000Y-70934344D01*
X131535000Y-70934344D01*
X131462561Y-70570166D01*
X131320466Y-70227118D01*
X131114175Y-69918382D01*
X130851618Y-69655825D01*
X130542882Y-69449534D01*
X130199834Y-69307439D01*
X129835656Y-69235000D01*
X129464344Y-69235000D01*
X129100166Y-69307439D01*
X128757118Y-69449534D01*
X128448382Y-69655825D01*
X128185825Y-69918382D01*
X127979534Y-70227118D01*
X127837439Y-70570166D01*
X127765000Y-70934344D01*
X127575000Y-70934344D01*
X127502561Y-70570166D01*
X127360466Y-70227118D01*
X127154175Y-69918382D01*
X126891618Y-69655825D01*
X126582882Y-69449534D01*
X126239834Y-69307439D01*
X125875656Y-69235000D01*
X125504344Y-69235000D01*
X125140166Y-69307439D01*
X124797118Y-69449534D01*
X124488382Y-69655825D01*
X124225825Y-69918382D01*
X124019534Y-70227118D01*
X123877439Y-70570166D01*
X123805000Y-70934344D01*
X123615000Y-70934344D01*
X123542561Y-70570166D01*
X123400466Y-70227118D01*
X123194175Y-69918382D01*
X122931618Y-69655825D01*
X122622882Y-69449534D01*
X122279834Y-69307439D01*
X121915656Y-69235000D01*
X121544344Y-69235000D01*
X121180166Y-69307439D01*
X120837118Y-69449534D01*
X120528382Y-69655825D01*
X120265825Y-69918382D01*
X120059534Y-70227118D01*
X119917439Y-70570166D01*
X119845000Y-70934344D01*
X108208144Y-70934344D01*
X108156011Y-70672257D01*
X108040299Y-70392905D01*
X107872312Y-70141495D01*
X107658505Y-69927688D01*
X107407095Y-69759701D01*
X107127743Y-69643989D01*
X106831184Y-69585000D01*
X106528816Y-69585000D01*
X106232257Y-69643989D01*
X105952905Y-69759701D01*
X105701495Y-69927688D01*
X105635056Y-69994127D01*
X105629502Y-69975820D01*
X105570537Y-69865506D01*
X105491185Y-69768815D01*
X105394494Y-69689463D01*
X105284180Y-69630498D01*
X105164482Y-69594188D01*
X105040000Y-69581928D01*
X104425750Y-69585000D01*
X104267000Y-69743750D01*
X104013000Y-69743750D01*
X103854250Y-69585000D01*
X103240000Y-69581928D01*
X103115518Y-69594188D01*
X102995820Y-69630498D01*
X102885506Y-69689463D01*
X102788815Y-69768815D01*
X102709463Y-69865506D01*
X102650498Y-69975820D01*
X102614188Y-70095518D01*
X102601928Y-70220000D01*
X101574768Y-70220000D01*
X101522312Y-70141495D01*
X101308505Y-69927688D01*
X101057095Y-69759701D01*
X100777743Y-69643989D01*
X100481184Y-69585000D01*
X100178816Y-69585000D01*
X99882257Y-69643989D01*
X99602905Y-69759701D01*
X99351495Y-69927688D01*
X99285056Y-69994127D01*
X99279502Y-69975820D01*
X99220537Y-69865506D01*
X99141185Y-69768815D01*
X99044494Y-69689463D01*
X98934180Y-69630498D01*
X98814482Y-69594188D01*
X98690000Y-69581928D01*
X98075750Y-69585000D01*
X97917000Y-69743750D01*
X97663000Y-69743750D01*
X97504250Y-69585000D01*
X96890000Y-69581928D01*
X96765518Y-69594188D01*
X96645820Y-69630498D01*
X96535506Y-69689463D01*
X96438815Y-69768815D01*
X96359463Y-69865506D01*
X96300498Y-69975820D01*
X96264188Y-70095518D01*
X96251928Y-70220000D01*
X95224768Y-70220000D01*
X95172312Y-70141495D01*
X94958505Y-69927688D01*
X94707095Y-69759701D01*
X94427743Y-69643989D01*
X94131184Y-69585000D01*
X93828816Y-69585000D01*
X93532257Y-69643989D01*
X93252905Y-69759701D01*
X93001495Y-69927688D01*
X92935056Y-69994127D01*
X92929502Y-69975820D01*
X92870537Y-69865506D01*
X92791185Y-69768815D01*
X92694494Y-69689463D01*
X92584180Y-69630498D01*
X92464482Y-69594188D01*
X92340000Y-69581928D01*
X91725750Y-69585000D01*
X91567000Y-69743750D01*
X91313000Y-69743750D01*
X91154250Y-69585000D01*
X90540000Y-69581928D01*
X90415518Y-69594188D01*
X90295820Y-69630498D01*
X90195000Y-69684388D01*
X90195000Y-67970000D01*
X178410001Y-67970000D01*
X178410000Y-113640000D01*
G37*
X178410000Y-113640000D02*
X90195000Y-113640000D01*
X90195000Y-111849609D01*
X94764997Y-111849609D01*
X94951073Y-112190766D01*
X95368409Y-112406513D01*
X95819815Y-112536696D01*
X96287946Y-112576313D01*
X96754811Y-112523842D01*
X97202468Y-112381297D01*
X97558927Y-112190766D01*
X97745003Y-111849609D01*
X96255000Y-110359605D01*
X94764997Y-111849609D01*
X90195000Y-111849609D01*
X90195000Y-110212946D01*
X93858687Y-110212946D01*
X93911158Y-110679811D01*
X94053703Y-111127468D01*
X94244234Y-111483927D01*
X94585391Y-111670003D01*
X96075395Y-110180000D01*
X96434605Y-110180000D01*
X97924609Y-111670003D01*
X98265766Y-111483927D01*
X98481513Y-111066591D01*
X98611696Y-110615185D01*
X98651313Y-110147054D01*
X98598842Y-109680189D01*
X98456297Y-109232532D01*
X98265766Y-108876073D01*
X97924609Y-108689997D01*
X96434605Y-110180000D01*
X96075395Y-110180000D01*
X94585391Y-108689997D01*
X94244234Y-108876073D01*
X94028487Y-109293409D01*
X93898304Y-109744815D01*
X93858687Y-110212946D01*
X90195000Y-110212946D01*
X90195000Y-108510391D01*
X94764997Y-108510391D01*
X96255000Y-110000395D01*
X97745003Y-108510391D01*
X97558927Y-108169234D01*
X97141591Y-107953487D01*
X96690185Y-107823304D01*
X96222054Y-107783687D01*
X95755189Y-107836158D01*
X95307532Y-107978703D01*
X94951073Y-108169234D01*
X94764997Y-108510391D01*
X90195000Y-108510391D01*
X90195000Y-107769268D01*
X104210000Y-107769268D01*
X104210000Y-108130732D01*
X104280518Y-108485250D01*
X104418844Y-108819199D01*
X104619662Y-109119744D01*
X104875256Y-109375338D01*
X105175801Y-109576156D01*
X105509750Y-109714482D01*
X105864268Y-109785000D01*
X106225732Y-109785000D01*
X106580250Y-109714482D01*
X106914199Y-109576156D01*
X107214744Y-109375338D01*
X107470338Y-109119744D01*
X107671156Y-108819199D01*
X107809482Y-108485250D01*
X107880000Y-108130732D01*
X107880000Y-107769268D01*
X116910000Y-107769268D01*
X116910000Y-108130732D01*
X116980518Y-108485250D01*
X117118844Y-108819199D01*
X117319662Y-109119744D01*
X117575256Y-109375338D01*
X117875801Y-109576156D01*
X118209750Y-109714482D01*
X118564268Y-109785000D01*
X118925732Y-109785000D01*
X119280250Y-109714482D01*
X119614199Y-109576156D01*
X119914744Y-109375338D01*
X120170338Y-109119744D01*
X120371156Y-108819199D01*
X120509482Y-108485250D01*
X120515499Y-108455000D01*
X140201928Y-108455000D01*
X140201928Y-111255000D01*
X140214188Y-111379482D01*
X140250498Y-111499180D01*
X140309463Y-111609494D01*
X140388815Y-111706185D01*
X140485506Y-111785537D01*
X140595820Y-111844502D01*
X140715518Y-111880812D01*
X140840000Y-111893072D01*
X143640000Y-111893072D01*
X143764482Y-111880812D01*
X143884180Y-111844502D01*
X143994494Y-111785537D01*
X144091185Y-111706185D01*
X144170537Y-111609494D01*
X144229502Y-111499180D01*
X144265812Y-111379482D01*
X144278072Y-111255000D01*
X144278072Y-110298160D01*
X152953840Y-110298160D01*
X153042358Y-110589979D01*
X153222208Y-110946068D01*
X153468072Y-111260228D01*
X153770501Y-111520386D01*
X154117873Y-111716544D01*
X154496839Y-111841164D01*
X154813000Y-111727287D01*
X154813000Y-109982000D01*
X155067000Y-109982000D01*
X155067000Y-111727287D01*
X155383161Y-111841164D01*
X155762127Y-111716544D01*
X156109499Y-111520386D01*
X156411928Y-111260228D01*
X156657792Y-110946068D01*
X156837642Y-110589979D01*
X156926160Y-110298160D01*
X156811947Y-109982000D01*
X155067000Y-109982000D01*
X154813000Y-109982000D01*
X153068053Y-109982000D01*
X152953840Y-110298160D01*
X144278072Y-110298160D01*
X144278072Y-109411840D01*
X152953840Y-109411840D01*
X153068053Y-109728000D01*
X154813000Y-109728000D01*
X154813000Y-107982713D01*
X155067000Y-107982713D01*
X155067000Y-109728000D01*
X156811947Y-109728000D01*
X156926160Y-109411840D01*
X156837642Y-109120021D01*
X156657792Y-108763932D01*
X156411928Y-108449772D01*
X156109499Y-108189614D01*
X155762127Y-107993456D01*
X155383161Y-107868836D01*
X155067000Y-107982713D01*
X154813000Y-107982713D01*
X154496839Y-107868836D01*
X154117873Y-107993456D01*
X153770501Y-108189614D01*
X153468072Y-108449772D01*
X153222208Y-108763932D01*
X153042358Y-109120021D01*
X152953840Y-109411840D01*
X144278072Y-109411840D01*
X144278072Y-108455000D01*
X144265812Y-108330518D01*
X144229502Y-108210820D01*
X144170537Y-108100506D01*
X144091185Y-108003815D01*
X143994494Y-107924463D01*
X143884180Y-107865498D01*
X143764482Y-107829188D01*
X143640000Y-107816928D01*
X140840000Y-107816928D01*
X140715518Y-107829188D01*
X140595820Y-107865498D01*
X140485506Y-107924463D01*
X140388815Y-108003815D01*
X140309463Y-108100506D01*
X140250498Y-108210820D01*
X140214188Y-108330518D01*
X140201928Y-108455000D01*
X120515499Y-108455000D01*
X120580000Y-108130732D01*
X120580000Y-107769268D01*
X120509482Y-107414750D01*
X120371156Y-107080801D01*
X120170338Y-106780256D01*
X119935495Y-106545413D01*
X128584192Y-106545413D01*
X128679956Y-106809814D01*
X128969571Y-106950704D01*
X129281108Y-107032384D01*
X129602595Y-107051718D01*
X129921675Y-107007961D01*
X130226088Y-106902795D01*
X130400044Y-106809814D01*
X130495808Y-106545413D01*
X130415808Y-106465413D01*
X133664192Y-106465413D01*
X133759956Y-106729814D01*
X134049571Y-106870704D01*
X134361108Y-106952384D01*
X134682595Y-106971718D01*
X135001675Y-106927961D01*
X135306088Y-106822795D01*
X135480044Y-106729814D01*
X135575808Y-106465413D01*
X134620000Y-105509605D01*
X133664192Y-106465413D01*
X130415808Y-106465413D01*
X129540000Y-105589605D01*
X128584192Y-106545413D01*
X119935495Y-106545413D01*
X119914744Y-106524662D01*
X119614199Y-106323844D01*
X119280250Y-106185518D01*
X118925732Y-106115000D01*
X118564268Y-106115000D01*
X118209750Y-106185518D01*
X117875801Y-106323844D01*
X117575256Y-106524662D01*
X117319662Y-106780256D01*
X117118844Y-107080801D01*
X116980518Y-107414750D01*
X116910000Y-107769268D01*
X107880000Y-107769268D01*
X107809482Y-107414750D01*
X107671156Y-107080801D01*
X107470338Y-106780256D01*
X107214744Y-106524662D01*
X106914199Y-106323844D01*
X106580250Y-106185518D01*
X106225732Y-106115000D01*
X105864268Y-106115000D01*
X105509750Y-106185518D01*
X105175801Y-106323844D01*
X104875256Y-106524662D01*
X104619662Y-106780256D01*
X104418844Y-107080801D01*
X104280518Y-107414750D01*
X104210000Y-107769268D01*
X90195000Y-107769268D01*
X90195000Y-105478531D01*
X97474389Y-105478531D01*
X97516401Y-105768019D01*
X97614081Y-106043747D01*
X97687528Y-106181157D01*
X97936603Y-106258792D01*
X98785395Y-105410000D01*
X97936603Y-104561208D01*
X97687528Y-104638843D01*
X97561629Y-104902883D01*
X97489661Y-105186411D01*
X97474389Y-105478531D01*
X90195000Y-105478531D01*
X90195000Y-102763740D01*
X97480000Y-102763740D01*
X97480000Y-103056260D01*
X97537068Y-103343158D01*
X97649010Y-103613411D01*
X97811525Y-103856632D01*
X98018368Y-104063475D01*
X98181410Y-104172416D01*
X98116208Y-104381603D01*
X98965000Y-105230395D01*
X98979143Y-105216253D01*
X99158748Y-105395858D01*
X99144605Y-105410000D01*
X99158748Y-105424143D01*
X98979143Y-105603748D01*
X98965000Y-105589605D01*
X98116208Y-106438397D01*
X98193843Y-106687472D01*
X98457883Y-106813371D01*
X98741411Y-106885339D01*
X99033531Y-106900611D01*
X99323019Y-106858599D01*
X99598747Y-106760919D01*
X99674850Y-106720241D01*
X99760506Y-106790537D01*
X99870820Y-106849502D01*
X99990518Y-106885812D01*
X100115000Y-106898072D01*
X101815000Y-106898072D01*
X101939482Y-106885812D01*
X102059180Y-106849502D01*
X102169494Y-106790537D01*
X102266185Y-106711185D01*
X102345537Y-106614494D01*
X102404502Y-106504180D01*
X102440812Y-106384482D01*
X102453072Y-106260000D01*
X102453072Y-105472595D01*
X127898282Y-105472595D01*
X127942039Y-105791675D01*
X128047205Y-106096088D01*
X128140186Y-106270044D01*
X128404587Y-106365808D01*
X129360395Y-105410000D01*
X129719605Y-105410000D01*
X130675413Y-106365808D01*
X130939814Y-106270044D01*
X131080704Y-105980429D01*
X131162384Y-105668892D01*
X131179000Y-105392595D01*
X132978282Y-105392595D01*
X133022039Y-105711675D01*
X133127205Y-106016088D01*
X133220186Y-106190044D01*
X133484587Y-106285808D01*
X134440395Y-105330000D01*
X134799605Y-105330000D01*
X135755413Y-106285808D01*
X136019814Y-106190044D01*
X136160704Y-105900429D01*
X136242384Y-105588892D01*
X136261718Y-105267405D01*
X136256489Y-105229268D01*
X140405000Y-105229268D01*
X140405000Y-105590732D01*
X140475518Y-105945250D01*
X140613844Y-106279199D01*
X140814662Y-106579744D01*
X141070256Y-106835338D01*
X141370801Y-107036156D01*
X141704750Y-107174482D01*
X142059268Y-107245000D01*
X142420732Y-107245000D01*
X142775250Y-107174482D01*
X143109199Y-107036156D01*
X143409744Y-106835338D01*
X143665338Y-106579744D01*
X143866156Y-106279199D01*
X144004482Y-105945250D01*
X144075000Y-105590732D01*
X144075000Y-105229268D01*
X146755000Y-105229268D01*
X146755000Y-105590732D01*
X146825518Y-105945250D01*
X146963844Y-106279199D01*
X147164662Y-106579744D01*
X147420256Y-106835338D01*
X147720801Y-107036156D01*
X148054750Y-107174482D01*
X148409268Y-107245000D01*
X148770732Y-107245000D01*
X149125250Y-107174482D01*
X149459199Y-107036156D01*
X149759744Y-106835338D01*
X150015338Y-106579744D01*
X150216156Y-106279199D01*
X150354482Y-105945250D01*
X150425000Y-105590732D01*
X150425000Y-105229268D01*
X150354482Y-104874750D01*
X150216156Y-104540801D01*
X150015338Y-104240256D01*
X149759744Y-103984662D01*
X149459199Y-103783844D01*
X149125250Y-103645518D01*
X148770732Y-103575000D01*
X148409268Y-103575000D01*
X148054750Y-103645518D01*
X147720801Y-103783844D01*
X147420256Y-103984662D01*
X147164662Y-104240256D01*
X146963844Y-104540801D01*
X146825518Y-104874750D01*
X146755000Y-105229268D01*
X144075000Y-105229268D01*
X144004482Y-104874750D01*
X143866156Y-104540801D01*
X143665338Y-104240256D01*
X143409744Y-103984662D01*
X143109199Y-103783844D01*
X142775250Y-103645518D01*
X142420732Y-103575000D01*
X142059268Y-103575000D01*
X141704750Y-103645518D01*
X141370801Y-103783844D01*
X141070256Y-103984662D01*
X140814662Y-104240256D01*
X140613844Y-104540801D01*
X140475518Y-104874750D01*
X140405000Y-105229268D01*
X136256489Y-105229268D01*
X136217961Y-104948325D01*
X136112795Y-104643912D01*
X136019814Y-104469956D01*
X135755413Y-104374192D01*
X134799605Y-105330000D01*
X134440395Y-105330000D01*
X133484587Y-104374192D01*
X133220186Y-104469956D01*
X133079296Y-104759571D01*
X132997616Y-105071108D01*
X132978282Y-105392595D01*
X131179000Y-105392595D01*
X131181718Y-105347405D01*
X131137961Y-105028325D01*
X131032795Y-104723912D01*
X130939814Y-104549956D01*
X130675413Y-104454192D01*
X129719605Y-105410000D01*
X129360395Y-105410000D01*
X128404587Y-104454192D01*
X128140186Y-104549956D01*
X127999296Y-104839571D01*
X127917616Y-105151108D01*
X127898282Y-105472595D01*
X102453072Y-105472595D01*
X102453072Y-104560000D01*
X102440812Y-104435518D01*
X102404502Y-104315820D01*
X102382463Y-104274587D01*
X128584192Y-104274587D01*
X129540000Y-105230395D01*
X130495808Y-104274587D01*
X130466833Y-104194587D01*
X133664192Y-104194587D01*
X134620000Y-105150395D01*
X135575808Y-104194587D01*
X135480044Y-103930186D01*
X135190429Y-103789296D01*
X134878892Y-103707616D01*
X134557405Y-103688282D01*
X134238325Y-103732039D01*
X133933912Y-103837205D01*
X133759956Y-103930186D01*
X133664192Y-104194587D01*
X130466833Y-104194587D01*
X130400044Y-104010186D01*
X130110429Y-103869296D01*
X129798892Y-103787616D01*
X129477405Y-103768282D01*
X129158325Y-103812039D01*
X128853912Y-103917205D01*
X128679956Y-104010186D01*
X128584192Y-104274587D01*
X102382463Y-104274587D01*
X102345537Y-104205506D01*
X102266185Y-104108815D01*
X102169494Y-104029463D01*
X102059180Y-103970498D01*
X102017310Y-103957797D01*
X102118475Y-103856632D01*
X102280990Y-103613411D01*
X102392932Y-103343158D01*
X102450000Y-103056260D01*
X102450000Y-102763740D01*
X102445278Y-102740000D01*
X151631928Y-102740000D01*
X151631928Y-105540000D01*
X151644188Y-105664482D01*
X151680498Y-105784180D01*
X151739463Y-105894494D01*
X151818815Y-105991185D01*
X151915506Y-106070537D01*
X152025820Y-106129502D01*
X152145518Y-106165812D01*
X152270000Y-106178072D01*
X155070000Y-106178072D01*
X155194482Y-106165812D01*
X155314180Y-106129502D01*
X155424494Y-106070537D01*
X155521185Y-105991185D01*
X155600537Y-105894494D01*
X155659502Y-105784180D01*
X155695812Y-105664482D01*
X155708072Y-105540000D01*
X155708072Y-104583160D01*
X164383840Y-104583160D01*
X164472358Y-104874979D01*
X164652208Y-105231068D01*
X164898072Y-105545228D01*
X165200501Y-105805386D01*
X165547873Y-106001544D01*
X165926839Y-106126164D01*
X166243000Y-106012287D01*
X166243000Y-104267000D01*
X166497000Y-104267000D01*
X166497000Y-106012287D01*
X166813161Y-106126164D01*
X167192127Y-106001544D01*
X167539499Y-105805386D01*
X167841928Y-105545228D01*
X168087792Y-105231068D01*
X168267642Y-104874979D01*
X168356160Y-104583160D01*
X168241947Y-104267000D01*
X166497000Y-104267000D01*
X166243000Y-104267000D01*
X164498053Y-104267000D01*
X164383840Y-104583160D01*
X155708072Y-104583160D01*
X155708072Y-103696840D01*
X164383840Y-103696840D01*
X164498053Y-104013000D01*
X166243000Y-104013000D01*
X166243000Y-102267713D01*
X166497000Y-102267713D01*
X166497000Y-104013000D01*
X168241947Y-104013000D01*
X168356160Y-103696840D01*
X168267642Y-103405021D01*
X168087792Y-103048932D01*
X167841928Y-102734772D01*
X167539499Y-102474614D01*
X167192127Y-102278456D01*
X166813161Y-102153836D01*
X166497000Y-102267713D01*
X166243000Y-102267713D01*
X165926839Y-102153836D01*
X165547873Y-102278456D01*
X165200501Y-102474614D01*
X164898072Y-102734772D01*
X164652208Y-103048932D01*
X164472358Y-103405021D01*
X164383840Y-103696840D01*
X155708072Y-103696840D01*
X155708072Y-102740000D01*
X155695812Y-102615518D01*
X155659502Y-102495820D01*
X155600537Y-102385506D01*
X155521185Y-102288815D01*
X155424494Y-102209463D01*
X155314180Y-102150498D01*
X155194482Y-102114188D01*
X155070000Y-102101928D01*
X152270000Y-102101928D01*
X152145518Y-102114188D01*
X152025820Y-102150498D01*
X151915506Y-102209463D01*
X151818815Y-102288815D01*
X151739463Y-102385506D01*
X151680498Y-102495820D01*
X151644188Y-102615518D01*
X151631928Y-102740000D01*
X102445278Y-102740000D01*
X102392932Y-102476842D01*
X102280990Y-102206589D01*
X102118475Y-101963368D01*
X101911632Y-101756525D01*
X101668411Y-101594010D01*
X101398158Y-101482068D01*
X101111260Y-101425000D01*
X100818740Y-101425000D01*
X100531842Y-101482068D01*
X100261589Y-101594010D01*
X100018368Y-101756525D01*
X99965000Y-101809893D01*
X99911632Y-101756525D01*
X99668411Y-101594010D01*
X99398158Y-101482068D01*
X99111260Y-101425000D01*
X98818740Y-101425000D01*
X98531842Y-101482068D01*
X98261589Y-101594010D01*
X98018368Y-101756525D01*
X97811525Y-101963368D01*
X97649010Y-102206589D01*
X97537068Y-102476842D01*
X97480000Y-102763740D01*
X90195000Y-102763740D01*
X90195000Y-99809609D01*
X94764997Y-99809609D01*
X94951073Y-100150766D01*
X95368409Y-100366513D01*
X95819815Y-100496696D01*
X96287946Y-100536313D01*
X96754811Y-100483842D01*
X97202468Y-100341297D01*
X97558927Y-100150766D01*
X97559744Y-100149268D01*
X104210000Y-100149268D01*
X104210000Y-100510732D01*
X104280518Y-100865250D01*
X104418844Y-101199199D01*
X104619662Y-101499744D01*
X104875256Y-101755338D01*
X105175801Y-101956156D01*
X105509750Y-102094482D01*
X105864268Y-102165000D01*
X106225732Y-102165000D01*
X106580250Y-102094482D01*
X106914199Y-101956156D01*
X107214744Y-101755338D01*
X107470338Y-101499744D01*
X107671156Y-101199199D01*
X107809482Y-100865250D01*
X107880000Y-100510732D01*
X107880000Y-100149268D01*
X116910000Y-100149268D01*
X116910000Y-100510732D01*
X116980518Y-100865250D01*
X117118844Y-101199199D01*
X117319662Y-101499744D01*
X117575256Y-101755338D01*
X117875801Y-101956156D01*
X118209750Y-102094482D01*
X118564268Y-102165000D01*
X118925732Y-102165000D01*
X119280250Y-102094482D01*
X119614199Y-101956156D01*
X119914744Y-101755338D01*
X120170338Y-101499744D01*
X120289176Y-101321890D01*
X121748524Y-101321890D01*
X121793175Y-101469099D01*
X121918359Y-101731920D01*
X122092412Y-101965269D01*
X122308645Y-102160178D01*
X122558748Y-102309157D01*
X122833109Y-102406481D01*
X123063000Y-102285814D01*
X123063000Y-101092000D01*
X123317000Y-101092000D01*
X123317000Y-102285814D01*
X123546891Y-102406481D01*
X123821252Y-102309157D01*
X124071355Y-102160178D01*
X124287588Y-101965269D01*
X124461641Y-101731920D01*
X124586825Y-101469099D01*
X124631476Y-101321890D01*
X124510155Y-101092000D01*
X123317000Y-101092000D01*
X123063000Y-101092000D01*
X121869845Y-101092000D01*
X121748524Y-101321890D01*
X120289176Y-101321890D01*
X120371156Y-101199199D01*
X120509482Y-100865250D01*
X120580000Y-100510732D01*
X120580000Y-100149268D01*
X120509482Y-99794750D01*
X120371156Y-99460801D01*
X120170338Y-99160256D01*
X119914744Y-98904662D01*
X119614199Y-98703844D01*
X119280250Y-98565518D01*
X118925732Y-98495000D01*
X118564268Y-98495000D01*
X118209750Y-98565518D01*
X117875801Y-98703844D01*
X117575256Y-98904662D01*
X117319662Y-99160256D01*
X117118844Y-99460801D01*
X116980518Y-99794750D01*
X116910000Y-100149268D01*
X107880000Y-100149268D01*
X107809482Y-99794750D01*
X107671156Y-99460801D01*
X107470338Y-99160256D01*
X107214744Y-98904662D01*
X106914199Y-98703844D01*
X106580250Y-98565518D01*
X106225732Y-98495000D01*
X105864268Y-98495000D01*
X105509750Y-98565518D01*
X105175801Y-98703844D01*
X104875256Y-98904662D01*
X104619662Y-99160256D01*
X104418844Y-99460801D01*
X104280518Y-99794750D01*
X104210000Y-100149268D01*
X97559744Y-100149268D01*
X97745003Y-99809609D01*
X96255000Y-98319605D01*
X94764997Y-99809609D01*
X90195000Y-99809609D01*
X90195000Y-98172946D01*
X93858687Y-98172946D01*
X93911158Y-98639811D01*
X94053703Y-99087468D01*
X94244234Y-99443927D01*
X94585391Y-99630003D01*
X96075395Y-98140000D01*
X96434605Y-98140000D01*
X97924609Y-99630003D01*
X98265766Y-99443927D01*
X98481513Y-99026591D01*
X98611696Y-98575185D01*
X98651313Y-98107054D01*
X98598842Y-97640189D01*
X98456297Y-97192532D01*
X98265766Y-96836073D01*
X97924609Y-96649997D01*
X96434605Y-98140000D01*
X96075395Y-98140000D01*
X94585391Y-96649997D01*
X94244234Y-96836073D01*
X94028487Y-97253409D01*
X93898304Y-97704815D01*
X93858687Y-98172946D01*
X90195000Y-98172946D01*
X90195000Y-96470391D01*
X94764997Y-96470391D01*
X96255000Y-97960395D01*
X97745003Y-96470391D01*
X97558927Y-96129234D01*
X97141591Y-95913487D01*
X96690185Y-95783304D01*
X96222054Y-95743687D01*
X95755189Y-95796158D01*
X95307532Y-95938703D01*
X94951073Y-96129234D01*
X94764997Y-96470391D01*
X90195000Y-96470391D01*
X90195000Y-94058438D01*
X104711505Y-94058438D01*
X104750605Y-94298549D01*
X104835798Y-94526418D01*
X104876652Y-94602852D01*
X105100236Y-94650159D01*
X105770395Y-93980000D01*
X105100236Y-93309841D01*
X104876652Y-93357148D01*
X104775763Y-93578516D01*
X104720000Y-93815313D01*
X104711505Y-94058438D01*
X90195000Y-94058438D01*
X90195000Y-93130236D01*
X105279841Y-93130236D01*
X105950000Y-93800395D01*
X105964143Y-93786253D01*
X106143748Y-93965858D01*
X106129605Y-93980000D01*
X106143748Y-93994143D01*
X105964143Y-94173748D01*
X105950000Y-94159605D01*
X105279841Y-94829764D01*
X105327148Y-95053348D01*
X105548516Y-95154237D01*
X105785313Y-95210000D01*
X106028438Y-95218495D01*
X106268549Y-95179395D01*
X106496418Y-95094202D01*
X106572852Y-95053348D01*
X106620158Y-94829766D01*
X106737264Y-94946872D01*
X106795142Y-94888994D01*
X106819463Y-94934494D01*
X106898815Y-95031185D01*
X106995506Y-95110537D01*
X107105820Y-95169502D01*
X107225518Y-95205812D01*
X107350000Y-95218072D01*
X108550000Y-95218072D01*
X108674482Y-95205812D01*
X108794180Y-95169502D01*
X108904494Y-95110537D01*
X109001185Y-95031185D01*
X109080537Y-94934494D01*
X109139502Y-94824180D01*
X109175812Y-94704482D01*
X109188072Y-94580000D01*
X109188072Y-93799268D01*
X111195000Y-93799268D01*
X111195000Y-94160732D01*
X111265518Y-94515250D01*
X111403844Y-94849199D01*
X111604662Y-95149744D01*
X111860256Y-95405338D01*
X112160801Y-95606156D01*
X112494750Y-95744482D01*
X112849268Y-95815000D01*
X113210732Y-95815000D01*
X113565250Y-95744482D01*
X113899199Y-95606156D01*
X114199744Y-95405338D01*
X114455338Y-95149744D01*
X114656156Y-94849199D01*
X114794482Y-94515250D01*
X114865000Y-94160732D01*
X114865000Y-93799268D01*
X114794482Y-93444750D01*
X114656156Y-93110801D01*
X114455338Y-92810256D01*
X114199744Y-92554662D01*
X114110454Y-92495000D01*
X121701928Y-92495000D01*
X121701928Y-94195000D01*
X121714188Y-94319482D01*
X121750498Y-94439180D01*
X121809463Y-94549494D01*
X121888815Y-94646185D01*
X121985506Y-94725537D01*
X122095820Y-94784502D01*
X122168380Y-94806513D01*
X122036525Y-94938368D01*
X121874010Y-95181589D01*
X121762068Y-95451842D01*
X121705000Y-95738740D01*
X121705000Y-96031260D01*
X121762068Y-96318158D01*
X121874010Y-96588411D01*
X122036525Y-96831632D01*
X122243368Y-97038475D01*
X122417760Y-97155000D01*
X122243368Y-97271525D01*
X122036525Y-97478368D01*
X121874010Y-97721589D01*
X121762068Y-97991842D01*
X121705000Y-98278740D01*
X121705000Y-98571260D01*
X121762068Y-98858158D01*
X121874010Y-99128411D01*
X122036525Y-99371632D01*
X122243368Y-99578475D01*
X122425534Y-99700195D01*
X122308645Y-99769822D01*
X122092412Y-99964731D01*
X121918359Y-100198080D01*
X121793175Y-100460901D01*
X121748524Y-100608110D01*
X121869845Y-100838000D01*
X123063000Y-100838000D01*
X123063000Y-100818000D01*
X123317000Y-100818000D01*
X123317000Y-100838000D01*
X124510155Y-100838000D01*
X124631476Y-100608110D01*
X124586825Y-100460901D01*
X124485879Y-100248967D01*
X127905000Y-100248967D01*
X127905000Y-100571033D01*
X127967832Y-100886912D01*
X128091082Y-101184463D01*
X128270013Y-101452252D01*
X128497748Y-101679987D01*
X128765537Y-101858918D01*
X129063088Y-101982168D01*
X129378967Y-102045000D01*
X129701033Y-102045000D01*
X130016912Y-101982168D01*
X130314463Y-101858918D01*
X130582252Y-101679987D01*
X130809987Y-101452252D01*
X130988918Y-101184463D01*
X131112168Y-100886912D01*
X131175000Y-100571033D01*
X131175000Y-100248967D01*
X131159088Y-100168967D01*
X132985000Y-100168967D01*
X132985000Y-100491033D01*
X133047832Y-100806912D01*
X133171082Y-101104463D01*
X133350013Y-101372252D01*
X133577748Y-101599987D01*
X133845537Y-101778918D01*
X134143088Y-101902168D01*
X134458967Y-101965000D01*
X134781033Y-101965000D01*
X135096912Y-101902168D01*
X135394463Y-101778918D01*
X135662252Y-101599987D01*
X135889987Y-101372252D01*
X136068918Y-101104463D01*
X136192168Y-100806912D01*
X136255000Y-100491033D01*
X136255000Y-100168967D01*
X136192168Y-99853088D01*
X136068918Y-99555537D01*
X135889987Y-99287748D01*
X135662252Y-99060013D01*
X135394463Y-98881082D01*
X135096912Y-98757832D01*
X134781033Y-98695000D01*
X134458967Y-98695000D01*
X134143088Y-98757832D01*
X133845537Y-98881082D01*
X133577748Y-99060013D01*
X133350013Y-99287748D01*
X133171082Y-99555537D01*
X133047832Y-99853088D01*
X132985000Y-100168967D01*
X131159088Y-100168967D01*
X131112168Y-99933088D01*
X130988918Y-99635537D01*
X130809987Y-99367748D01*
X130582252Y-99140013D01*
X130314463Y-98961082D01*
X130016912Y-98837832D01*
X129701033Y-98775000D01*
X129378967Y-98775000D01*
X129063088Y-98837832D01*
X128765537Y-98961082D01*
X128497748Y-99140013D01*
X128270013Y-99367748D01*
X128091082Y-99635537D01*
X127967832Y-99933088D01*
X127905000Y-100248967D01*
X124485879Y-100248967D01*
X124461641Y-100198080D01*
X124287588Y-99964731D01*
X124071355Y-99769822D01*
X123954466Y-99700195D01*
X124136632Y-99578475D01*
X124343475Y-99371632D01*
X124505990Y-99128411D01*
X124617932Y-98858158D01*
X124675000Y-98571260D01*
X124675000Y-98278740D01*
X124617932Y-97991842D01*
X124505990Y-97721589D01*
X124343475Y-97478368D01*
X124136632Y-97271525D01*
X123962240Y-97155000D01*
X124136632Y-97038475D01*
X124343475Y-96831632D01*
X124505990Y-96588411D01*
X124617932Y-96318158D01*
X124675000Y-96031260D01*
X124675000Y-95738740D01*
X124617932Y-95451842D01*
X124505990Y-95181589D01*
X124460554Y-95113589D01*
X128335000Y-95113589D01*
X128335000Y-95386411D01*
X128388225Y-95653989D01*
X128492629Y-95906043D01*
X128644201Y-96132886D01*
X128837114Y-96325799D01*
X129063957Y-96477371D01*
X129316011Y-96581775D01*
X129583589Y-96635000D01*
X129856411Y-96635000D01*
X130123989Y-96581775D01*
X130376043Y-96477371D01*
X130602886Y-96325799D01*
X130795799Y-96132886D01*
X130947371Y-95906043D01*
X131051775Y-95653989D01*
X131105000Y-95386411D01*
X131105000Y-95113589D01*
X133235000Y-95113589D01*
X133235000Y-95386411D01*
X133288225Y-95653989D01*
X133392629Y-95906043D01*
X133544201Y-96132886D01*
X133737114Y-96325799D01*
X133963957Y-96477371D01*
X134216011Y-96581775D01*
X134483589Y-96635000D01*
X134756411Y-96635000D01*
X135023989Y-96581775D01*
X135276043Y-96477371D01*
X135502886Y-96325799D01*
X135695799Y-96132886D01*
X135847371Y-95906043D01*
X135951775Y-95653989D01*
X136005000Y-95386411D01*
X136005000Y-95113589D01*
X135996184Y-95069268D01*
X153105000Y-95069268D01*
X153105000Y-95430732D01*
X153175518Y-95785250D01*
X153313844Y-96119199D01*
X153514662Y-96419744D01*
X153770256Y-96675338D01*
X154070801Y-96876156D01*
X154404750Y-97014482D01*
X154759268Y-97085000D01*
X155120732Y-97085000D01*
X155475250Y-97014482D01*
X155809199Y-96876156D01*
X156109744Y-96675338D01*
X156365338Y-96419744D01*
X156566156Y-96119199D01*
X156704482Y-95785250D01*
X156775000Y-95430732D01*
X156775000Y-95069268D01*
X165805000Y-95069268D01*
X165805000Y-95430732D01*
X165875518Y-95785250D01*
X166013844Y-96119199D01*
X166214662Y-96419744D01*
X166470256Y-96675338D01*
X166770801Y-96876156D01*
X167104750Y-97014482D01*
X167459268Y-97085000D01*
X167820732Y-97085000D01*
X168175250Y-97014482D01*
X168509199Y-96876156D01*
X168809744Y-96675338D01*
X169065338Y-96419744D01*
X169266156Y-96119199D01*
X169404482Y-95785250D01*
X169475000Y-95430732D01*
X169475000Y-95069268D01*
X169404482Y-94714750D01*
X169266156Y-94380801D01*
X169065338Y-94080256D01*
X168809744Y-93824662D01*
X168509199Y-93623844D01*
X168175250Y-93485518D01*
X167820732Y-93415000D01*
X167459268Y-93415000D01*
X167104750Y-93485518D01*
X166770801Y-93623844D01*
X166470256Y-93824662D01*
X166214662Y-94080256D01*
X166013844Y-94380801D01*
X165875518Y-94714750D01*
X165805000Y-95069268D01*
X156775000Y-95069268D01*
X156704482Y-94714750D01*
X156566156Y-94380801D01*
X156365338Y-94080256D01*
X156109744Y-93824662D01*
X155809199Y-93623844D01*
X155475250Y-93485518D01*
X155120732Y-93415000D01*
X154759268Y-93415000D01*
X154404750Y-93485518D01*
X154070801Y-93623844D01*
X153770256Y-93824662D01*
X153514662Y-94080256D01*
X153313844Y-94380801D01*
X153175518Y-94714750D01*
X153105000Y-95069268D01*
X135996184Y-95069268D01*
X135951775Y-94846011D01*
X135847371Y-94593957D01*
X135695799Y-94367114D01*
X135502886Y-94174201D01*
X135276043Y-94022629D01*
X135023989Y-93918225D01*
X134756411Y-93865000D01*
X134483589Y-93865000D01*
X134216011Y-93918225D01*
X133963957Y-94022629D01*
X133737114Y-94174201D01*
X133544201Y-94367114D01*
X133392629Y-94593957D01*
X133288225Y-94846011D01*
X133235000Y-95113589D01*
X131105000Y-95113589D01*
X131051775Y-94846011D01*
X130947371Y-94593957D01*
X130795799Y-94367114D01*
X130602886Y-94174201D01*
X130376043Y-94022629D01*
X130123989Y-93918225D01*
X129856411Y-93865000D01*
X129583589Y-93865000D01*
X129316011Y-93918225D01*
X129063957Y-94022629D01*
X128837114Y-94174201D01*
X128644201Y-94367114D01*
X128492629Y-94593957D01*
X128388225Y-94846011D01*
X128335000Y-95113589D01*
X124460554Y-95113589D01*
X124343475Y-94938368D01*
X124211620Y-94806513D01*
X124284180Y-94784502D01*
X124394494Y-94725537D01*
X124491185Y-94646185D01*
X124570537Y-94549494D01*
X124629502Y-94439180D01*
X124665812Y-94319482D01*
X124678072Y-94195000D01*
X124678072Y-92529268D01*
X140405000Y-92529268D01*
X140405000Y-92890732D01*
X140475518Y-93245250D01*
X140613844Y-93579199D01*
X140814662Y-93879744D01*
X141070256Y-94135338D01*
X141370801Y-94336156D01*
X141704750Y-94474482D01*
X142059268Y-94545000D01*
X142420732Y-94545000D01*
X142775250Y-94474482D01*
X143109199Y-94336156D01*
X143409744Y-94135338D01*
X143665338Y-93879744D01*
X143866156Y-93579199D01*
X144004482Y-93245250D01*
X144075000Y-92890732D01*
X144075000Y-92529268D01*
X146755000Y-92529268D01*
X146755000Y-92890732D01*
X146825518Y-93245250D01*
X146963844Y-93579199D01*
X147164662Y-93879744D01*
X147420256Y-94135338D01*
X147720801Y-94336156D01*
X148054750Y-94474482D01*
X148409268Y-94545000D01*
X148770732Y-94545000D01*
X149125250Y-94474482D01*
X149459199Y-94336156D01*
X149759744Y-94135338D01*
X150015338Y-93879744D01*
X150216156Y-93579199D01*
X150354482Y-93245250D01*
X150425000Y-92890732D01*
X150425000Y-92529268D01*
X150354482Y-92174750D01*
X150216156Y-91840801D01*
X150015338Y-91540256D01*
X149759744Y-91284662D01*
X149459199Y-91083844D01*
X149125250Y-90945518D01*
X148770732Y-90875000D01*
X148409268Y-90875000D01*
X148054750Y-90945518D01*
X147720801Y-91083844D01*
X147420256Y-91284662D01*
X147164662Y-91540256D01*
X146963844Y-91840801D01*
X146825518Y-92174750D01*
X146755000Y-92529268D01*
X144075000Y-92529268D01*
X144004482Y-92174750D01*
X143866156Y-91840801D01*
X143665338Y-91540256D01*
X143409744Y-91284662D01*
X143109199Y-91083844D01*
X142775250Y-90945518D01*
X142420732Y-90875000D01*
X142059268Y-90875000D01*
X141704750Y-90945518D01*
X141370801Y-91083844D01*
X141070256Y-91284662D01*
X140814662Y-91540256D01*
X140613844Y-91840801D01*
X140475518Y-92174750D01*
X140405000Y-92529268D01*
X124678072Y-92529268D01*
X124678072Y-92495000D01*
X124665812Y-92370518D01*
X124629502Y-92250820D01*
X124570537Y-92140506D01*
X124491185Y-92043815D01*
X124394494Y-91964463D01*
X124284180Y-91905498D01*
X124164482Y-91869188D01*
X124040000Y-91856928D01*
X122340000Y-91856928D01*
X122215518Y-91869188D01*
X122095820Y-91905498D01*
X121985506Y-91964463D01*
X121888815Y-92043815D01*
X121809463Y-92140506D01*
X121750498Y-92250820D01*
X121714188Y-92370518D01*
X121701928Y-92495000D01*
X114110454Y-92495000D01*
X113899199Y-92353844D01*
X113565250Y-92215518D01*
X113210732Y-92145000D01*
X112849268Y-92145000D01*
X112494750Y-92215518D01*
X112160801Y-92353844D01*
X111860256Y-92554662D01*
X111604662Y-92810256D01*
X111403844Y-93110801D01*
X111265518Y-93444750D01*
X111195000Y-93799268D01*
X109188072Y-93799268D01*
X109188072Y-93380000D01*
X109175812Y-93255518D01*
X109139502Y-93135820D01*
X109080537Y-93025506D01*
X109001185Y-92928815D01*
X108904494Y-92849463D01*
X108794180Y-92790498D01*
X108674482Y-92754188D01*
X108550000Y-92741928D01*
X107350000Y-92741928D01*
X107225518Y-92754188D01*
X107105820Y-92790498D01*
X106995506Y-92849463D01*
X106898815Y-92928815D01*
X106819463Y-93025506D01*
X106795142Y-93071006D01*
X106737264Y-93013128D01*
X106620158Y-93130234D01*
X106572852Y-92906652D01*
X106351484Y-92805763D01*
X106114687Y-92750000D01*
X105871562Y-92741505D01*
X105631451Y-92780605D01*
X105403582Y-92865798D01*
X105327148Y-92906652D01*
X105279841Y-93130236D01*
X90195000Y-93130236D01*
X90195000Y-87073438D01*
X104711505Y-87073438D01*
X104750605Y-87313549D01*
X104835798Y-87541418D01*
X104876652Y-87617852D01*
X105100236Y-87665159D01*
X105770395Y-86995000D01*
X105100236Y-86324841D01*
X104876652Y-86372148D01*
X104775763Y-86593516D01*
X104720000Y-86830313D01*
X104711505Y-87073438D01*
X90195000Y-87073438D01*
X90195000Y-86145236D01*
X105279841Y-86145236D01*
X105950000Y-86815395D01*
X105964143Y-86801253D01*
X106143748Y-86980858D01*
X106129605Y-86995000D01*
X106143748Y-87009143D01*
X105964143Y-87188748D01*
X105950000Y-87174605D01*
X105279841Y-87844764D01*
X105327148Y-88068348D01*
X105548516Y-88169237D01*
X105785313Y-88225000D01*
X106028438Y-88233495D01*
X106268549Y-88194395D01*
X106496418Y-88109202D01*
X106572852Y-88068348D01*
X106620158Y-87844766D01*
X106737264Y-87961872D01*
X106795142Y-87903994D01*
X106819463Y-87949494D01*
X106898815Y-88046185D01*
X106995506Y-88125537D01*
X107105820Y-88184502D01*
X107225518Y-88220812D01*
X107350000Y-88233072D01*
X108550000Y-88233072D01*
X108674482Y-88220812D01*
X108794180Y-88184502D01*
X108904494Y-88125537D01*
X108935611Y-88100000D01*
X117306928Y-88100000D01*
X117306928Y-89700000D01*
X117319188Y-89824482D01*
X117355498Y-89944180D01*
X117414463Y-90054494D01*
X117493815Y-90151185D01*
X117590506Y-90230537D01*
X117700820Y-90289502D01*
X117820518Y-90325812D01*
X117945000Y-90338072D01*
X119545000Y-90338072D01*
X119669482Y-90325812D01*
X119789180Y-90289502D01*
X119899494Y-90230537D01*
X119996185Y-90151185D01*
X120075537Y-90054494D01*
X120134502Y-89944180D01*
X120170812Y-89824482D01*
X120171643Y-89816039D01*
X120370241Y-90014637D01*
X120605273Y-90171680D01*
X120866426Y-90279853D01*
X121143665Y-90335000D01*
X121426335Y-90335000D01*
X121703574Y-90279853D01*
X121964727Y-90171680D01*
X122199759Y-90014637D01*
X122399637Y-89814759D01*
X122555000Y-89582241D01*
X122710363Y-89814759D01*
X122910241Y-90014637D01*
X123145273Y-90171680D01*
X123406426Y-90279853D01*
X123683665Y-90335000D01*
X123966335Y-90335000D01*
X124243574Y-90279853D01*
X124504727Y-90171680D01*
X124739759Y-90014637D01*
X124939637Y-89814759D01*
X125095000Y-89582241D01*
X125250363Y-89814759D01*
X125450241Y-90014637D01*
X125685273Y-90171680D01*
X125946426Y-90279853D01*
X126223665Y-90335000D01*
X126506335Y-90335000D01*
X126783574Y-90279853D01*
X127044727Y-90171680D01*
X127279759Y-90014637D01*
X127479637Y-89814759D01*
X127635000Y-89582241D01*
X127790363Y-89814759D01*
X127990241Y-90014637D01*
X128225273Y-90171680D01*
X128486426Y-90279853D01*
X128763665Y-90335000D01*
X129046335Y-90335000D01*
X129323574Y-90279853D01*
X129584727Y-90171680D01*
X129819759Y-90014637D01*
X130019637Y-89814759D01*
X130175000Y-89582241D01*
X130330363Y-89814759D01*
X130530241Y-90014637D01*
X130765273Y-90171680D01*
X131026426Y-90279853D01*
X131303665Y-90335000D01*
X131586335Y-90335000D01*
X131863574Y-90279853D01*
X132124727Y-90171680D01*
X132359759Y-90014637D01*
X132559637Y-89814759D01*
X132715000Y-89582241D01*
X132870363Y-89814759D01*
X133070241Y-90014637D01*
X133305273Y-90171680D01*
X133566426Y-90279853D01*
X133843665Y-90335000D01*
X134126335Y-90335000D01*
X134403574Y-90279853D01*
X134664727Y-90171680D01*
X134899759Y-90014637D01*
X135099637Y-89814759D01*
X135255000Y-89582241D01*
X135410363Y-89814759D01*
X135610241Y-90014637D01*
X135845273Y-90171680D01*
X136106426Y-90279853D01*
X136383665Y-90335000D01*
X136666335Y-90335000D01*
X136943574Y-90279853D01*
X137204727Y-90171680D01*
X137439759Y-90014637D01*
X137639637Y-89814759D01*
X137795000Y-89582241D01*
X137950363Y-89814759D01*
X138150241Y-90014637D01*
X138385273Y-90171680D01*
X138646426Y-90279853D01*
X138923665Y-90335000D01*
X139206335Y-90335000D01*
X139483574Y-90279853D01*
X139744727Y-90171680D01*
X139979759Y-90014637D01*
X140179637Y-89814759D01*
X140336680Y-89579727D01*
X140341067Y-89569135D01*
X140452615Y-89755131D01*
X140641586Y-89963519D01*
X140867580Y-90131037D01*
X141121913Y-90251246D01*
X141255961Y-90291904D01*
X141478000Y-90169915D01*
X141478000Y-89027000D01*
X141732000Y-89027000D01*
X141732000Y-90169915D01*
X141954039Y-90291904D01*
X142088087Y-90251246D01*
X142342420Y-90131037D01*
X142568414Y-89963519D01*
X142757385Y-89755131D01*
X142902070Y-89513881D01*
X142996909Y-89249040D01*
X142875624Y-89027000D01*
X141732000Y-89027000D01*
X141478000Y-89027000D01*
X141458000Y-89027000D01*
X141458000Y-88773000D01*
X141478000Y-88773000D01*
X141478000Y-87630085D01*
X141732000Y-87630085D01*
X141732000Y-88773000D01*
X142875624Y-88773000D01*
X142904974Y-88719268D01*
X153105000Y-88719268D01*
X153105000Y-89080732D01*
X153175518Y-89435250D01*
X153313844Y-89769199D01*
X153514662Y-90069744D01*
X153770256Y-90325338D01*
X154070801Y-90526156D01*
X154404750Y-90664482D01*
X154759268Y-90735000D01*
X155120732Y-90735000D01*
X155475250Y-90664482D01*
X155809199Y-90526156D01*
X156109744Y-90325338D01*
X156365338Y-90069744D01*
X156566156Y-89769199D01*
X156704482Y-89435250D01*
X156775000Y-89080732D01*
X156775000Y-88719268D01*
X165805000Y-88719268D01*
X165805000Y-89080732D01*
X165875518Y-89435250D01*
X166013844Y-89769199D01*
X166214662Y-90069744D01*
X166470256Y-90325338D01*
X166770801Y-90526156D01*
X167104750Y-90664482D01*
X167459268Y-90735000D01*
X167820732Y-90735000D01*
X168175250Y-90664482D01*
X168509199Y-90526156D01*
X168809744Y-90325338D01*
X169065338Y-90069744D01*
X169266156Y-89769199D01*
X169404482Y-89435250D01*
X169475000Y-89080732D01*
X169475000Y-88719268D01*
X169404482Y-88364750D01*
X169266156Y-88030801D01*
X169065338Y-87730256D01*
X168809744Y-87474662D01*
X168509199Y-87273844D01*
X168175250Y-87135518D01*
X167820732Y-87065000D01*
X167459268Y-87065000D01*
X167104750Y-87135518D01*
X166770801Y-87273844D01*
X166470256Y-87474662D01*
X166214662Y-87730256D01*
X166013844Y-88030801D01*
X165875518Y-88364750D01*
X165805000Y-88719268D01*
X156775000Y-88719268D01*
X156704482Y-88364750D01*
X156566156Y-88030801D01*
X156365338Y-87730256D01*
X156109744Y-87474662D01*
X155809199Y-87273844D01*
X155475250Y-87135518D01*
X155120732Y-87065000D01*
X154759268Y-87065000D01*
X154404750Y-87135518D01*
X154070801Y-87273844D01*
X153770256Y-87474662D01*
X153514662Y-87730256D01*
X153313844Y-88030801D01*
X153175518Y-88364750D01*
X153105000Y-88719268D01*
X142904974Y-88719268D01*
X142996909Y-88550960D01*
X142902070Y-88286119D01*
X142757385Y-88044869D01*
X142568414Y-87836481D01*
X142342420Y-87668963D01*
X142088087Y-87548754D01*
X141954039Y-87508096D01*
X141732000Y-87630085D01*
X141478000Y-87630085D01*
X141255961Y-87508096D01*
X141121913Y-87548754D01*
X140867580Y-87668963D01*
X140641586Y-87836481D01*
X140452615Y-88044869D01*
X140341067Y-88230865D01*
X140336680Y-88220273D01*
X140179637Y-87985241D01*
X139979759Y-87785363D01*
X139744727Y-87628320D01*
X139483574Y-87520147D01*
X139206335Y-87465000D01*
X138923665Y-87465000D01*
X138646426Y-87520147D01*
X138385273Y-87628320D01*
X138150241Y-87785363D01*
X137950363Y-87985241D01*
X137795000Y-88217759D01*
X137639637Y-87985241D01*
X137439759Y-87785363D01*
X137204727Y-87628320D01*
X136943574Y-87520147D01*
X136666335Y-87465000D01*
X136383665Y-87465000D01*
X136106426Y-87520147D01*
X135845273Y-87628320D01*
X135610241Y-87785363D01*
X135410363Y-87985241D01*
X135255000Y-88217759D01*
X135099637Y-87985241D01*
X134899759Y-87785363D01*
X134664727Y-87628320D01*
X134403574Y-87520147D01*
X134126335Y-87465000D01*
X133843665Y-87465000D01*
X133566426Y-87520147D01*
X133305273Y-87628320D01*
X133070241Y-87785363D01*
X132870363Y-87985241D01*
X132715000Y-88217759D01*
X132559637Y-87985241D01*
X132359759Y-87785363D01*
X132124727Y-87628320D01*
X131863574Y-87520147D01*
X131586335Y-87465000D01*
X131303665Y-87465000D01*
X131026426Y-87520147D01*
X130765273Y-87628320D01*
X130530241Y-87785363D01*
X130330363Y-87985241D01*
X130175000Y-88217759D01*
X130019637Y-87985241D01*
X129819759Y-87785363D01*
X129584727Y-87628320D01*
X129323574Y-87520147D01*
X129046335Y-87465000D01*
X128763665Y-87465000D01*
X128486426Y-87520147D01*
X128225273Y-87628320D01*
X127990241Y-87785363D01*
X127790363Y-87985241D01*
X127635000Y-88217759D01*
X127479637Y-87985241D01*
X127279759Y-87785363D01*
X127044727Y-87628320D01*
X126783574Y-87520147D01*
X126506335Y-87465000D01*
X126223665Y-87465000D01*
X125946426Y-87520147D01*
X125685273Y-87628320D01*
X125450241Y-87785363D01*
X125250363Y-87985241D01*
X125095000Y-88217759D01*
X124939637Y-87985241D01*
X124739759Y-87785363D01*
X124504727Y-87628320D01*
X124243574Y-87520147D01*
X123966335Y-87465000D01*
X123683665Y-87465000D01*
X123406426Y-87520147D01*
X123145273Y-87628320D01*
X122910241Y-87785363D01*
X122710363Y-87985241D01*
X122555000Y-88217759D01*
X122399637Y-87985241D01*
X122199759Y-87785363D01*
X121964727Y-87628320D01*
X121703574Y-87520147D01*
X121426335Y-87465000D01*
X121143665Y-87465000D01*
X120866426Y-87520147D01*
X120605273Y-87628320D01*
X120370241Y-87785363D01*
X120171643Y-87983961D01*
X120170812Y-87975518D01*
X120134502Y-87855820D01*
X120075537Y-87745506D01*
X119996185Y-87648815D01*
X119899494Y-87569463D01*
X119789180Y-87510498D01*
X119669482Y-87474188D01*
X119545000Y-87461928D01*
X117945000Y-87461928D01*
X117820518Y-87474188D01*
X117700820Y-87510498D01*
X117590506Y-87569463D01*
X117493815Y-87648815D01*
X117414463Y-87745506D01*
X117355498Y-87855820D01*
X117319188Y-87975518D01*
X117306928Y-88100000D01*
X108935611Y-88100000D01*
X109001185Y-88046185D01*
X109080537Y-87949494D01*
X109139502Y-87839180D01*
X109175812Y-87719482D01*
X109188072Y-87595000D01*
X109188072Y-86395000D01*
X109175812Y-86270518D01*
X109139502Y-86150820D01*
X109080537Y-86040506D01*
X109001185Y-85943815D01*
X108904494Y-85864463D01*
X108794180Y-85805498D01*
X108674482Y-85769188D01*
X108550000Y-85756928D01*
X107350000Y-85756928D01*
X107225518Y-85769188D01*
X107105820Y-85805498D01*
X106995506Y-85864463D01*
X106898815Y-85943815D01*
X106819463Y-86040506D01*
X106795142Y-86086006D01*
X106737264Y-86028128D01*
X106620158Y-86145234D01*
X106572852Y-85921652D01*
X106351484Y-85820763D01*
X106114687Y-85765000D01*
X105871562Y-85756505D01*
X105631451Y-85795605D01*
X105403582Y-85880798D01*
X105327148Y-85921652D01*
X105279841Y-86145236D01*
X90195000Y-86145236D01*
X90195000Y-81099268D01*
X111195000Y-81099268D01*
X111195000Y-81460732D01*
X111265518Y-81815250D01*
X111403844Y-82149199D01*
X111604662Y-82449744D01*
X111860256Y-82705338D01*
X112160801Y-82906156D01*
X112494750Y-83044482D01*
X112849268Y-83115000D01*
X113210732Y-83115000D01*
X113565250Y-83044482D01*
X113899199Y-82906156D01*
X114199744Y-82705338D01*
X114455338Y-82449744D01*
X114656156Y-82149199D01*
X114794482Y-81815250D01*
X114865000Y-81460732D01*
X114865000Y-81138665D01*
X117310000Y-81138665D01*
X117310000Y-81421335D01*
X117365147Y-81698574D01*
X117473320Y-81959727D01*
X117630363Y-82194759D01*
X117830241Y-82394637D01*
X118065273Y-82551680D01*
X118326426Y-82659853D01*
X118603665Y-82715000D01*
X118886335Y-82715000D01*
X119163574Y-82659853D01*
X119424727Y-82551680D01*
X119659759Y-82394637D01*
X119859637Y-82194759D01*
X120015000Y-81962241D01*
X120170363Y-82194759D01*
X120370241Y-82394637D01*
X120605273Y-82551680D01*
X120866426Y-82659853D01*
X121143665Y-82715000D01*
X121426335Y-82715000D01*
X121703574Y-82659853D01*
X121964727Y-82551680D01*
X122199759Y-82394637D01*
X122399637Y-82194759D01*
X122555000Y-81962241D01*
X122710363Y-82194759D01*
X122910241Y-82394637D01*
X123145273Y-82551680D01*
X123406426Y-82659853D01*
X123683665Y-82715000D01*
X123966335Y-82715000D01*
X124243574Y-82659853D01*
X124504727Y-82551680D01*
X124739759Y-82394637D01*
X124939637Y-82194759D01*
X125095000Y-81962241D01*
X125250363Y-82194759D01*
X125450241Y-82394637D01*
X125685273Y-82551680D01*
X125946426Y-82659853D01*
X126223665Y-82715000D01*
X126506335Y-82715000D01*
X126783574Y-82659853D01*
X127044727Y-82551680D01*
X127279759Y-82394637D01*
X127479637Y-82194759D01*
X127635000Y-81962241D01*
X127790363Y-82194759D01*
X127990241Y-82394637D01*
X128225273Y-82551680D01*
X128486426Y-82659853D01*
X128763665Y-82715000D01*
X129046335Y-82715000D01*
X129323574Y-82659853D01*
X129584727Y-82551680D01*
X129819759Y-82394637D01*
X130019637Y-82194759D01*
X130175000Y-81962241D01*
X130330363Y-82194759D01*
X130530241Y-82394637D01*
X130765273Y-82551680D01*
X131026426Y-82659853D01*
X131303665Y-82715000D01*
X131586335Y-82715000D01*
X131863574Y-82659853D01*
X132124727Y-82551680D01*
X132359759Y-82394637D01*
X132559637Y-82194759D01*
X132715000Y-81962241D01*
X132870363Y-82194759D01*
X133070241Y-82394637D01*
X133305273Y-82551680D01*
X133566426Y-82659853D01*
X133843665Y-82715000D01*
X134126335Y-82715000D01*
X134403574Y-82659853D01*
X134664727Y-82551680D01*
X134899759Y-82394637D01*
X135099637Y-82194759D01*
X135255000Y-81962241D01*
X135410363Y-82194759D01*
X135610241Y-82394637D01*
X135845273Y-82551680D01*
X136106426Y-82659853D01*
X136383665Y-82715000D01*
X136666335Y-82715000D01*
X136943574Y-82659853D01*
X137204727Y-82551680D01*
X137439759Y-82394637D01*
X137639637Y-82194759D01*
X137795000Y-81962241D01*
X137950363Y-82194759D01*
X138150241Y-82394637D01*
X138385273Y-82551680D01*
X138646426Y-82659853D01*
X138923665Y-82715000D01*
X139206335Y-82715000D01*
X139483574Y-82659853D01*
X139744727Y-82551680D01*
X139979759Y-82394637D01*
X140179637Y-82194759D01*
X140335000Y-81962241D01*
X140490363Y-82194759D01*
X140690241Y-82394637D01*
X140925273Y-82551680D01*
X141186426Y-82659853D01*
X141463665Y-82715000D01*
X141746335Y-82715000D01*
X142023574Y-82659853D01*
X142284727Y-82551680D01*
X142519759Y-82394637D01*
X142719637Y-82194759D01*
X142876680Y-81959727D01*
X142984853Y-81698574D01*
X143040000Y-81421335D01*
X143040000Y-81138665D01*
X142984853Y-80861426D01*
X142876680Y-80600273D01*
X142762908Y-80430000D01*
X146466928Y-80430000D01*
X146466928Y-82130000D01*
X146479188Y-82254482D01*
X146515498Y-82374180D01*
X146574463Y-82484494D01*
X146653815Y-82581185D01*
X146750506Y-82660537D01*
X146860820Y-82719502D01*
X146933380Y-82741513D01*
X146801525Y-82873368D01*
X146639010Y-83116589D01*
X146527068Y-83386842D01*
X146470000Y-83673740D01*
X146470000Y-83966260D01*
X146527068Y-84253158D01*
X146639010Y-84523411D01*
X146801525Y-84766632D01*
X147008368Y-84973475D01*
X147182760Y-85090000D01*
X147008368Y-85206525D01*
X146801525Y-85413368D01*
X146639010Y-85656589D01*
X146527068Y-85926842D01*
X146470000Y-86213740D01*
X146470000Y-86506260D01*
X146527068Y-86793158D01*
X146639010Y-87063411D01*
X146801525Y-87306632D01*
X147008368Y-87513475D01*
X147251589Y-87675990D01*
X147521842Y-87787932D01*
X147808740Y-87845000D01*
X148101260Y-87845000D01*
X148388158Y-87787932D01*
X148658411Y-87675990D01*
X148901632Y-87513475D01*
X149108475Y-87306632D01*
X149226100Y-87130594D01*
X149397412Y-87360269D01*
X149613645Y-87555178D01*
X149863748Y-87704157D01*
X150138109Y-87801481D01*
X150368000Y-87680814D01*
X150368000Y-86487000D01*
X150622000Y-86487000D01*
X150622000Y-87680814D01*
X150851891Y-87801481D01*
X151126252Y-87704157D01*
X151376355Y-87555178D01*
X151592588Y-87360269D01*
X151766641Y-87126920D01*
X151891825Y-86864099D01*
X151936476Y-86716890D01*
X151815155Y-86487000D01*
X150622000Y-86487000D01*
X150368000Y-86487000D01*
X150348000Y-86487000D01*
X150348000Y-86233000D01*
X150368000Y-86233000D01*
X150368000Y-86213000D01*
X150622000Y-86213000D01*
X150622000Y-86233000D01*
X151815155Y-86233000D01*
X151936476Y-86003110D01*
X151891825Y-85855901D01*
X151766641Y-85593080D01*
X151592588Y-85359731D01*
X151376355Y-85164822D01*
X151259466Y-85095195D01*
X151441632Y-84973475D01*
X151648475Y-84766632D01*
X151810990Y-84523411D01*
X151922932Y-84253158D01*
X151980000Y-83966260D01*
X151980000Y-83673740D01*
X151922932Y-83386842D01*
X151810990Y-83116589D01*
X151648475Y-82873368D01*
X151441632Y-82666525D01*
X151267240Y-82550000D01*
X151441632Y-82433475D01*
X151505839Y-82369268D01*
X153105000Y-82369268D01*
X153105000Y-82730732D01*
X153175518Y-83085250D01*
X153313844Y-83419199D01*
X153514662Y-83719744D01*
X153770256Y-83975338D01*
X154070801Y-84176156D01*
X154404750Y-84314482D01*
X154759268Y-84385000D01*
X155120732Y-84385000D01*
X155475250Y-84314482D01*
X155809199Y-84176156D01*
X156109744Y-83975338D01*
X156365338Y-83719744D01*
X156566156Y-83419199D01*
X156704482Y-83085250D01*
X156775000Y-82730732D01*
X156775000Y-82369268D01*
X165805000Y-82369268D01*
X165805000Y-82730732D01*
X165875518Y-83085250D01*
X166013844Y-83419199D01*
X166214662Y-83719744D01*
X166470256Y-83975338D01*
X166770801Y-84176156D01*
X167104750Y-84314482D01*
X167459268Y-84385000D01*
X167820732Y-84385000D01*
X168175250Y-84314482D01*
X168509199Y-84176156D01*
X168809744Y-83975338D01*
X169065338Y-83719744D01*
X169266156Y-83419199D01*
X169404482Y-83085250D01*
X169475000Y-82730732D01*
X169475000Y-82369268D01*
X169404482Y-82014750D01*
X169266156Y-81680801D01*
X169065338Y-81380256D01*
X168809744Y-81124662D01*
X168509199Y-80923844D01*
X168175250Y-80785518D01*
X167820732Y-80715000D01*
X167459268Y-80715000D01*
X167104750Y-80785518D01*
X166770801Y-80923844D01*
X166470256Y-81124662D01*
X166214662Y-81380256D01*
X166013844Y-81680801D01*
X165875518Y-82014750D01*
X165805000Y-82369268D01*
X156775000Y-82369268D01*
X156704482Y-82014750D01*
X156566156Y-81680801D01*
X156365338Y-81380256D01*
X156109744Y-81124662D01*
X155809199Y-80923844D01*
X155475250Y-80785518D01*
X155120732Y-80715000D01*
X154759268Y-80715000D01*
X154404750Y-80785518D01*
X154070801Y-80923844D01*
X153770256Y-81124662D01*
X153514662Y-81380256D01*
X153313844Y-81680801D01*
X153175518Y-82014750D01*
X153105000Y-82369268D01*
X151505839Y-82369268D01*
X151648475Y-82226632D01*
X151810990Y-81983411D01*
X151922932Y-81713158D01*
X151980000Y-81426260D01*
X151980000Y-81133740D01*
X151922932Y-80846842D01*
X151810990Y-80576589D01*
X151648475Y-80333368D01*
X151441632Y-80126525D01*
X151198411Y-79964010D01*
X150928158Y-79852068D01*
X150641260Y-79795000D01*
X150348740Y-79795000D01*
X150061842Y-79852068D01*
X149791589Y-79964010D01*
X149548368Y-80126525D01*
X149416513Y-80258380D01*
X149394502Y-80185820D01*
X149335537Y-80075506D01*
X149256185Y-79978815D01*
X149159494Y-79899463D01*
X149049180Y-79840498D01*
X148929482Y-79804188D01*
X148805000Y-79791928D01*
X147105000Y-79791928D01*
X146980518Y-79804188D01*
X146860820Y-79840498D01*
X146750506Y-79899463D01*
X146653815Y-79978815D01*
X146574463Y-80075506D01*
X146515498Y-80185820D01*
X146479188Y-80305518D01*
X146466928Y-80430000D01*
X142762908Y-80430000D01*
X142719637Y-80365241D01*
X142519759Y-80165363D01*
X142284727Y-80008320D01*
X142023574Y-79900147D01*
X141746335Y-79845000D01*
X141463665Y-79845000D01*
X141186426Y-79900147D01*
X140925273Y-80008320D01*
X140690241Y-80165363D01*
X140490363Y-80365241D01*
X140335000Y-80597759D01*
X140179637Y-80365241D01*
X139979759Y-80165363D01*
X139744727Y-80008320D01*
X139483574Y-79900147D01*
X139206335Y-79845000D01*
X138923665Y-79845000D01*
X138646426Y-79900147D01*
X138385273Y-80008320D01*
X138150241Y-80165363D01*
X137950363Y-80365241D01*
X137795000Y-80597759D01*
X137639637Y-80365241D01*
X137439759Y-80165363D01*
X137204727Y-80008320D01*
X136943574Y-79900147D01*
X136666335Y-79845000D01*
X136383665Y-79845000D01*
X136106426Y-79900147D01*
X135845273Y-80008320D01*
X135610241Y-80165363D01*
X135410363Y-80365241D01*
X135255000Y-80597759D01*
X135099637Y-80365241D01*
X134899759Y-80165363D01*
X134664727Y-80008320D01*
X134403574Y-79900147D01*
X134126335Y-79845000D01*
X133843665Y-79845000D01*
X133566426Y-79900147D01*
X133305273Y-80008320D01*
X133070241Y-80165363D01*
X132870363Y-80365241D01*
X132715000Y-80597759D01*
X132559637Y-80365241D01*
X132359759Y-80165363D01*
X132124727Y-80008320D01*
X131863574Y-79900147D01*
X131586335Y-79845000D01*
X131303665Y-79845000D01*
X131026426Y-79900147D01*
X130765273Y-80008320D01*
X130530241Y-80165363D01*
X130330363Y-80365241D01*
X130175000Y-80597759D01*
X130019637Y-80365241D01*
X129819759Y-80165363D01*
X129584727Y-80008320D01*
X129323574Y-79900147D01*
X129046335Y-79845000D01*
X128763665Y-79845000D01*
X128486426Y-79900147D01*
X128225273Y-80008320D01*
X127990241Y-80165363D01*
X127790363Y-80365241D01*
X127635000Y-80597759D01*
X127479637Y-80365241D01*
X127279759Y-80165363D01*
X127044727Y-80008320D01*
X126783574Y-79900147D01*
X126506335Y-79845000D01*
X126223665Y-79845000D01*
X125946426Y-79900147D01*
X125685273Y-80008320D01*
X125450241Y-80165363D01*
X125250363Y-80365241D01*
X125095000Y-80597759D01*
X124939637Y-80365241D01*
X124739759Y-80165363D01*
X124504727Y-80008320D01*
X124243574Y-79900147D01*
X123966335Y-79845000D01*
X123683665Y-79845000D01*
X123406426Y-79900147D01*
X123145273Y-80008320D01*
X122910241Y-80165363D01*
X122710363Y-80365241D01*
X122555000Y-80597759D01*
X122399637Y-80365241D01*
X122199759Y-80165363D01*
X121964727Y-80008320D01*
X121703574Y-79900147D01*
X121426335Y-79845000D01*
X121143665Y-79845000D01*
X120866426Y-79900147D01*
X120605273Y-80008320D01*
X120370241Y-80165363D01*
X120170363Y-80365241D01*
X120015000Y-80597759D01*
X119859637Y-80365241D01*
X119659759Y-80165363D01*
X119424727Y-80008320D01*
X119163574Y-79900147D01*
X118886335Y-79845000D01*
X118603665Y-79845000D01*
X118326426Y-79900147D01*
X118065273Y-80008320D01*
X117830241Y-80165363D01*
X117630363Y-80365241D01*
X117473320Y-80600273D01*
X117365147Y-80861426D01*
X117310000Y-81138665D01*
X114865000Y-81138665D01*
X114865000Y-81099268D01*
X114794482Y-80744750D01*
X114656156Y-80410801D01*
X114455338Y-80110256D01*
X114199744Y-79854662D01*
X113899199Y-79653844D01*
X113565250Y-79515518D01*
X113210732Y-79445000D01*
X112849268Y-79445000D01*
X112494750Y-79515518D01*
X112160801Y-79653844D01*
X111860256Y-79854662D01*
X111604662Y-80110256D01*
X111403844Y-80410801D01*
X111265518Y-80744750D01*
X111195000Y-81099268D01*
X90195000Y-81099268D01*
X90195000Y-76014344D01*
X119845000Y-76014344D01*
X119845000Y-76385656D01*
X119917439Y-76749834D01*
X120059534Y-77092882D01*
X120265825Y-77401618D01*
X120528382Y-77664175D01*
X120837118Y-77870466D01*
X121180166Y-78012561D01*
X121544344Y-78085000D01*
X121915656Y-78085000D01*
X122279834Y-78012561D01*
X122622882Y-77870466D01*
X122931618Y-77664175D01*
X123194175Y-77401618D01*
X123400466Y-77092882D01*
X123542561Y-76749834D01*
X123615000Y-76385656D01*
X123615000Y-76014344D01*
X123805000Y-76014344D01*
X123805000Y-76385656D01*
X123877439Y-76749834D01*
X124019534Y-77092882D01*
X124225825Y-77401618D01*
X124488382Y-77664175D01*
X124797118Y-77870466D01*
X125140166Y-78012561D01*
X125504344Y-78085000D01*
X125875656Y-78085000D01*
X126239834Y-78012561D01*
X126582882Y-77870466D01*
X126891618Y-77664175D01*
X127154175Y-77401618D01*
X127360466Y-77092882D01*
X127502561Y-76749834D01*
X127575000Y-76385656D01*
X127575000Y-76014344D01*
X127765000Y-76014344D01*
X127765000Y-76385656D01*
X127837439Y-76749834D01*
X127979534Y-77092882D01*
X128185825Y-77401618D01*
X128448382Y-77664175D01*
X128757118Y-77870466D01*
X129100166Y-78012561D01*
X129464344Y-78085000D01*
X129835656Y-78085000D01*
X130199834Y-78012561D01*
X130542882Y-77870466D01*
X130851618Y-77664175D01*
X131114175Y-77401618D01*
X131320466Y-77092882D01*
X131462561Y-76749834D01*
X131535000Y-76385656D01*
X131535000Y-76014344D01*
X131725000Y-76014344D01*
X131725000Y-76385656D01*
X131797439Y-76749834D01*
X131939534Y-77092882D01*
X132145825Y-77401618D01*
X132408382Y-77664175D01*
X132717118Y-77870466D01*
X133060166Y-78012561D01*
X133424344Y-78085000D01*
X133795656Y-78085000D01*
X134159834Y-78012561D01*
X134502882Y-77870466D01*
X134811618Y-77664175D01*
X135074175Y-77401618D01*
X135280466Y-77092882D01*
X135422561Y-76749834D01*
X135495000Y-76385656D01*
X135495000Y-76014344D01*
X135685000Y-76014344D01*
X135685000Y-76385656D01*
X135757439Y-76749834D01*
X135899534Y-77092882D01*
X136105825Y-77401618D01*
X136368382Y-77664175D01*
X136677118Y-77870466D01*
X137020166Y-78012561D01*
X137384344Y-78085000D01*
X137755656Y-78085000D01*
X138119834Y-78012561D01*
X138462882Y-77870466D01*
X138771618Y-77664175D01*
X139034175Y-77401618D01*
X139240466Y-77092882D01*
X139382561Y-76749834D01*
X139455000Y-76385656D01*
X139455000Y-76014344D01*
X139645000Y-76014344D01*
X139645000Y-76385656D01*
X139717439Y-76749834D01*
X139859534Y-77092882D01*
X140065825Y-77401618D01*
X140328382Y-77664175D01*
X140637118Y-77870466D01*
X140980166Y-78012561D01*
X141344344Y-78085000D01*
X141715656Y-78085000D01*
X142079834Y-78012561D01*
X142422882Y-77870466D01*
X142731618Y-77664175D01*
X142994175Y-77401618D01*
X143200466Y-77092882D01*
X143342561Y-76749834D01*
X143415000Y-76385656D01*
X143415000Y-76014344D01*
X143605000Y-76014344D01*
X143605000Y-76385656D01*
X143677439Y-76749834D01*
X143819534Y-77092882D01*
X144025825Y-77401618D01*
X144288382Y-77664175D01*
X144597118Y-77870466D01*
X144940166Y-78012561D01*
X145304344Y-78085000D01*
X145675656Y-78085000D01*
X146039834Y-78012561D01*
X146382882Y-77870466D01*
X146691618Y-77664175D01*
X146954175Y-77401618D01*
X147160466Y-77092882D01*
X147302561Y-76749834D01*
X147375000Y-76385656D01*
X147375000Y-76014344D01*
X147565000Y-76014344D01*
X147565000Y-76385656D01*
X147637439Y-76749834D01*
X147779534Y-77092882D01*
X147985825Y-77401618D01*
X148248382Y-77664175D01*
X148557118Y-77870466D01*
X148900166Y-78012561D01*
X149264344Y-78085000D01*
X149635656Y-78085000D01*
X149999834Y-78012561D01*
X150342882Y-77870466D01*
X150651618Y-77664175D01*
X150914175Y-77401618D01*
X151120466Y-77092882D01*
X151262561Y-76749834D01*
X151335000Y-76385656D01*
X151335000Y-76014344D01*
X151525000Y-76014344D01*
X151525000Y-76385656D01*
X151597439Y-76749834D01*
X151739534Y-77092882D01*
X151945825Y-77401618D01*
X152208382Y-77664175D01*
X152517118Y-77870466D01*
X152860166Y-78012561D01*
X153224344Y-78085000D01*
X153595656Y-78085000D01*
X153959834Y-78012561D01*
X154302882Y-77870466D01*
X154611618Y-77664175D01*
X154874175Y-77401618D01*
X155080466Y-77092882D01*
X155222561Y-76749834D01*
X155295000Y-76385656D01*
X155295000Y-76014344D01*
X155485000Y-76014344D01*
X155485000Y-76385656D01*
X155557439Y-76749834D01*
X155699534Y-77092882D01*
X155905825Y-77401618D01*
X156168382Y-77664175D01*
X156477118Y-77870466D01*
X156820166Y-78012561D01*
X157184344Y-78085000D01*
X157555656Y-78085000D01*
X157919834Y-78012561D01*
X158262882Y-77870466D01*
X158571618Y-77664175D01*
X158722188Y-77513605D01*
X160196000Y-77513605D01*
X160321914Y-77803577D01*
X160654126Y-77969433D01*
X161012312Y-78067290D01*
X161382706Y-78093389D01*
X161751075Y-78046725D01*
X162103262Y-77929094D01*
X162338086Y-77803577D01*
X162464000Y-77513605D01*
X161330000Y-76379605D01*
X160196000Y-77513605D01*
X158722188Y-77513605D01*
X158834175Y-77401618D01*
X159040466Y-77092882D01*
X159182561Y-76749834D01*
X159255000Y-76385656D01*
X159255000Y-76252706D01*
X159436611Y-76252706D01*
X159483275Y-76621075D01*
X159600906Y-76973262D01*
X159726423Y-77208086D01*
X160016395Y-77334000D01*
X161150395Y-76200000D01*
X161509605Y-76200000D01*
X162643605Y-77334000D01*
X162933577Y-77208086D01*
X163099433Y-76875874D01*
X163197290Y-76517688D01*
X163223389Y-76147294D01*
X163206548Y-76014344D01*
X163405000Y-76014344D01*
X163405000Y-76385656D01*
X163477439Y-76749834D01*
X163619534Y-77092882D01*
X163825825Y-77401618D01*
X164088382Y-77664175D01*
X164397118Y-77870466D01*
X164740166Y-78012561D01*
X165104344Y-78085000D01*
X165475656Y-78085000D01*
X165839834Y-78012561D01*
X166182882Y-77870466D01*
X166491618Y-77664175D01*
X166754175Y-77401618D01*
X166960466Y-77092882D01*
X167102561Y-76749834D01*
X167175000Y-76385656D01*
X167175000Y-76014344D01*
X167102561Y-75650166D01*
X166960466Y-75307118D01*
X166754175Y-74998382D01*
X166491618Y-74735825D01*
X166182882Y-74529534D01*
X165839834Y-74387439D01*
X165475656Y-74315000D01*
X165104344Y-74315000D01*
X164740166Y-74387439D01*
X164397118Y-74529534D01*
X164088382Y-74735825D01*
X163825825Y-74998382D01*
X163619534Y-75307118D01*
X163477439Y-75650166D01*
X163405000Y-76014344D01*
X163206548Y-76014344D01*
X163176725Y-75778925D01*
X163059094Y-75426738D01*
X162933577Y-75191914D01*
X162643605Y-75066000D01*
X161509605Y-76200000D01*
X161150395Y-76200000D01*
X160016395Y-75066000D01*
X159726423Y-75191914D01*
X159560567Y-75524126D01*
X159462710Y-75882312D01*
X159436611Y-76252706D01*
X159255000Y-76252706D01*
X159255000Y-76014344D01*
X159182561Y-75650166D01*
X159040466Y-75307118D01*
X158834175Y-74998382D01*
X158722188Y-74886395D01*
X160196000Y-74886395D01*
X161330000Y-76020395D01*
X162464000Y-74886395D01*
X162338086Y-74596423D01*
X162005874Y-74430567D01*
X161647688Y-74332710D01*
X161277294Y-74306611D01*
X160908925Y-74353275D01*
X160556738Y-74470906D01*
X160321914Y-74596423D01*
X160196000Y-74886395D01*
X158722188Y-74886395D01*
X158571618Y-74735825D01*
X158262882Y-74529534D01*
X157919834Y-74387439D01*
X157555656Y-74315000D01*
X157184344Y-74315000D01*
X156820166Y-74387439D01*
X156477118Y-74529534D01*
X156168382Y-74735825D01*
X155905825Y-74998382D01*
X155699534Y-75307118D01*
X155557439Y-75650166D01*
X155485000Y-76014344D01*
X155295000Y-76014344D01*
X155222561Y-75650166D01*
X155080466Y-75307118D01*
X154874175Y-74998382D01*
X154611618Y-74735825D01*
X154302882Y-74529534D01*
X153959834Y-74387439D01*
X153595656Y-74315000D01*
X153224344Y-74315000D01*
X152860166Y-74387439D01*
X152517118Y-74529534D01*
X152208382Y-74735825D01*
X151945825Y-74998382D01*
X151739534Y-75307118D01*
X151597439Y-75650166D01*
X151525000Y-76014344D01*
X151335000Y-76014344D01*
X151262561Y-75650166D01*
X151120466Y-75307118D01*
X150914175Y-74998382D01*
X150651618Y-74735825D01*
X150342882Y-74529534D01*
X149999834Y-74387439D01*
X149635656Y-74315000D01*
X149264344Y-74315000D01*
X148900166Y-74387439D01*
X148557118Y-74529534D01*
X148248382Y-74735825D01*
X147985825Y-74998382D01*
X147779534Y-75307118D01*
X147637439Y-75650166D01*
X147565000Y-76014344D01*
X147375000Y-76014344D01*
X147302561Y-75650166D01*
X147160466Y-75307118D01*
X146954175Y-74998382D01*
X146691618Y-74735825D01*
X146382882Y-74529534D01*
X146039834Y-74387439D01*
X145675656Y-74315000D01*
X145304344Y-74315000D01*
X144940166Y-74387439D01*
X144597118Y-74529534D01*
X144288382Y-74735825D01*
X144025825Y-74998382D01*
X143819534Y-75307118D01*
X143677439Y-75650166D01*
X143605000Y-76014344D01*
X143415000Y-76014344D01*
X143342561Y-75650166D01*
X143200466Y-75307118D01*
X142994175Y-74998382D01*
X142731618Y-74735825D01*
X142422882Y-74529534D01*
X142079834Y-74387439D01*
X141715656Y-74315000D01*
X141344344Y-74315000D01*
X140980166Y-74387439D01*
X140637118Y-74529534D01*
X140328382Y-74735825D01*
X140065825Y-74998382D01*
X139859534Y-75307118D01*
X139717439Y-75650166D01*
X139645000Y-76014344D01*
X139455000Y-76014344D01*
X139382561Y-75650166D01*
X139240466Y-75307118D01*
X139034175Y-74998382D01*
X138771618Y-74735825D01*
X138462882Y-74529534D01*
X138119834Y-74387439D01*
X137755656Y-74315000D01*
X137384344Y-74315000D01*
X137020166Y-74387439D01*
X136677118Y-74529534D01*
X136368382Y-74735825D01*
X136105825Y-74998382D01*
X135899534Y-75307118D01*
X135757439Y-75650166D01*
X135685000Y-76014344D01*
X135495000Y-76014344D01*
X135422561Y-75650166D01*
X135280466Y-75307118D01*
X135074175Y-74998382D01*
X134811618Y-74735825D01*
X134502882Y-74529534D01*
X134159834Y-74387439D01*
X133795656Y-74315000D01*
X133424344Y-74315000D01*
X133060166Y-74387439D01*
X132717118Y-74529534D01*
X132408382Y-74735825D01*
X132145825Y-74998382D01*
X131939534Y-75307118D01*
X131797439Y-75650166D01*
X131725000Y-76014344D01*
X131535000Y-76014344D01*
X131462561Y-75650166D01*
X131320466Y-75307118D01*
X131114175Y-74998382D01*
X130851618Y-74735825D01*
X130542882Y-74529534D01*
X130199834Y-74387439D01*
X129835656Y-74315000D01*
X129464344Y-74315000D01*
X129100166Y-74387439D01*
X128757118Y-74529534D01*
X128448382Y-74735825D01*
X128185825Y-74998382D01*
X127979534Y-75307118D01*
X127837439Y-75650166D01*
X127765000Y-76014344D01*
X127575000Y-76014344D01*
X127502561Y-75650166D01*
X127360466Y-75307118D01*
X127154175Y-74998382D01*
X126891618Y-74735825D01*
X126582882Y-74529534D01*
X126239834Y-74387439D01*
X125875656Y-74315000D01*
X125504344Y-74315000D01*
X125140166Y-74387439D01*
X124797118Y-74529534D01*
X124488382Y-74735825D01*
X124225825Y-74998382D01*
X124019534Y-75307118D01*
X123877439Y-75650166D01*
X123805000Y-76014344D01*
X123615000Y-76014344D01*
X123542561Y-75650166D01*
X123400466Y-75307118D01*
X123194175Y-74998382D01*
X122931618Y-74735825D01*
X122622882Y-74529534D01*
X122279834Y-74387439D01*
X121915656Y-74315000D01*
X121544344Y-74315000D01*
X121180166Y-74387439D01*
X120837118Y-74529534D01*
X120528382Y-74735825D01*
X120265825Y-74998382D01*
X120059534Y-75307118D01*
X119917439Y-75650166D01*
X119845000Y-76014344D01*
X90195000Y-76014344D01*
X90195000Y-72555612D01*
X90295820Y-72609502D01*
X90415518Y-72645812D01*
X90540000Y-72658072D01*
X91154250Y-72655000D01*
X91313000Y-72496250D01*
X91313000Y-71247000D01*
X91293000Y-71247000D01*
X91293000Y-70993000D01*
X91313000Y-70993000D01*
X91313000Y-69743750D01*
X91567000Y-69743750D01*
X91567000Y-70993000D01*
X91587000Y-70993000D01*
X91587000Y-71247000D01*
X91567000Y-71247000D01*
X91567000Y-72496250D01*
X91725750Y-72655000D01*
X92340000Y-72658072D01*
X92464482Y-72645812D01*
X92584180Y-72609502D01*
X92694494Y-72550537D01*
X92791185Y-72471185D01*
X92870537Y-72374494D01*
X92929502Y-72264180D01*
X92935056Y-72245873D01*
X93001495Y-72312312D01*
X93252905Y-72480299D01*
X93532257Y-72596011D01*
X93828816Y-72655000D01*
X94131184Y-72655000D01*
X94427743Y-72596011D01*
X94707095Y-72480299D01*
X94958505Y-72312312D01*
X95172312Y-72098505D01*
X95224767Y-72020000D01*
X96251928Y-72020000D01*
X96264188Y-72144482D01*
X96300498Y-72264180D01*
X96359463Y-72374494D01*
X96438815Y-72471185D01*
X96535506Y-72550537D01*
X96645820Y-72609502D01*
X96765518Y-72645812D01*
X96890000Y-72658072D01*
X97504250Y-72655000D01*
X97663000Y-72496250D01*
X97663000Y-71247000D01*
X96413750Y-71247000D01*
X96255000Y-71405750D01*
X96251928Y-72020000D01*
X95224767Y-72020000D01*
X95340299Y-71847095D01*
X95456011Y-71567743D01*
X95515000Y-71271184D01*
X95515000Y-70968816D01*
X95456011Y-70672257D01*
X95340299Y-70392905D01*
X95224768Y-70220000D01*
X96251928Y-70220000D01*
X96255000Y-70834250D01*
X96413750Y-70993000D01*
X97663000Y-70993000D01*
X97663000Y-69743750D01*
X97917000Y-69743750D01*
X97917000Y-70993000D01*
X97937000Y-70993000D01*
X97937000Y-71247000D01*
X97917000Y-71247000D01*
X97917000Y-72496250D01*
X98075750Y-72655000D01*
X98690000Y-72658072D01*
X98814482Y-72645812D01*
X98934180Y-72609502D01*
X99044494Y-72550537D01*
X99141185Y-72471185D01*
X99220537Y-72374494D01*
X99279502Y-72264180D01*
X99285056Y-72245873D01*
X99351495Y-72312312D01*
X99602905Y-72480299D01*
X99882257Y-72596011D01*
X100178816Y-72655000D01*
X100481184Y-72655000D01*
X100777743Y-72596011D01*
X101057095Y-72480299D01*
X101308505Y-72312312D01*
X101522312Y-72098505D01*
X101574767Y-72020000D01*
X102601928Y-72020000D01*
X102614188Y-72144482D01*
X102650498Y-72264180D01*
X102709463Y-72374494D01*
X102788815Y-72471185D01*
X102885506Y-72550537D01*
X102995820Y-72609502D01*
X103115518Y-72645812D01*
X103240000Y-72658072D01*
X103854250Y-72655000D01*
X104013000Y-72496250D01*
X104013000Y-71247000D01*
X102763750Y-71247000D01*
X102605000Y-71405750D01*
X102601928Y-72020000D01*
X101574767Y-72020000D01*
X101690299Y-71847095D01*
X101806011Y-71567743D01*
X101865000Y-71271184D01*
X101865000Y-70968816D01*
X101806011Y-70672257D01*
X101690299Y-70392905D01*
X101574768Y-70220000D01*
X102601928Y-70220000D01*
X102605000Y-70834250D01*
X102763750Y-70993000D01*
X104013000Y-70993000D01*
X104013000Y-69743750D01*
X104267000Y-69743750D01*
X104267000Y-70993000D01*
X104287000Y-70993000D01*
X104287000Y-71247000D01*
X104267000Y-71247000D01*
X104267000Y-72496250D01*
X104425750Y-72655000D01*
X105040000Y-72658072D01*
X105164482Y-72645812D01*
X105284180Y-72609502D01*
X105394494Y-72550537D01*
X105491185Y-72471185D01*
X105570537Y-72374494D01*
X105629502Y-72264180D01*
X105635056Y-72245873D01*
X105701495Y-72312312D01*
X105952905Y-72480299D01*
X106232257Y-72596011D01*
X106528816Y-72655000D01*
X106831184Y-72655000D01*
X107127743Y-72596011D01*
X107407095Y-72480299D01*
X107658505Y-72312312D01*
X107872312Y-72098505D01*
X108040299Y-71847095D01*
X108156011Y-71567743D01*
X108215000Y-71271184D01*
X108215000Y-70968816D01*
X108208144Y-70934344D01*
X119845000Y-70934344D01*
X119845000Y-71305656D01*
X119917439Y-71669834D01*
X120059534Y-72012882D01*
X120265825Y-72321618D01*
X120528382Y-72584175D01*
X120837118Y-72790466D01*
X121180166Y-72932561D01*
X121544344Y-73005000D01*
X121915656Y-73005000D01*
X122279834Y-72932561D01*
X122622882Y-72790466D01*
X122931618Y-72584175D01*
X123194175Y-72321618D01*
X123400466Y-72012882D01*
X123542561Y-71669834D01*
X123615000Y-71305656D01*
X123615000Y-70934344D01*
X123805000Y-70934344D01*
X123805000Y-71305656D01*
X123877439Y-71669834D01*
X124019534Y-72012882D01*
X124225825Y-72321618D01*
X124488382Y-72584175D01*
X124797118Y-72790466D01*
X125140166Y-72932561D01*
X125504344Y-73005000D01*
X125875656Y-73005000D01*
X126239834Y-72932561D01*
X126582882Y-72790466D01*
X126891618Y-72584175D01*
X127154175Y-72321618D01*
X127360466Y-72012882D01*
X127502561Y-71669834D01*
X127575000Y-71305656D01*
X127575000Y-70934344D01*
X127765000Y-70934344D01*
X127765000Y-71305656D01*
X127837439Y-71669834D01*
X127979534Y-72012882D01*
X128185825Y-72321618D01*
X128448382Y-72584175D01*
X128757118Y-72790466D01*
X129100166Y-72932561D01*
X129464344Y-73005000D01*
X129835656Y-73005000D01*
X130199834Y-72932561D01*
X130542882Y-72790466D01*
X130851618Y-72584175D01*
X131114175Y-72321618D01*
X131320466Y-72012882D01*
X131462561Y-71669834D01*
X131535000Y-71305656D01*
X131535000Y-70934344D01*
X131725000Y-70934344D01*
X131725000Y-71305656D01*
X131797439Y-71669834D01*
X131939534Y-72012882D01*
X132145825Y-72321618D01*
X132408382Y-72584175D01*
X132717118Y-72790466D01*
X133060166Y-72932561D01*
X133424344Y-73005000D01*
X133795656Y-73005000D01*
X134159834Y-72932561D01*
X134502882Y-72790466D01*
X134811618Y-72584175D01*
X135074175Y-72321618D01*
X135280466Y-72012882D01*
X135422561Y-71669834D01*
X135495000Y-71305656D01*
X135495000Y-70934344D01*
X135685000Y-70934344D01*
X135685000Y-71305656D01*
X135757439Y-71669834D01*
X135899534Y-72012882D01*
X136105825Y-72321618D01*
X136368382Y-72584175D01*
X136677118Y-72790466D01*
X137020166Y-72932561D01*
X137384344Y-73005000D01*
X137755656Y-73005000D01*
X138119834Y-72932561D01*
X138462882Y-72790466D01*
X138771618Y-72584175D01*
X139034175Y-72321618D01*
X139240466Y-72012882D01*
X139382561Y-71669834D01*
X139455000Y-71305656D01*
X139455000Y-70934344D01*
X139645000Y-70934344D01*
X139645000Y-71305656D01*
X139717439Y-71669834D01*
X139859534Y-72012882D01*
X140065825Y-72321618D01*
X140328382Y-72584175D01*
X140637118Y-72790466D01*
X140980166Y-72932561D01*
X141344344Y-73005000D01*
X141715656Y-73005000D01*
X142079834Y-72932561D01*
X142422882Y-72790466D01*
X142731618Y-72584175D01*
X142994175Y-72321618D01*
X143200466Y-72012882D01*
X143342561Y-71669834D01*
X143415000Y-71305656D01*
X143415000Y-70934344D01*
X143605000Y-70934344D01*
X143605000Y-71305656D01*
X143677439Y-71669834D01*
X143819534Y-72012882D01*
X144025825Y-72321618D01*
X144288382Y-72584175D01*
X144597118Y-72790466D01*
X144940166Y-72932561D01*
X145304344Y-73005000D01*
X145675656Y-73005000D01*
X146039834Y-72932561D01*
X146382882Y-72790466D01*
X146691618Y-72584175D01*
X146954175Y-72321618D01*
X147160466Y-72012882D01*
X147302561Y-71669834D01*
X147375000Y-71305656D01*
X147375000Y-70934344D01*
X147565000Y-70934344D01*
X147565000Y-71305656D01*
X147637439Y-71669834D01*
X147779534Y-72012882D01*
X147985825Y-72321618D01*
X148248382Y-72584175D01*
X148557118Y-72790466D01*
X148900166Y-72932561D01*
X149264344Y-73005000D01*
X149635656Y-73005000D01*
X149999834Y-72932561D01*
X150342882Y-72790466D01*
X150651618Y-72584175D01*
X150914175Y-72321618D01*
X151120466Y-72012882D01*
X151262561Y-71669834D01*
X151335000Y-71305656D01*
X151335000Y-70934344D01*
X151525000Y-70934344D01*
X151525000Y-71305656D01*
X151597439Y-71669834D01*
X151739534Y-72012882D01*
X151945825Y-72321618D01*
X152208382Y-72584175D01*
X152517118Y-72790466D01*
X152860166Y-72932561D01*
X153224344Y-73005000D01*
X153595656Y-73005000D01*
X153959834Y-72932561D01*
X154302882Y-72790466D01*
X154611618Y-72584175D01*
X154874175Y-72321618D01*
X155080466Y-72012882D01*
X155222561Y-71669834D01*
X155295000Y-71305656D01*
X155295000Y-70934344D01*
X155485000Y-70934344D01*
X155485000Y-71305656D01*
X155557439Y-71669834D01*
X155699534Y-72012882D01*
X155905825Y-72321618D01*
X156168382Y-72584175D01*
X156477118Y-72790466D01*
X156820166Y-72932561D01*
X157184344Y-73005000D01*
X157555656Y-73005000D01*
X157919834Y-72932561D01*
X158262882Y-72790466D01*
X158571618Y-72584175D01*
X158722188Y-72433605D01*
X160196000Y-72433605D01*
X160321914Y-72723577D01*
X160654126Y-72889433D01*
X161012312Y-72987290D01*
X161382706Y-73013389D01*
X161751075Y-72966725D01*
X162103262Y-72849094D01*
X162338086Y-72723577D01*
X162464000Y-72433605D01*
X161330000Y-71299605D01*
X160196000Y-72433605D01*
X158722188Y-72433605D01*
X158834175Y-72321618D01*
X159040466Y-72012882D01*
X159182561Y-71669834D01*
X159255000Y-71305656D01*
X159255000Y-71172706D01*
X159436611Y-71172706D01*
X159483275Y-71541075D01*
X159600906Y-71893262D01*
X159726423Y-72128086D01*
X160016395Y-72254000D01*
X161150395Y-71120000D01*
X161509605Y-71120000D01*
X162643605Y-72254000D01*
X162933577Y-72128086D01*
X163099433Y-71795874D01*
X163197290Y-71437688D01*
X163223389Y-71067294D01*
X163206548Y-70934344D01*
X163405000Y-70934344D01*
X163405000Y-71305656D01*
X163477439Y-71669834D01*
X163619534Y-72012882D01*
X163825825Y-72321618D01*
X164088382Y-72584175D01*
X164397118Y-72790466D01*
X164740166Y-72932561D01*
X165104344Y-73005000D01*
X165475656Y-73005000D01*
X165839834Y-72932561D01*
X166182882Y-72790466D01*
X166491618Y-72584175D01*
X166754175Y-72321618D01*
X166960466Y-72012882D01*
X167102561Y-71669834D01*
X167175000Y-71305656D01*
X167175000Y-70934344D01*
X167102561Y-70570166D01*
X166960466Y-70227118D01*
X166754175Y-69918382D01*
X166491618Y-69655825D01*
X166182882Y-69449534D01*
X165839834Y-69307439D01*
X165475656Y-69235000D01*
X165104344Y-69235000D01*
X164740166Y-69307439D01*
X164397118Y-69449534D01*
X164088382Y-69655825D01*
X163825825Y-69918382D01*
X163619534Y-70227118D01*
X163477439Y-70570166D01*
X163405000Y-70934344D01*
X163206548Y-70934344D01*
X163176725Y-70698925D01*
X163059094Y-70346738D01*
X162933577Y-70111914D01*
X162643605Y-69986000D01*
X161509605Y-71120000D01*
X161150395Y-71120000D01*
X160016395Y-69986000D01*
X159726423Y-70111914D01*
X159560567Y-70444126D01*
X159462710Y-70802312D01*
X159436611Y-71172706D01*
X159255000Y-71172706D01*
X159255000Y-70934344D01*
X159182561Y-70570166D01*
X159040466Y-70227118D01*
X158834175Y-69918382D01*
X158722188Y-69806395D01*
X160196000Y-69806395D01*
X161330000Y-70940395D01*
X162464000Y-69806395D01*
X162338086Y-69516423D01*
X162005874Y-69350567D01*
X161647688Y-69252710D01*
X161277294Y-69226611D01*
X160908925Y-69273275D01*
X160556738Y-69390906D01*
X160321914Y-69516423D01*
X160196000Y-69806395D01*
X158722188Y-69806395D01*
X158571618Y-69655825D01*
X158262882Y-69449534D01*
X157919834Y-69307439D01*
X157555656Y-69235000D01*
X157184344Y-69235000D01*
X156820166Y-69307439D01*
X156477118Y-69449534D01*
X156168382Y-69655825D01*
X155905825Y-69918382D01*
X155699534Y-70227118D01*
X155557439Y-70570166D01*
X155485000Y-70934344D01*
X155295000Y-70934344D01*
X155222561Y-70570166D01*
X155080466Y-70227118D01*
X154874175Y-69918382D01*
X154611618Y-69655825D01*
X154302882Y-69449534D01*
X153959834Y-69307439D01*
X153595656Y-69235000D01*
X153224344Y-69235000D01*
X152860166Y-69307439D01*
X152517118Y-69449534D01*
X152208382Y-69655825D01*
X151945825Y-69918382D01*
X151739534Y-70227118D01*
X151597439Y-70570166D01*
X151525000Y-70934344D01*
X151335000Y-70934344D01*
X151262561Y-70570166D01*
X151120466Y-70227118D01*
X150914175Y-69918382D01*
X150651618Y-69655825D01*
X150342882Y-69449534D01*
X149999834Y-69307439D01*
X149635656Y-69235000D01*
X149264344Y-69235000D01*
X148900166Y-69307439D01*
X148557118Y-69449534D01*
X148248382Y-69655825D01*
X147985825Y-69918382D01*
X147779534Y-70227118D01*
X147637439Y-70570166D01*
X147565000Y-70934344D01*
X147375000Y-70934344D01*
X147302561Y-70570166D01*
X147160466Y-70227118D01*
X146954175Y-69918382D01*
X146691618Y-69655825D01*
X146382882Y-69449534D01*
X146039834Y-69307439D01*
X145675656Y-69235000D01*
X145304344Y-69235000D01*
X144940166Y-69307439D01*
X144597118Y-69449534D01*
X144288382Y-69655825D01*
X144025825Y-69918382D01*
X143819534Y-70227118D01*
X143677439Y-70570166D01*
X143605000Y-70934344D01*
X143415000Y-70934344D01*
X143342561Y-70570166D01*
X143200466Y-70227118D01*
X142994175Y-69918382D01*
X142731618Y-69655825D01*
X142422882Y-69449534D01*
X142079834Y-69307439D01*
X141715656Y-69235000D01*
X141344344Y-69235000D01*
X140980166Y-69307439D01*
X140637118Y-69449534D01*
X140328382Y-69655825D01*
X140065825Y-69918382D01*
X139859534Y-70227118D01*
X139717439Y-70570166D01*
X139645000Y-70934344D01*
X139455000Y-70934344D01*
X139382561Y-70570166D01*
X139240466Y-70227118D01*
X139034175Y-69918382D01*
X138771618Y-69655825D01*
X138462882Y-69449534D01*
X138119834Y-69307439D01*
X137755656Y-69235000D01*
X137384344Y-69235000D01*
X137020166Y-69307439D01*
X136677118Y-69449534D01*
X136368382Y-69655825D01*
X136105825Y-69918382D01*
X135899534Y-70227118D01*
X135757439Y-70570166D01*
X135685000Y-70934344D01*
X135495000Y-70934344D01*
X135422561Y-70570166D01*
X135280466Y-70227118D01*
X135074175Y-69918382D01*
X134811618Y-69655825D01*
X134502882Y-69449534D01*
X134159834Y-69307439D01*
X133795656Y-69235000D01*
X133424344Y-69235000D01*
X133060166Y-69307439D01*
X132717118Y-69449534D01*
X132408382Y-69655825D01*
X132145825Y-69918382D01*
X131939534Y-70227118D01*
X131797439Y-70570166D01*
X131725000Y-70934344D01*
X131535000Y-70934344D01*
X131462561Y-70570166D01*
X131320466Y-70227118D01*
X131114175Y-69918382D01*
X130851618Y-69655825D01*
X130542882Y-69449534D01*
X130199834Y-69307439D01*
X129835656Y-69235000D01*
X129464344Y-69235000D01*
X129100166Y-69307439D01*
X128757118Y-69449534D01*
X128448382Y-69655825D01*
X128185825Y-69918382D01*
X127979534Y-70227118D01*
X127837439Y-70570166D01*
X127765000Y-70934344D01*
X127575000Y-70934344D01*
X127502561Y-70570166D01*
X127360466Y-70227118D01*
X127154175Y-69918382D01*
X126891618Y-69655825D01*
X126582882Y-69449534D01*
X126239834Y-69307439D01*
X125875656Y-69235000D01*
X125504344Y-69235000D01*
X125140166Y-69307439D01*
X124797118Y-69449534D01*
X124488382Y-69655825D01*
X124225825Y-69918382D01*
X124019534Y-70227118D01*
X123877439Y-70570166D01*
X123805000Y-70934344D01*
X123615000Y-70934344D01*
X123542561Y-70570166D01*
X123400466Y-70227118D01*
X123194175Y-69918382D01*
X122931618Y-69655825D01*
X122622882Y-69449534D01*
X122279834Y-69307439D01*
X121915656Y-69235000D01*
X121544344Y-69235000D01*
X121180166Y-69307439D01*
X120837118Y-69449534D01*
X120528382Y-69655825D01*
X120265825Y-69918382D01*
X120059534Y-70227118D01*
X119917439Y-70570166D01*
X119845000Y-70934344D01*
X108208144Y-70934344D01*
X108156011Y-70672257D01*
X108040299Y-70392905D01*
X107872312Y-70141495D01*
X107658505Y-69927688D01*
X107407095Y-69759701D01*
X107127743Y-69643989D01*
X106831184Y-69585000D01*
X106528816Y-69585000D01*
X106232257Y-69643989D01*
X105952905Y-69759701D01*
X105701495Y-69927688D01*
X105635056Y-69994127D01*
X105629502Y-69975820D01*
X105570537Y-69865506D01*
X105491185Y-69768815D01*
X105394494Y-69689463D01*
X105284180Y-69630498D01*
X105164482Y-69594188D01*
X105040000Y-69581928D01*
X104425750Y-69585000D01*
X104267000Y-69743750D01*
X104013000Y-69743750D01*
X103854250Y-69585000D01*
X103240000Y-69581928D01*
X103115518Y-69594188D01*
X102995820Y-69630498D01*
X102885506Y-69689463D01*
X102788815Y-69768815D01*
X102709463Y-69865506D01*
X102650498Y-69975820D01*
X102614188Y-70095518D01*
X102601928Y-70220000D01*
X101574768Y-70220000D01*
X101522312Y-70141495D01*
X101308505Y-69927688D01*
X101057095Y-69759701D01*
X100777743Y-69643989D01*
X100481184Y-69585000D01*
X100178816Y-69585000D01*
X99882257Y-69643989D01*
X99602905Y-69759701D01*
X99351495Y-69927688D01*
X99285056Y-69994127D01*
X99279502Y-69975820D01*
X99220537Y-69865506D01*
X99141185Y-69768815D01*
X99044494Y-69689463D01*
X98934180Y-69630498D01*
X98814482Y-69594188D01*
X98690000Y-69581928D01*
X98075750Y-69585000D01*
X97917000Y-69743750D01*
X97663000Y-69743750D01*
X97504250Y-69585000D01*
X96890000Y-69581928D01*
X96765518Y-69594188D01*
X96645820Y-69630498D01*
X96535506Y-69689463D01*
X96438815Y-69768815D01*
X96359463Y-69865506D01*
X96300498Y-69975820D01*
X96264188Y-70095518D01*
X96251928Y-70220000D01*
X95224768Y-70220000D01*
X95172312Y-70141495D01*
X94958505Y-69927688D01*
X94707095Y-69759701D01*
X94427743Y-69643989D01*
X94131184Y-69585000D01*
X93828816Y-69585000D01*
X93532257Y-69643989D01*
X93252905Y-69759701D01*
X93001495Y-69927688D01*
X92935056Y-69994127D01*
X92929502Y-69975820D01*
X92870537Y-69865506D01*
X92791185Y-69768815D01*
X92694494Y-69689463D01*
X92584180Y-69630498D01*
X92464482Y-69594188D01*
X92340000Y-69581928D01*
X91725750Y-69585000D01*
X91567000Y-69743750D01*
X91313000Y-69743750D01*
X91154250Y-69585000D01*
X90540000Y-69581928D01*
X90415518Y-69594188D01*
X90295820Y-69630498D01*
X90195000Y-69684388D01*
X90195000Y-67970000D01*
X178410001Y-67970000D01*
X178410000Y-113640000D01*
%TD*%
M02*
