%TF.GenerationSoftware,KiCad,Pcbnew,(5.1.6)-1*%
%TF.CreationDate,2020-07-03T01:35:13-04:00*%
%TF.ProjectId,controller,636f6e74-726f-46c6-9c65-722e6b696361,rev?*%
%TF.SameCoordinates,Original*%
%TF.FileFunction,Legend,Bot*%
%TF.FilePolarity,Positive*%
%FSLAX46Y46*%
G04 Gerber Fmt 4.6, Leading zero omitted, Abs format (unit mm)*
G04 Created by KiCad (PCBNEW (5.1.6)-1) date 2020-07-03 01:35:13*
%MOMM*%
%LPD*%
G01*
G04 APERTURE LIST*
%ADD10C,0.120000*%
%ADD11C,0.150000*%
G04 APERTURE END LIST*
D10*
%TO.C,J1*%
X119980000Y-72230001D02*
X119980000Y-69370001D01*
X120340000Y-72230001D02*
X119980000Y-72230001D01*
X120340000Y-75090000D02*
X120340000Y-72230001D01*
X119980000Y-75090000D02*
X120340000Y-75090000D01*
X119980000Y-77950000D02*
X119980000Y-75090000D01*
X167040000Y-77949999D02*
X119980000Y-77950000D01*
X167040000Y-69370000D02*
X167040000Y-77949999D01*
X119980000Y-69370001D02*
X167040000Y-69370000D01*
X108458000Y-77978000D02*
X108458000Y-69342000D01*
X108458000Y-69342000D02*
X120142000Y-69342000D01*
X120142000Y-77978000D02*
X108458000Y-77978000D01*
X178562000Y-77978000D02*
X178562000Y-69342000D01*
X178562000Y-69342000D02*
X166878000Y-69342000D01*
X167040000Y-77949999D02*
X178562000Y-77978000D01*
D11*
X143843333Y-68032380D02*
X143843333Y-68746666D01*
X143890952Y-68889523D01*
X143986190Y-68984761D01*
X144129047Y-69032380D01*
X144224285Y-69032380D01*
X142843333Y-69032380D02*
X143414761Y-69032380D01*
X143129047Y-69032380D02*
X143129047Y-68032380D01*
X143224285Y-68175238D01*
X143319523Y-68270476D01*
X143414761Y-68318095D01*
%TD*%
M02*
