%TF.GenerationSoftware,KiCad,Pcbnew,(5.1.6)-1*%
%TF.CreationDate,2020-07-03T01:35:13-04:00*%
%TF.ProjectId,controller,636f6e74-726f-46c6-9c65-722e6b696361,rev?*%
%TF.SameCoordinates,Original*%
%TF.FileFunction,Copper,L2,Bot*%
%TF.FilePolarity,Positive*%
%FSLAX46Y46*%
G04 Gerber Fmt 4.6, Leading zero omitted, Abs format (unit mm)*
G04 Created by KiCad (PCBNEW (5.1.6)-1) date 2020-07-03 01:35:13*
%MOMM*%
%LPD*%
G01*
G04 APERTURE LIST*
%TA.AperFunction,ComponentPad*%
%ADD10C,2.500000*%
%TD*%
%TA.AperFunction,ComponentPad*%
%ADD11O,2.800000X2.800000*%
%TD*%
%TA.AperFunction,ComponentPad*%
%ADD12R,2.800000X2.800000*%
%TD*%
%TA.AperFunction,ComponentPad*%
%ADD13C,1.500000*%
%TD*%
%TA.AperFunction,ComponentPad*%
%ADD14O,1.600000X1.600000*%
%TD*%
%TA.AperFunction,ComponentPad*%
%ADD15R,1.600000X1.600000*%
%TD*%
%TA.AperFunction,ComponentPad*%
%ADD16O,2.400000X2.400000*%
%TD*%
%TA.AperFunction,ComponentPad*%
%ADD17C,2.400000*%
%TD*%
%TA.AperFunction,ComponentPad*%
%ADD18R,1.700000X1.700000*%
%TD*%
%TA.AperFunction,ComponentPad*%
%ADD19O,1.700000X1.700000*%
%TD*%
%TA.AperFunction,ComponentPad*%
%ADD20C,3.500000*%
%TD*%
%TA.AperFunction,ComponentPad*%
%ADD21C,1.700000*%
%TD*%
%TA.AperFunction,ComponentPad*%
%ADD22R,1.800000X1.800000*%
%TD*%
%TA.AperFunction,ComponentPad*%
%ADD23C,1.800000*%
%TD*%
%TA.AperFunction,ComponentPad*%
%ADD24C,1.200000*%
%TD*%
%TA.AperFunction,ComponentPad*%
%ADD25R,1.200000X1.200000*%
%TD*%
%TA.AperFunction,ComponentPad*%
%ADD26C,2.000000*%
%TD*%
%TA.AperFunction,Conductor*%
%ADD27C,0.250000*%
%TD*%
%TA.AperFunction,Conductor*%
%ADD28C,0.750000*%
%TD*%
%TA.AperFunction,Conductor*%
%ADD29C,0.254000*%
%TD*%
G04 APERTURE END LIST*
D10*
%TO.P,J1,12*%
%TO.N,+5V*%
X165290000Y-71120000D03*
%TO.P,J1,13*%
X165290000Y-76200000D03*
%TO.P,J1,11*%
%TO.N,GND*%
X161330000Y-71120000D03*
%TO.P,J1,14*%
X161330000Y-76200000D03*
%TO.P,J1,10*%
%TO.N,Net-(J1-Pad10)*%
X157370000Y-71120000D03*
%TO.P,J1,15*%
%TO.N,Net-(J1-Pad15)*%
X157370000Y-76200000D03*
%TO.P,J1,9*%
%TO.N,Net-(J1-Pad9)*%
X153410000Y-71120000D03*
%TO.P,J1,16*%
%TO.N,Net-(J1-Pad16)*%
X153410000Y-76200000D03*
%TO.P,J1,8*%
%TO.N,Net-(J1-Pad8)*%
X149450000Y-71120000D03*
%TO.P,J1,17*%
%TO.N,Net-(J1-Pad17)*%
X149450000Y-76200000D03*
%TO.P,J1,7*%
%TO.N,Net-(J1-Pad7)*%
X145490000Y-71120000D03*
%TO.P,J1,18*%
%TO.N,Net-(J1-Pad18)*%
X145490000Y-76200000D03*
%TO.P,J1,6*%
%TO.N,Net-(J1-Pad6)*%
X141530000Y-71120000D03*
%TO.P,J1,19*%
%TO.N,Net-(J1-Pad19)*%
X141530000Y-76200000D03*
%TO.P,J1,5*%
%TO.N,Net-(J1-Pad5)*%
X137570000Y-71120000D03*
%TO.P,J1,20*%
%TO.N,Net-(J1-Pad20)*%
X137570000Y-76200000D03*
%TO.P,J1,4*%
%TO.N,Net-(J1-Pad4)*%
X133610000Y-71120000D03*
%TO.P,J1,21*%
%TO.N,Net-(J1-Pad21)*%
X133610000Y-76200000D03*
%TO.P,J1,3*%
%TO.N,Net-(J1-Pad3)*%
X129650000Y-71120000D03*
%TO.P,J1,22*%
%TO.N,Net-(J1-Pad22)*%
X129650000Y-76200000D03*
%TO.P,J1,2*%
%TO.N,Net-(J1-Pad2)*%
X125690000Y-71120000D03*
%TO.P,J1,23*%
%TO.N,Net-(J1-Pad23)*%
X125690000Y-76200000D03*
%TO.P,J1,1*%
%TO.N,Net-(J1-Pad1)*%
X121730000Y-71120000D03*
%TO.P,J1,24*%
%TO.N,Net-(J1-Pad24)*%
X121730000Y-76200000D03*
%TD*%
D11*
%TO.P,Z2,2*%
%TO.N,GND*%
X154940000Y-109855000D03*
D12*
%TO.P,Z2,1*%
%TO.N,Net-(J2-Pad3)*%
X142240000Y-109855000D03*
%TD*%
D11*
%TO.P,Z1,2*%
%TO.N,GND*%
X166370000Y-104140000D03*
D12*
%TO.P,Z1,1*%
%TO.N,Net-(J2-Pad2)*%
X153670000Y-104140000D03*
%TD*%
D13*
%TO.P,X1,2*%
%TO.N,Net-(C2-Pad1)*%
X129720000Y-95250000D03*
%TO.P,X1,1*%
%TO.N,Net-(C1-Pad1)*%
X134620000Y-95250000D03*
%TD*%
D14*
%TO.P,U1,20*%
%TO.N,+5V*%
X118745000Y-81280000D03*
%TO.P,U1,10*%
%TO.N,GND*%
X141605000Y-88900000D03*
%TO.P,U1,19*%
%TO.N,Net-(J1-Pad24)*%
X121285000Y-81280000D03*
%TO.P,U1,9*%
%TO.N,Net-(R8-Pad2)*%
X139065000Y-88900000D03*
%TO.P,U1,18*%
%TO.N,Net-(J1-Pad23)*%
X123825000Y-81280000D03*
%TO.P,U1,8*%
%TO.N,Net-(R9-Pad2)*%
X136525000Y-88900000D03*
%TO.P,U1,17*%
%TO.N,Net-(J1-Pad22)*%
X126365000Y-81280000D03*
%TO.P,U1,7*%
%TO.N,D-*%
X133985000Y-88900000D03*
%TO.P,U1,16*%
%TO.N,Net-(J1-Pad21)*%
X128905000Y-81280000D03*
%TO.P,U1,6*%
%TO.N,D+*%
X131445000Y-88900000D03*
%TO.P,U1,15*%
%TO.N,Net-(J1-Pad20)*%
X131445000Y-81280000D03*
%TO.P,U1,5*%
%TO.N,Net-(C1-Pad1)*%
X128905000Y-88900000D03*
%TO.P,U1,14*%
%TO.N,Net-(J1-Pad19)*%
X133985000Y-81280000D03*
%TO.P,U1,4*%
%TO.N,Net-(C2-Pad1)*%
X126365000Y-88900000D03*
%TO.P,U1,13*%
%TO.N,Net-(J1-Pad18)*%
X136525000Y-81280000D03*
%TO.P,U1,3*%
%TO.N,T2*%
X123825000Y-88900000D03*
%TO.P,U1,12*%
%TO.N,Net-(J1-Pad16)*%
X139065000Y-81280000D03*
%TO.P,U1,2*%
%TO.N,T1*%
X121285000Y-88900000D03*
%TO.P,U1,11*%
%TO.N,Net-(R6-Pad2)*%
X141605000Y-81280000D03*
D15*
%TO.P,U1,1*%
%TO.N,RST*%
X118745000Y-88900000D03*
%TD*%
D16*
%TO.P,R9,2*%
%TO.N,Net-(R9-Pad2)*%
X154940000Y-82550000D03*
D17*
%TO.P,R9,1*%
%TO.N,Net-(D3-Pad2)*%
X167640000Y-82550000D03*
%TD*%
D16*
%TO.P,R8,2*%
%TO.N,Net-(R8-Pad2)*%
X154940000Y-95250000D03*
D17*
%TO.P,R8,1*%
%TO.N,Net-(D2-Pad2)*%
X167640000Y-95250000D03*
%TD*%
D16*
%TO.P,R6,2*%
%TO.N,Net-(R6-Pad2)*%
X154940000Y-88900000D03*
D17*
%TO.P,R6,1*%
%TO.N,Net-(D1-Pad2)*%
X167640000Y-88900000D03*
%TD*%
D16*
%TO.P,R5,2*%
%TO.N,+5V*%
X142240000Y-92710000D03*
D17*
%TO.P,R5,1*%
%TO.N,Net-(J2-Pad3)*%
X142240000Y-105410000D03*
%TD*%
D16*
%TO.P,R4,2*%
%TO.N,+5V*%
X148590000Y-92710000D03*
D17*
%TO.P,R4,1*%
%TO.N,Net-(J2-Pad2)*%
X148590000Y-105410000D03*
%TD*%
D16*
%TO.P,R3,2*%
%TO.N,D-*%
X118745000Y-107950000D03*
D17*
%TO.P,R3,1*%
%TO.N,Net-(J2-Pad2)*%
X106045000Y-107950000D03*
%TD*%
D16*
%TO.P,R2,2*%
%TO.N,D+*%
X118745000Y-100330000D03*
D17*
%TO.P,R2,1*%
%TO.N,Net-(J2-Pad3)*%
X106045000Y-100330000D03*
%TD*%
D16*
%TO.P,R1,2*%
%TO.N,+5V*%
X113030000Y-93980000D03*
D17*
%TO.P,R1,1*%
%TO.N,RST*%
X113030000Y-81280000D03*
%TD*%
D18*
%TO.P,J4,1*%
%TO.N,+5V*%
X123190000Y-93345000D03*
D19*
%TO.P,J4,2*%
%TO.N,T1*%
X123190000Y-95885000D03*
%TO.P,J4,3*%
%TO.N,T2*%
X123190000Y-98425000D03*
%TO.P,J4,4*%
%TO.N,GND*%
X123190000Y-100965000D03*
%TD*%
%TO.P,J3,6*%
%TO.N,GND*%
X150495000Y-86360000D03*
%TO.P,J3,5*%
%TO.N,RST*%
X147955000Y-86360000D03*
%TO.P,J3,4*%
%TO.N,Net-(J1-Pad22)*%
X150495000Y-83820000D03*
%TO.P,J3,3*%
%TO.N,Net-(J1-Pad24)*%
X147955000Y-83820000D03*
%TO.P,J3,2*%
%TO.N,+5V*%
X150495000Y-81280000D03*
D18*
%TO.P,J3,1*%
%TO.N,Net-(J1-Pad23)*%
X147955000Y-81280000D03*
%TD*%
D20*
%TO.P,J2,5*%
%TO.N,GND*%
X96255000Y-98140000D03*
X96255000Y-110180000D03*
D21*
%TO.P,J2,4*%
X98965000Y-105410000D03*
%TO.P,J2,3*%
%TO.N,Net-(J2-Pad3)*%
X98965000Y-102910000D03*
%TO.P,J2,2*%
%TO.N,Net-(J2-Pad2)*%
X100965000Y-102910000D03*
D18*
%TO.P,J2,1*%
%TO.N,+5V*%
X100965000Y-105410000D03*
%TD*%
D22*
%TO.P,D3,1*%
%TO.N,GND*%
X91440000Y-71120000D03*
D23*
%TO.P,D3,2*%
%TO.N,Net-(D3-Pad2)*%
X93980000Y-71120000D03*
%TD*%
D22*
%TO.P,D2,1*%
%TO.N,GND*%
X104140000Y-71120000D03*
D23*
%TO.P,D2,2*%
%TO.N,Net-(D2-Pad2)*%
X106680000Y-71120000D03*
%TD*%
D22*
%TO.P,D1,1*%
%TO.N,GND*%
X97790000Y-71120000D03*
D23*
%TO.P,D1,2*%
%TO.N,Net-(D1-Pad2)*%
X100330000Y-71120000D03*
%TD*%
D24*
%TO.P,C4,2*%
%TO.N,GND*%
X105950000Y-86995000D03*
D25*
%TO.P,C4,1*%
%TO.N,+5V*%
X107950000Y-86995000D03*
%TD*%
D24*
%TO.P,C3,2*%
%TO.N,GND*%
X105950000Y-93980000D03*
D25*
%TO.P,C3,1*%
%TO.N,+5V*%
X107950000Y-93980000D03*
%TD*%
D26*
%TO.P,C2,2*%
%TO.N,GND*%
X129540000Y-105410000D03*
%TO.P,C2,1*%
%TO.N,Net-(C2-Pad1)*%
X129540000Y-100410000D03*
%TD*%
%TO.P,C1,2*%
%TO.N,GND*%
X134620000Y-105330000D03*
%TO.P,C1,1*%
%TO.N,Net-(C1-Pad1)*%
X134620000Y-100330000D03*
%TD*%
D27*
%TO.N,Net-(C1-Pad1)*%
X134620000Y-94615000D02*
X134620000Y-95250000D01*
X128905000Y-88900000D02*
X134620000Y-94615000D01*
X134620000Y-95250000D02*
X134620000Y-100330000D01*
%TO.N,Net-(C2-Pad1)*%
X126365000Y-91895000D02*
X129720000Y-95250000D01*
X126365000Y-88900000D02*
X126365000Y-91895000D01*
X129720000Y-100230000D02*
X129540000Y-100410000D01*
X129720000Y-95250000D02*
X129720000Y-100230000D01*
D28*
%TO.N,+5V*%
X165290000Y-71120000D02*
X167640000Y-71120000D01*
D27*
%TO.N,Net-(D1-Pad2)*%
X169165001Y-76455001D02*
X165855011Y-73145011D01*
X167640000Y-88900000D02*
X169165001Y-87374999D01*
X169165001Y-87374999D02*
X169165001Y-76455001D01*
X102355011Y-73145011D02*
X100330000Y-71120000D01*
X165855011Y-73145011D02*
X102355011Y-73145011D01*
%TO.N,Net-(D2-Pad2)*%
X169615010Y-76268600D02*
X166041411Y-72695001D01*
X169615010Y-93274990D02*
X169615010Y-76268600D01*
X167640000Y-95250000D02*
X169615010Y-93274990D01*
X108255001Y-72695001D02*
X106680000Y-71120000D01*
X166041411Y-72695001D02*
X108255001Y-72695001D01*
%TO.N,Net-(D3-Pad2)*%
X167640000Y-76218998D02*
X165081002Y-73660000D01*
X167640000Y-82550000D02*
X167640000Y-76218998D01*
X96520000Y-73660000D02*
X93980000Y-71120000D01*
X165081002Y-73660000D02*
X96520000Y-73660000D01*
%TO.N,Net-(J1-Pad16)*%
X151834999Y-77775001D02*
X145109999Y-77775001D01*
X153410000Y-76200000D02*
X151834999Y-77775001D01*
X145109999Y-77775001D02*
X144145000Y-78740000D01*
X141605000Y-78740000D02*
X139065000Y-81280000D01*
X144145000Y-78740000D02*
X141605000Y-78740000D01*
%TO.N,Net-(J1-Pad18)*%
X137979991Y-79825009D02*
X138614991Y-79825009D01*
X136525000Y-81280000D02*
X137979991Y-79825009D01*
X138614991Y-79825009D02*
X140335000Y-78105000D01*
X143585000Y-78105000D02*
X145490000Y-76200000D01*
X140335000Y-78105000D02*
X143585000Y-78105000D01*
%TO.N,Net-(J1-Pad19)*%
X140970000Y-76200000D02*
X141530000Y-76200000D01*
X137795000Y-79375000D02*
X140970000Y-76200000D01*
X133985000Y-81280000D02*
X135890000Y-79375000D01*
X135890000Y-79375000D02*
X137795000Y-79375000D01*
%TO.N,Net-(J1-Pad20)*%
X136525000Y-76200000D02*
X137570000Y-76200000D01*
X131445000Y-81280000D02*
X136525000Y-76200000D01*
%TO.N,Net-(J1-Pad21)*%
X133610000Y-76575000D02*
X133610000Y-76200000D01*
X128905000Y-81280000D02*
X133610000Y-76575000D01*
%TO.N,Net-(J1-Pad22)*%
X126365000Y-79485000D02*
X129650000Y-76200000D01*
X126365000Y-81280000D02*
X126365000Y-79485000D01*
X127729999Y-82644999D02*
X126365000Y-81280000D01*
X149319999Y-82644999D02*
X127729999Y-82644999D01*
X150495000Y-83820000D02*
X149319999Y-82644999D01*
%TO.N,Net-(J1-Pad23)*%
X120973999Y-74624999D02*
X124114999Y-74624999D01*
X124114999Y-74624999D02*
X125690000Y-76200000D01*
X120154999Y-75443999D02*
X120973999Y-74624999D01*
X120154999Y-81815001D02*
X120154999Y-75443999D01*
X123334999Y-84995001D02*
X120154999Y-81815001D01*
X151059001Y-84995001D02*
X123334999Y-84995001D01*
X151670001Y-84384001D02*
X151059001Y-84995001D01*
X151670001Y-83255999D02*
X151670001Y-84384001D01*
X151059001Y-82644999D02*
X151670001Y-83255999D01*
X149956409Y-82644999D02*
X151059001Y-82644999D01*
X148591410Y-81280000D02*
X149956409Y-82644999D01*
X147955000Y-81280000D02*
X148591410Y-81280000D01*
X125690000Y-76200000D02*
X123825000Y-78065000D01*
X123825000Y-78065000D02*
X123825000Y-81280000D01*
%TO.N,Net-(J1-Pad24)*%
X121285000Y-76645000D02*
X121730000Y-76200000D01*
X121285000Y-81280000D02*
X121285000Y-76645000D01*
X122159998Y-81280000D02*
X121285000Y-81280000D01*
X124699998Y-83820000D02*
X122159998Y-81280000D01*
X147955000Y-83820000D02*
X124699998Y-83820000D01*
%TO.N,Net-(J2-Pad3)*%
X101545000Y-100330000D02*
X106045000Y-100330000D01*
X98965000Y-102910000D02*
X101545000Y-100330000D01*
X138174999Y-109475001D02*
X142240000Y-105410000D01*
X115190001Y-109475001D02*
X138174999Y-109475001D01*
X106045000Y-100330000D02*
X115190001Y-109475001D01*
X142240000Y-105410000D02*
X142240000Y-109855000D01*
%TO.N,Net-(J2-Pad2)*%
X100965000Y-102910000D02*
X103545000Y-102910000D01*
X106045000Y-105410000D02*
X106045000Y-107950000D01*
X103545000Y-102910000D02*
X106045000Y-105410000D01*
X109675001Y-111580001D02*
X143900001Y-111580001D01*
X148590000Y-106890002D02*
X148590000Y-105410000D01*
X143900001Y-111580001D02*
X148590000Y-106890002D01*
X106045000Y-107950000D02*
X109675001Y-111580001D01*
X152400000Y-105410000D02*
X153670000Y-104140000D01*
X148590000Y-105410000D02*
X152400000Y-105410000D01*
%TO.N,RST*%
X121285000Y-86360000D02*
X118745000Y-88900000D01*
X147955000Y-86360000D02*
X121285000Y-86360000D01*
X113030000Y-81280000D02*
X113030000Y-86360000D01*
X115570000Y-88900000D02*
X118745000Y-88900000D01*
X113030000Y-86360000D02*
X115570000Y-88900000D01*
%TO.N,T2*%
X124815010Y-89890010D02*
X123825000Y-88900000D01*
X124815010Y-96799990D02*
X124815010Y-89890010D01*
X123190000Y-98425000D02*
X124815010Y-96799990D01*
%TO.N,T1*%
X124365001Y-91980001D02*
X121285000Y-88900000D01*
X124365001Y-94709999D02*
X124365001Y-91980001D01*
X123190000Y-95885000D02*
X124365001Y-94709999D01*
%TO.N,D+*%
X118745000Y-100330000D02*
X125730000Y-107315000D01*
X125730000Y-107315000D02*
X135255000Y-107315000D01*
X138685001Y-96140001D02*
X131445000Y-88900000D01*
X138685001Y-103884999D02*
X138685001Y-96140001D01*
X135255000Y-107315000D02*
X138685001Y-103884999D01*
%TO.N,D-*%
X139135011Y-94050011D02*
X133985000Y-88900000D01*
X135256410Y-107950000D02*
X139135011Y-104071399D01*
X139135011Y-104071399D02*
X139135011Y-94050011D01*
X118745000Y-107950000D02*
X135256410Y-107950000D01*
%TO.N,Net-(R6-Pad2)*%
X158750000Y-85090000D02*
X158750000Y-80645000D01*
X143510000Y-81280000D02*
X141605000Y-81280000D01*
X146050000Y-78740000D02*
X143510000Y-81280000D01*
X154940000Y-88900000D02*
X158750000Y-85090000D01*
X158750000Y-80645000D02*
X156845000Y-78740000D01*
X156845000Y-78740000D02*
X146050000Y-78740000D01*
%TO.N,Net-(R8-Pad2)*%
X141349999Y-91184999D02*
X139065000Y-88900000D01*
X150874999Y-91184999D02*
X141349999Y-91184999D01*
X154940000Y-95250000D02*
X150874999Y-91184999D01*
%TO.N,Net-(R9-Pad2)*%
X151652055Y-87535001D02*
X145320001Y-87535001D01*
X154940000Y-82550000D02*
X154940000Y-84247056D01*
X154940000Y-84247056D02*
X151652055Y-87535001D01*
X145320001Y-87535001D02*
X144780000Y-86995000D01*
X138430000Y-86995000D02*
X136525000Y-88900000D01*
X144780000Y-86995000D02*
X138430000Y-86995000D01*
%TD*%
D29*
%TO.N,+5V*%
G36*
X178410000Y-113640000D02*
G01*
X90195000Y-113640000D01*
X90195000Y-109945098D01*
X93870000Y-109945098D01*
X93870000Y-110414902D01*
X93961654Y-110875679D01*
X94141440Y-111309721D01*
X94402450Y-111700349D01*
X94734651Y-112032550D01*
X95125279Y-112293560D01*
X95559321Y-112473346D01*
X96020098Y-112565000D01*
X96489902Y-112565000D01*
X96950679Y-112473346D01*
X97384721Y-112293560D01*
X97775349Y-112032550D01*
X98107550Y-111700349D01*
X98368560Y-111309721D01*
X98548346Y-110875679D01*
X98640000Y-110414902D01*
X98640000Y-109945098D01*
X98548346Y-109484321D01*
X98368560Y-109050279D01*
X98107550Y-108659651D01*
X97775349Y-108327450D01*
X97384721Y-108066440D01*
X96950679Y-107886654D01*
X96489902Y-107795000D01*
X96020098Y-107795000D01*
X95559321Y-107886654D01*
X95125279Y-108066440D01*
X94734651Y-108327450D01*
X94402450Y-108659651D01*
X94141440Y-109050279D01*
X93961654Y-109484321D01*
X93870000Y-109945098D01*
X90195000Y-109945098D01*
X90195000Y-97905098D01*
X93870000Y-97905098D01*
X93870000Y-98374902D01*
X93961654Y-98835679D01*
X94141440Y-99269721D01*
X94402450Y-99660349D01*
X94734651Y-99992550D01*
X95125279Y-100253560D01*
X95559321Y-100433346D01*
X96020098Y-100525000D01*
X96489902Y-100525000D01*
X96950679Y-100433346D01*
X97384721Y-100253560D01*
X97775349Y-99992550D01*
X98107550Y-99660349D01*
X98368560Y-99269721D01*
X98548346Y-98835679D01*
X98640000Y-98374902D01*
X98640000Y-97905098D01*
X98548346Y-97444321D01*
X98368560Y-97010279D01*
X98107550Y-96619651D01*
X97775349Y-96287450D01*
X97384721Y-96026440D01*
X96950679Y-95846654D01*
X96489902Y-95755000D01*
X96020098Y-95755000D01*
X95559321Y-95846654D01*
X95125279Y-96026440D01*
X94734651Y-96287450D01*
X94402450Y-96619651D01*
X94141440Y-97010279D01*
X93961654Y-97444321D01*
X93870000Y-97905098D01*
X90195000Y-97905098D01*
X90195000Y-93858363D01*
X104715000Y-93858363D01*
X104715000Y-94101637D01*
X104762460Y-94340236D01*
X104855557Y-94564992D01*
X104990713Y-94767267D01*
X105162733Y-94939287D01*
X105365008Y-95074443D01*
X105589764Y-95167540D01*
X105828363Y-95215000D01*
X106071637Y-95215000D01*
X106310236Y-95167540D01*
X106534992Y-95074443D01*
X106737267Y-94939287D01*
X106792501Y-94884053D01*
X106819463Y-94934494D01*
X106898815Y-95031185D01*
X106995506Y-95110537D01*
X107105820Y-95169502D01*
X107225518Y-95205812D01*
X107350000Y-95218072D01*
X107664250Y-95215000D01*
X107823000Y-95056250D01*
X107823000Y-94107000D01*
X108077000Y-94107000D01*
X108077000Y-95056250D01*
X108235750Y-95215000D01*
X108550000Y-95218072D01*
X108674482Y-95205812D01*
X108794180Y-95169502D01*
X108904494Y-95110537D01*
X109001185Y-95031185D01*
X109080537Y-94934494D01*
X109139502Y-94824180D01*
X109175812Y-94704482D01*
X109188072Y-94580000D01*
X109186233Y-94391806D01*
X111241801Y-94391806D01*
X111356500Y-94732754D01*
X111535511Y-95044774D01*
X111771954Y-95315875D01*
X112056743Y-95535639D01*
X112378934Y-95695621D01*
X112618195Y-95768195D01*
X112903000Y-95651432D01*
X112903000Y-94107000D01*
X113157000Y-94107000D01*
X113157000Y-95651432D01*
X113441805Y-95768195D01*
X113681066Y-95695621D01*
X114003257Y-95535639D01*
X114288046Y-95315875D01*
X114524489Y-95044774D01*
X114703500Y-94732754D01*
X114818199Y-94391806D01*
X114701854Y-94107000D01*
X113157000Y-94107000D01*
X112903000Y-94107000D01*
X111358146Y-94107000D01*
X111241801Y-94391806D01*
X109186233Y-94391806D01*
X109185000Y-94265750D01*
X109026250Y-94107000D01*
X108077000Y-94107000D01*
X107823000Y-94107000D01*
X107803000Y-94107000D01*
X107803000Y-93853000D01*
X107823000Y-93853000D01*
X107823000Y-92903750D01*
X108077000Y-92903750D01*
X108077000Y-93853000D01*
X109026250Y-93853000D01*
X109185000Y-93694250D01*
X109186232Y-93568194D01*
X111241801Y-93568194D01*
X111358146Y-93853000D01*
X112903000Y-93853000D01*
X112903000Y-92308568D01*
X113157000Y-92308568D01*
X113157000Y-93853000D01*
X114701854Y-93853000D01*
X114818199Y-93568194D01*
X114703500Y-93227246D01*
X114524489Y-92915226D01*
X114288046Y-92644125D01*
X114003257Y-92424361D01*
X113681066Y-92264379D01*
X113441805Y-92191805D01*
X113157000Y-92308568D01*
X112903000Y-92308568D01*
X112618195Y-92191805D01*
X112378934Y-92264379D01*
X112056743Y-92424361D01*
X111771954Y-92644125D01*
X111535511Y-92915226D01*
X111356500Y-93227246D01*
X111241801Y-93568194D01*
X109186232Y-93568194D01*
X109188072Y-93380000D01*
X109175812Y-93255518D01*
X109139502Y-93135820D01*
X109080537Y-93025506D01*
X109001185Y-92928815D01*
X108904494Y-92849463D01*
X108794180Y-92790498D01*
X108674482Y-92754188D01*
X108550000Y-92741928D01*
X108235750Y-92745000D01*
X108077000Y-92903750D01*
X107823000Y-92903750D01*
X107664250Y-92745000D01*
X107350000Y-92741928D01*
X107225518Y-92754188D01*
X107105820Y-92790498D01*
X106995506Y-92849463D01*
X106898815Y-92928815D01*
X106819463Y-93025506D01*
X106792501Y-93075947D01*
X106737267Y-93020713D01*
X106534992Y-92885557D01*
X106310236Y-92792460D01*
X106071637Y-92745000D01*
X105828363Y-92745000D01*
X105589764Y-92792460D01*
X105365008Y-92885557D01*
X105162733Y-93020713D01*
X104990713Y-93192733D01*
X104855557Y-93395008D01*
X104762460Y-93619764D01*
X104715000Y-93858363D01*
X90195000Y-93858363D01*
X90195000Y-86873363D01*
X104715000Y-86873363D01*
X104715000Y-87116637D01*
X104762460Y-87355236D01*
X104855557Y-87579992D01*
X104990713Y-87782267D01*
X105162733Y-87954287D01*
X105365008Y-88089443D01*
X105589764Y-88182540D01*
X105828363Y-88230000D01*
X106071637Y-88230000D01*
X106310236Y-88182540D01*
X106534992Y-88089443D01*
X106737267Y-87954287D01*
X106792501Y-87899053D01*
X106819463Y-87949494D01*
X106898815Y-88046185D01*
X106995506Y-88125537D01*
X107105820Y-88184502D01*
X107225518Y-88220812D01*
X107350000Y-88233072D01*
X107664250Y-88230000D01*
X107823000Y-88071250D01*
X107823000Y-87122000D01*
X108077000Y-87122000D01*
X108077000Y-88071250D01*
X108235750Y-88230000D01*
X108550000Y-88233072D01*
X108674482Y-88220812D01*
X108794180Y-88184502D01*
X108904494Y-88125537D01*
X109001185Y-88046185D01*
X109080537Y-87949494D01*
X109139502Y-87839180D01*
X109175812Y-87719482D01*
X109188072Y-87595000D01*
X109185000Y-87280750D01*
X109026250Y-87122000D01*
X108077000Y-87122000D01*
X107823000Y-87122000D01*
X107803000Y-87122000D01*
X107803000Y-86868000D01*
X107823000Y-86868000D01*
X107823000Y-85918750D01*
X108077000Y-85918750D01*
X108077000Y-86868000D01*
X109026250Y-86868000D01*
X109185000Y-86709250D01*
X109188072Y-86395000D01*
X109175812Y-86270518D01*
X109139502Y-86150820D01*
X109080537Y-86040506D01*
X109001185Y-85943815D01*
X108904494Y-85864463D01*
X108794180Y-85805498D01*
X108674482Y-85769188D01*
X108550000Y-85756928D01*
X108235750Y-85760000D01*
X108077000Y-85918750D01*
X107823000Y-85918750D01*
X107664250Y-85760000D01*
X107350000Y-85756928D01*
X107225518Y-85769188D01*
X107105820Y-85805498D01*
X106995506Y-85864463D01*
X106898815Y-85943815D01*
X106819463Y-86040506D01*
X106792501Y-86090947D01*
X106737267Y-86035713D01*
X106534992Y-85900557D01*
X106310236Y-85807460D01*
X106071637Y-85760000D01*
X105828363Y-85760000D01*
X105589764Y-85807460D01*
X105365008Y-85900557D01*
X105162733Y-86035713D01*
X104990713Y-86207733D01*
X104855557Y-86410008D01*
X104762460Y-86634764D01*
X104715000Y-86873363D01*
X90195000Y-86873363D01*
X90195000Y-72555612D01*
X90295820Y-72609502D01*
X90415518Y-72645812D01*
X90540000Y-72658072D01*
X92340000Y-72658072D01*
X92464482Y-72645812D01*
X92584180Y-72609502D01*
X92694494Y-72550537D01*
X92791185Y-72471185D01*
X92870537Y-72374494D01*
X92929502Y-72264180D01*
X92935056Y-72245873D01*
X93001495Y-72312312D01*
X93252905Y-72480299D01*
X93532257Y-72596011D01*
X93828816Y-72655000D01*
X94131184Y-72655000D01*
X94388930Y-72603731D01*
X95956205Y-74171008D01*
X95979999Y-74200001D01*
X96008992Y-74223795D01*
X96008996Y-74223799D01*
X96079685Y-74281811D01*
X96095724Y-74294974D01*
X96227753Y-74365546D01*
X96371014Y-74409003D01*
X96482667Y-74420000D01*
X96482676Y-74420000D01*
X96519999Y-74423676D01*
X96557322Y-74420000D01*
X120104196Y-74420000D01*
X119643997Y-74880200D01*
X119614999Y-74903998D01*
X119591201Y-74932996D01*
X119591200Y-74932997D01*
X119520025Y-75019723D01*
X119449453Y-75151753D01*
X119405997Y-75295014D01*
X119391323Y-75443999D01*
X119395000Y-75481331D01*
X119394999Y-80007644D01*
X119228087Y-79928754D01*
X119094039Y-79888096D01*
X118872000Y-80010085D01*
X118872000Y-81153000D01*
X118892000Y-81153000D01*
X118892000Y-81407000D01*
X118872000Y-81407000D01*
X118872000Y-82549915D01*
X119094039Y-82671904D01*
X119228087Y-82631246D01*
X119482420Y-82511037D01*
X119651157Y-82385960D01*
X122771200Y-85506004D01*
X122794998Y-85535002D01*
X122823996Y-85558800D01*
X122874198Y-85600000D01*
X121322322Y-85600000D01*
X121284999Y-85596324D01*
X121247676Y-85600000D01*
X121247667Y-85600000D01*
X121136014Y-85610997D01*
X120992753Y-85654454D01*
X120860724Y-85725026D01*
X120860722Y-85725027D01*
X120860723Y-85725027D01*
X120773996Y-85796201D01*
X120773992Y-85796205D01*
X120744999Y-85819999D01*
X120721205Y-85848992D01*
X119108270Y-87461928D01*
X117945000Y-87461928D01*
X117820518Y-87474188D01*
X117700820Y-87510498D01*
X117590506Y-87569463D01*
X117493815Y-87648815D01*
X117414463Y-87745506D01*
X117355498Y-87855820D01*
X117319188Y-87975518D01*
X117306928Y-88100000D01*
X117306928Y-88140000D01*
X115884803Y-88140000D01*
X113790000Y-86045199D01*
X113790000Y-82951388D01*
X113899199Y-82906156D01*
X114199744Y-82705338D01*
X114455338Y-82449744D01*
X114656156Y-82149199D01*
X114794482Y-81815250D01*
X114831521Y-81629040D01*
X117353091Y-81629040D01*
X117447930Y-81893881D01*
X117592615Y-82135131D01*
X117781586Y-82343519D01*
X118007580Y-82511037D01*
X118261913Y-82631246D01*
X118395961Y-82671904D01*
X118618000Y-82549915D01*
X118618000Y-81407000D01*
X117474376Y-81407000D01*
X117353091Y-81629040D01*
X114831521Y-81629040D01*
X114865000Y-81460732D01*
X114865000Y-81099268D01*
X114831522Y-80930960D01*
X117353091Y-80930960D01*
X117474376Y-81153000D01*
X118618000Y-81153000D01*
X118618000Y-80010085D01*
X118395961Y-79888096D01*
X118261913Y-79928754D01*
X118007580Y-80048963D01*
X117781586Y-80216481D01*
X117592615Y-80424869D01*
X117447930Y-80666119D01*
X117353091Y-80930960D01*
X114831522Y-80930960D01*
X114794482Y-80744750D01*
X114656156Y-80410801D01*
X114455338Y-80110256D01*
X114199744Y-79854662D01*
X113899199Y-79653844D01*
X113565250Y-79515518D01*
X113210732Y-79445000D01*
X112849268Y-79445000D01*
X112494750Y-79515518D01*
X112160801Y-79653844D01*
X111860256Y-79854662D01*
X111604662Y-80110256D01*
X111403844Y-80410801D01*
X111265518Y-80744750D01*
X111195000Y-81099268D01*
X111195000Y-81460732D01*
X111265518Y-81815250D01*
X111403844Y-82149199D01*
X111604662Y-82449744D01*
X111860256Y-82705338D01*
X112160801Y-82906156D01*
X112270000Y-82951388D01*
X112270001Y-86322668D01*
X112266324Y-86360000D01*
X112270001Y-86397333D01*
X112280998Y-86508986D01*
X112294180Y-86552442D01*
X112324454Y-86652246D01*
X112395026Y-86784276D01*
X112463737Y-86868000D01*
X112490000Y-86900001D01*
X112518998Y-86923799D01*
X115006205Y-89411008D01*
X115029999Y-89440001D01*
X115058992Y-89463795D01*
X115058996Y-89463799D01*
X115129685Y-89521811D01*
X115145724Y-89534974D01*
X115277753Y-89605546D01*
X115421014Y-89649003D01*
X115532667Y-89660000D01*
X115532676Y-89660000D01*
X115569999Y-89663676D01*
X115607322Y-89660000D01*
X117306928Y-89660000D01*
X117306928Y-89700000D01*
X117319188Y-89824482D01*
X117355498Y-89944180D01*
X117414463Y-90054494D01*
X117493815Y-90151185D01*
X117590506Y-90230537D01*
X117700820Y-90289502D01*
X117820518Y-90325812D01*
X117945000Y-90338072D01*
X119545000Y-90338072D01*
X119669482Y-90325812D01*
X119789180Y-90289502D01*
X119899494Y-90230537D01*
X119996185Y-90151185D01*
X120075537Y-90054494D01*
X120134502Y-89944180D01*
X120170812Y-89824482D01*
X120171643Y-89816039D01*
X120370241Y-90014637D01*
X120605273Y-90171680D01*
X120866426Y-90279853D01*
X121143665Y-90335000D01*
X121426335Y-90335000D01*
X121608886Y-90298688D01*
X123170198Y-91860000D01*
X123062998Y-91860000D01*
X123062998Y-92018748D01*
X122904250Y-91860000D01*
X122340000Y-91856928D01*
X122215518Y-91869188D01*
X122095820Y-91905498D01*
X121985506Y-91964463D01*
X121888815Y-92043815D01*
X121809463Y-92140506D01*
X121750498Y-92250820D01*
X121714188Y-92370518D01*
X121701928Y-92495000D01*
X121705000Y-93059250D01*
X121863750Y-93218000D01*
X123063000Y-93218000D01*
X123063000Y-93198000D01*
X123317000Y-93198000D01*
X123317000Y-93218000D01*
X123337000Y-93218000D01*
X123337000Y-93472000D01*
X123317000Y-93472000D01*
X123317000Y-93492000D01*
X123063000Y-93492000D01*
X123063000Y-93472000D01*
X121863750Y-93472000D01*
X121705000Y-93630750D01*
X121701928Y-94195000D01*
X121714188Y-94319482D01*
X121750498Y-94439180D01*
X121809463Y-94549494D01*
X121888815Y-94646185D01*
X121985506Y-94725537D01*
X122095820Y-94784502D01*
X122168380Y-94806513D01*
X122036525Y-94938368D01*
X121874010Y-95181589D01*
X121762068Y-95451842D01*
X121705000Y-95738740D01*
X121705000Y-96031260D01*
X121762068Y-96318158D01*
X121874010Y-96588411D01*
X122036525Y-96831632D01*
X122243368Y-97038475D01*
X122417760Y-97155000D01*
X122243368Y-97271525D01*
X122036525Y-97478368D01*
X121874010Y-97721589D01*
X121762068Y-97991842D01*
X121705000Y-98278740D01*
X121705000Y-98571260D01*
X121762068Y-98858158D01*
X121874010Y-99128411D01*
X122036525Y-99371632D01*
X122243368Y-99578475D01*
X122417760Y-99695000D01*
X122243368Y-99811525D01*
X122036525Y-100018368D01*
X121874010Y-100261589D01*
X121762068Y-100531842D01*
X121705000Y-100818740D01*
X121705000Y-101111260D01*
X121762068Y-101398158D01*
X121874010Y-101668411D01*
X122036525Y-101911632D01*
X122243368Y-102118475D01*
X122486589Y-102280990D01*
X122756842Y-102392932D01*
X123043740Y-102450000D01*
X123336260Y-102450000D01*
X123623158Y-102392932D01*
X123893411Y-102280990D01*
X124136632Y-102118475D01*
X124343475Y-101911632D01*
X124505990Y-101668411D01*
X124617932Y-101398158D01*
X124675000Y-101111260D01*
X124675000Y-100818740D01*
X124617932Y-100531842D01*
X124505990Y-100261589D01*
X124343475Y-100018368D01*
X124136632Y-99811525D01*
X123962240Y-99695000D01*
X124136632Y-99578475D01*
X124343475Y-99371632D01*
X124505990Y-99128411D01*
X124617932Y-98858158D01*
X124675000Y-98571260D01*
X124675000Y-98278740D01*
X124631210Y-98058592D01*
X125326014Y-97363788D01*
X125355011Y-97339991D01*
X125449984Y-97224266D01*
X125520556Y-97092237D01*
X125564013Y-96948976D01*
X125575010Y-96837323D01*
X125575010Y-96837314D01*
X125578686Y-96799991D01*
X125575010Y-96762668D01*
X125575010Y-90098005D01*
X125605000Y-90118044D01*
X125605001Y-91857668D01*
X125601324Y-91895000D01*
X125605001Y-91932333D01*
X125613513Y-92018750D01*
X125615998Y-92043985D01*
X125659454Y-92187246D01*
X125730026Y-92319276D01*
X125801201Y-92406002D01*
X125825000Y-92435001D01*
X125853998Y-92458799D01*
X128363833Y-94968635D01*
X128335000Y-95113589D01*
X128335000Y-95386411D01*
X128388225Y-95653989D01*
X128492629Y-95906043D01*
X128644201Y-96132886D01*
X128837114Y-96325799D01*
X128960000Y-96407909D01*
X128960001Y-98880532D01*
X128765537Y-98961082D01*
X128497748Y-99140013D01*
X128270013Y-99367748D01*
X128091082Y-99635537D01*
X127967832Y-99933088D01*
X127905000Y-100248967D01*
X127905000Y-100571033D01*
X127967832Y-100886912D01*
X128091082Y-101184463D01*
X128270013Y-101452252D01*
X128497748Y-101679987D01*
X128765537Y-101858918D01*
X129063088Y-101982168D01*
X129378967Y-102045000D01*
X129701033Y-102045000D01*
X130016912Y-101982168D01*
X130314463Y-101858918D01*
X130582252Y-101679987D01*
X130809987Y-101452252D01*
X130988918Y-101184463D01*
X131112168Y-100886912D01*
X131175000Y-100571033D01*
X131175000Y-100248967D01*
X131112168Y-99933088D01*
X130988918Y-99635537D01*
X130809987Y-99367748D01*
X130582252Y-99140013D01*
X130480000Y-99071690D01*
X130480000Y-96407909D01*
X130602886Y-96325799D01*
X130795799Y-96132886D01*
X130947371Y-95906043D01*
X131051775Y-95653989D01*
X131105000Y-95386411D01*
X131105000Y-95113589D01*
X131051775Y-94846011D01*
X130947371Y-94593957D01*
X130795799Y-94367114D01*
X130602886Y-94174201D01*
X130376043Y-94022629D01*
X130123989Y-93918225D01*
X129856411Y-93865000D01*
X129583589Y-93865000D01*
X129438635Y-93893833D01*
X127125000Y-91580199D01*
X127125000Y-90118043D01*
X127279759Y-90014637D01*
X127479637Y-89814759D01*
X127635000Y-89582241D01*
X127790363Y-89814759D01*
X127990241Y-90014637D01*
X128225273Y-90171680D01*
X128486426Y-90279853D01*
X128763665Y-90335000D01*
X129046335Y-90335000D01*
X129228887Y-90298688D01*
X133445311Y-94515113D01*
X133392629Y-94593957D01*
X133288225Y-94846011D01*
X133235000Y-95113589D01*
X133235000Y-95386411D01*
X133288225Y-95653989D01*
X133392629Y-95906043D01*
X133544201Y-96132886D01*
X133737114Y-96325799D01*
X133860000Y-96407909D01*
X133860001Y-98875091D01*
X133845537Y-98881082D01*
X133577748Y-99060013D01*
X133350013Y-99287748D01*
X133171082Y-99555537D01*
X133047832Y-99853088D01*
X132985000Y-100168967D01*
X132985000Y-100491033D01*
X133047832Y-100806912D01*
X133171082Y-101104463D01*
X133350013Y-101372252D01*
X133577748Y-101599987D01*
X133845537Y-101778918D01*
X134143088Y-101902168D01*
X134458967Y-101965000D01*
X134781033Y-101965000D01*
X135096912Y-101902168D01*
X135394463Y-101778918D01*
X135662252Y-101599987D01*
X135889987Y-101372252D01*
X136068918Y-101104463D01*
X136192168Y-100806912D01*
X136255000Y-100491033D01*
X136255000Y-100168967D01*
X136192168Y-99853088D01*
X136068918Y-99555537D01*
X135889987Y-99287748D01*
X135662252Y-99060013D01*
X135394463Y-98881082D01*
X135380000Y-98875091D01*
X135380000Y-96407909D01*
X135502886Y-96325799D01*
X135695799Y-96132886D01*
X135847371Y-95906043D01*
X135951775Y-95653989D01*
X136005000Y-95386411D01*
X136005000Y-95113589D01*
X135951775Y-94846011D01*
X135847371Y-94593957D01*
X135695799Y-94367114D01*
X135502886Y-94174201D01*
X135276043Y-94022629D01*
X135023989Y-93918225D01*
X134991580Y-93911778D01*
X131414801Y-90335000D01*
X131586335Y-90335000D01*
X131768887Y-90298688D01*
X137925002Y-96454804D01*
X137925001Y-103570197D01*
X136255000Y-105240199D01*
X136255000Y-105168967D01*
X136192168Y-104853088D01*
X136068918Y-104555537D01*
X135889987Y-104287748D01*
X135662252Y-104060013D01*
X135394463Y-103881082D01*
X135096912Y-103757832D01*
X134781033Y-103695000D01*
X134458967Y-103695000D01*
X134143088Y-103757832D01*
X133845537Y-103881082D01*
X133577748Y-104060013D01*
X133350013Y-104287748D01*
X133171082Y-104555537D01*
X133047832Y-104853088D01*
X132985000Y-105168967D01*
X132985000Y-105491033D01*
X133047832Y-105806912D01*
X133171082Y-106104463D01*
X133350013Y-106372252D01*
X133532761Y-106555000D01*
X130707239Y-106555000D01*
X130809987Y-106452252D01*
X130988918Y-106184463D01*
X131112168Y-105886912D01*
X131175000Y-105571033D01*
X131175000Y-105248967D01*
X131112168Y-104933088D01*
X130988918Y-104635537D01*
X130809987Y-104367748D01*
X130582252Y-104140013D01*
X130314463Y-103961082D01*
X130016912Y-103837832D01*
X129701033Y-103775000D01*
X129378967Y-103775000D01*
X129063088Y-103837832D01*
X128765537Y-103961082D01*
X128497748Y-104140013D01*
X128270013Y-104367748D01*
X128091082Y-104635537D01*
X127967832Y-104933088D01*
X127905000Y-105248967D01*
X127905000Y-105571033D01*
X127967832Y-105886912D01*
X128091082Y-106184463D01*
X128270013Y-106452252D01*
X128372761Y-106555000D01*
X126044802Y-106555000D01*
X120464250Y-100974449D01*
X120509482Y-100865250D01*
X120580000Y-100510732D01*
X120580000Y-100149268D01*
X120509482Y-99794750D01*
X120371156Y-99460801D01*
X120170338Y-99160256D01*
X119914744Y-98904662D01*
X119614199Y-98703844D01*
X119280250Y-98565518D01*
X118925732Y-98495000D01*
X118564268Y-98495000D01*
X118209750Y-98565518D01*
X117875801Y-98703844D01*
X117575256Y-98904662D01*
X117319662Y-99160256D01*
X117118844Y-99460801D01*
X116980518Y-99794750D01*
X116910000Y-100149268D01*
X116910000Y-100510732D01*
X116980518Y-100865250D01*
X117118844Y-101199199D01*
X117319662Y-101499744D01*
X117575256Y-101755338D01*
X117875801Y-101956156D01*
X118209750Y-102094482D01*
X118564268Y-102165000D01*
X118925732Y-102165000D01*
X119280250Y-102094482D01*
X119389449Y-102049250D01*
X124530198Y-107190000D01*
X120416388Y-107190000D01*
X120371156Y-107080801D01*
X120170338Y-106780256D01*
X119914744Y-106524662D01*
X119614199Y-106323844D01*
X119280250Y-106185518D01*
X118925732Y-106115000D01*
X118564268Y-106115000D01*
X118209750Y-106185518D01*
X117875801Y-106323844D01*
X117575256Y-106524662D01*
X117319662Y-106780256D01*
X117118844Y-107080801D01*
X116980518Y-107414750D01*
X116910000Y-107769268D01*
X116910000Y-108130732D01*
X116980518Y-108485250D01*
X117075684Y-108715001D01*
X115504804Y-108715001D01*
X107764250Y-100974449D01*
X107809482Y-100865250D01*
X107880000Y-100510732D01*
X107880000Y-100149268D01*
X107809482Y-99794750D01*
X107671156Y-99460801D01*
X107470338Y-99160256D01*
X107214744Y-98904662D01*
X106914199Y-98703844D01*
X106580250Y-98565518D01*
X106225732Y-98495000D01*
X105864268Y-98495000D01*
X105509750Y-98565518D01*
X105175801Y-98703844D01*
X104875256Y-98904662D01*
X104619662Y-99160256D01*
X104418844Y-99460801D01*
X104373612Y-99570000D01*
X101582322Y-99570000D01*
X101545000Y-99566324D01*
X101507677Y-99570000D01*
X101507667Y-99570000D01*
X101396014Y-99580997D01*
X101252753Y-99624454D01*
X101120723Y-99695026D01*
X101037083Y-99763668D01*
X101004999Y-99789999D01*
X100981201Y-99818997D01*
X99331408Y-101468791D01*
X99111260Y-101425000D01*
X98818740Y-101425000D01*
X98531842Y-101482068D01*
X98261589Y-101594010D01*
X98018368Y-101756525D01*
X97811525Y-101963368D01*
X97649010Y-102206589D01*
X97537068Y-102476842D01*
X97480000Y-102763740D01*
X97480000Y-103056260D01*
X97537068Y-103343158D01*
X97649010Y-103613411D01*
X97811525Y-103856632D01*
X98018368Y-104063475D01*
X98162828Y-104160000D01*
X98018368Y-104256525D01*
X97811525Y-104463368D01*
X97649010Y-104706589D01*
X97537068Y-104976842D01*
X97480000Y-105263740D01*
X97480000Y-105556260D01*
X97537068Y-105843158D01*
X97649010Y-106113411D01*
X97811525Y-106356632D01*
X98018368Y-106563475D01*
X98261589Y-106725990D01*
X98531842Y-106837932D01*
X98818740Y-106895000D01*
X99111260Y-106895000D01*
X99398158Y-106837932D01*
X99668411Y-106725990D01*
X99675822Y-106721038D01*
X99760506Y-106790537D01*
X99870820Y-106849502D01*
X99990518Y-106885812D01*
X100115000Y-106898072D01*
X100679250Y-106895000D01*
X100838000Y-106736250D01*
X100838000Y-105537000D01*
X101092000Y-105537000D01*
X101092000Y-106736250D01*
X101250750Y-106895000D01*
X101815000Y-106898072D01*
X101939482Y-106885812D01*
X102059180Y-106849502D01*
X102169494Y-106790537D01*
X102266185Y-106711185D01*
X102345537Y-106614494D01*
X102404502Y-106504180D01*
X102440812Y-106384482D01*
X102453072Y-106260000D01*
X102450000Y-105695750D01*
X102291250Y-105537000D01*
X101092000Y-105537000D01*
X100838000Y-105537000D01*
X100818000Y-105537000D01*
X100818000Y-105283000D01*
X100838000Y-105283000D01*
X100838000Y-105263000D01*
X101092000Y-105263000D01*
X101092000Y-105283000D01*
X102291250Y-105283000D01*
X102450000Y-105124250D01*
X102453072Y-104560000D01*
X102440812Y-104435518D01*
X102404502Y-104315820D01*
X102345537Y-104205506D01*
X102266185Y-104108815D01*
X102169494Y-104029463D01*
X102059180Y-103970498D01*
X102017310Y-103957797D01*
X102118475Y-103856632D01*
X102243178Y-103670000D01*
X103230199Y-103670000D01*
X105285000Y-105724802D01*
X105285000Y-106278612D01*
X105175801Y-106323844D01*
X104875256Y-106524662D01*
X104619662Y-106780256D01*
X104418844Y-107080801D01*
X104280518Y-107414750D01*
X104210000Y-107769268D01*
X104210000Y-108130732D01*
X104280518Y-108485250D01*
X104418844Y-108819199D01*
X104619662Y-109119744D01*
X104875256Y-109375338D01*
X105175801Y-109576156D01*
X105509750Y-109714482D01*
X105864268Y-109785000D01*
X106225732Y-109785000D01*
X106580250Y-109714482D01*
X106689449Y-109669250D01*
X109111202Y-112091004D01*
X109135000Y-112120002D01*
X109250725Y-112214975D01*
X109382754Y-112285547D01*
X109526015Y-112329004D01*
X109637668Y-112340001D01*
X109637676Y-112340001D01*
X109675001Y-112343677D01*
X109712326Y-112340001D01*
X143862679Y-112340001D01*
X143900001Y-112343677D01*
X143937323Y-112340001D01*
X143937334Y-112340001D01*
X144048987Y-112329004D01*
X144192248Y-112285547D01*
X144324277Y-112214975D01*
X144440002Y-112120002D01*
X144463805Y-112090998D01*
X146900233Y-109654570D01*
X152905000Y-109654570D01*
X152905000Y-110055430D01*
X152983204Y-110448587D01*
X153136607Y-110818934D01*
X153359313Y-111152237D01*
X153642763Y-111435687D01*
X153976066Y-111658393D01*
X154346413Y-111811796D01*
X154739570Y-111890000D01*
X155140430Y-111890000D01*
X155533587Y-111811796D01*
X155903934Y-111658393D01*
X156237237Y-111435687D01*
X156520687Y-111152237D01*
X156743393Y-110818934D01*
X156896796Y-110448587D01*
X156975000Y-110055430D01*
X156975000Y-109654570D01*
X156896796Y-109261413D01*
X156743393Y-108891066D01*
X156520687Y-108557763D01*
X156237237Y-108274313D01*
X155903934Y-108051607D01*
X155533587Y-107898204D01*
X155140430Y-107820000D01*
X154739570Y-107820000D01*
X154346413Y-107898204D01*
X153976066Y-108051607D01*
X153642763Y-108274313D01*
X153359313Y-108557763D01*
X153136607Y-108891066D01*
X152983204Y-109261413D01*
X152905000Y-109654570D01*
X146900233Y-109654570D01*
X149101004Y-107453800D01*
X149130001Y-107430003D01*
X149224974Y-107314278D01*
X149295546Y-107182249D01*
X149322713Y-107092690D01*
X149459199Y-107036156D01*
X149759744Y-106835338D01*
X150015338Y-106579744D01*
X150216156Y-106279199D01*
X150261388Y-106170000D01*
X152188041Y-106170000D01*
X152270000Y-106178072D01*
X155070000Y-106178072D01*
X155194482Y-106165812D01*
X155314180Y-106129502D01*
X155424494Y-106070537D01*
X155521185Y-105991185D01*
X155600537Y-105894494D01*
X155659502Y-105784180D01*
X155695812Y-105664482D01*
X155708072Y-105540000D01*
X155708072Y-103939570D01*
X164335000Y-103939570D01*
X164335000Y-104340430D01*
X164413204Y-104733587D01*
X164566607Y-105103934D01*
X164789313Y-105437237D01*
X165072763Y-105720687D01*
X165406066Y-105943393D01*
X165776413Y-106096796D01*
X166169570Y-106175000D01*
X166570430Y-106175000D01*
X166963587Y-106096796D01*
X167333934Y-105943393D01*
X167667237Y-105720687D01*
X167950687Y-105437237D01*
X168173393Y-105103934D01*
X168326796Y-104733587D01*
X168405000Y-104340430D01*
X168405000Y-103939570D01*
X168326796Y-103546413D01*
X168173393Y-103176066D01*
X167950687Y-102842763D01*
X167667237Y-102559313D01*
X167333934Y-102336607D01*
X166963587Y-102183204D01*
X166570430Y-102105000D01*
X166169570Y-102105000D01*
X165776413Y-102183204D01*
X165406066Y-102336607D01*
X165072763Y-102559313D01*
X164789313Y-102842763D01*
X164566607Y-103176066D01*
X164413204Y-103546413D01*
X164335000Y-103939570D01*
X155708072Y-103939570D01*
X155708072Y-102740000D01*
X155695812Y-102615518D01*
X155659502Y-102495820D01*
X155600537Y-102385506D01*
X155521185Y-102288815D01*
X155424494Y-102209463D01*
X155314180Y-102150498D01*
X155194482Y-102114188D01*
X155070000Y-102101928D01*
X152270000Y-102101928D01*
X152145518Y-102114188D01*
X152025820Y-102150498D01*
X151915506Y-102209463D01*
X151818815Y-102288815D01*
X151739463Y-102385506D01*
X151680498Y-102495820D01*
X151644188Y-102615518D01*
X151631928Y-102740000D01*
X151631928Y-104650000D01*
X150261388Y-104650000D01*
X150216156Y-104540801D01*
X150015338Y-104240256D01*
X149759744Y-103984662D01*
X149459199Y-103783844D01*
X149125250Y-103645518D01*
X148770732Y-103575000D01*
X148409268Y-103575000D01*
X148054750Y-103645518D01*
X147720801Y-103783844D01*
X147420256Y-103984662D01*
X147164662Y-104240256D01*
X146963844Y-104540801D01*
X146825518Y-104874750D01*
X146755000Y-105229268D01*
X146755000Y-105590732D01*
X146825518Y-105945250D01*
X146963844Y-106279199D01*
X147164662Y-106579744D01*
X147420256Y-106835338D01*
X147509938Y-106895262D01*
X144278072Y-110127129D01*
X144278072Y-108455000D01*
X144265812Y-108330518D01*
X144229502Y-108210820D01*
X144170537Y-108100506D01*
X144091185Y-108003815D01*
X143994494Y-107924463D01*
X143884180Y-107865498D01*
X143764482Y-107829188D01*
X143640000Y-107816928D01*
X143000000Y-107816928D01*
X143000000Y-107081388D01*
X143109199Y-107036156D01*
X143409744Y-106835338D01*
X143665338Y-106579744D01*
X143866156Y-106279199D01*
X144004482Y-105945250D01*
X144075000Y-105590732D01*
X144075000Y-105229268D01*
X144004482Y-104874750D01*
X143866156Y-104540801D01*
X143665338Y-104240256D01*
X143409744Y-103984662D01*
X143109199Y-103783844D01*
X142775250Y-103645518D01*
X142420732Y-103575000D01*
X142059268Y-103575000D01*
X141704750Y-103645518D01*
X141370801Y-103783844D01*
X141070256Y-103984662D01*
X140814662Y-104240256D01*
X140613844Y-104540801D01*
X140475518Y-104874750D01*
X140405000Y-105229268D01*
X140405000Y-105590732D01*
X140475518Y-105945250D01*
X140520750Y-106054449D01*
X137860198Y-108715001D01*
X120414316Y-108715001D01*
X120416388Y-108710000D01*
X135219088Y-108710000D01*
X135256410Y-108713676D01*
X135293732Y-108710000D01*
X135293743Y-108710000D01*
X135405396Y-108699003D01*
X135548657Y-108655546D01*
X135680686Y-108584974D01*
X135796411Y-108490001D01*
X135820214Y-108460997D01*
X139646015Y-104635197D01*
X139675012Y-104611400D01*
X139732951Y-104540801D01*
X139769985Y-104495676D01*
X139840557Y-104363646D01*
X139848357Y-104337932D01*
X139884014Y-104220385D01*
X139895011Y-104108732D01*
X139895011Y-104108723D01*
X139898687Y-104071400D01*
X139895011Y-104034077D01*
X139895011Y-94087333D01*
X139898687Y-94050010D01*
X139895011Y-94012687D01*
X139895011Y-94012678D01*
X139884014Y-93901025D01*
X139840557Y-93757764D01*
X139769985Y-93625735D01*
X139756822Y-93609696D01*
X139698810Y-93539007D01*
X139698806Y-93539003D01*
X139675012Y-93510010D01*
X139646019Y-93486216D01*
X139281609Y-93121806D01*
X140451801Y-93121806D01*
X140566500Y-93462754D01*
X140745511Y-93774774D01*
X140981954Y-94045875D01*
X141266743Y-94265639D01*
X141588934Y-94425621D01*
X141828195Y-94498195D01*
X142113000Y-94381432D01*
X142113000Y-92837000D01*
X142367000Y-92837000D01*
X142367000Y-94381432D01*
X142651805Y-94498195D01*
X142891066Y-94425621D01*
X143213257Y-94265639D01*
X143498046Y-94045875D01*
X143734489Y-93774774D01*
X143913500Y-93462754D01*
X144028199Y-93121806D01*
X146801801Y-93121806D01*
X146916500Y-93462754D01*
X147095511Y-93774774D01*
X147331954Y-94045875D01*
X147616743Y-94265639D01*
X147938934Y-94425621D01*
X148178195Y-94498195D01*
X148463000Y-94381432D01*
X148463000Y-92837000D01*
X148717000Y-92837000D01*
X148717000Y-94381432D01*
X149001805Y-94498195D01*
X149241066Y-94425621D01*
X149563257Y-94265639D01*
X149848046Y-94045875D01*
X150084489Y-93774774D01*
X150263500Y-93462754D01*
X150378199Y-93121806D01*
X150261854Y-92837000D01*
X148717000Y-92837000D01*
X148463000Y-92837000D01*
X146918146Y-92837000D01*
X146801801Y-93121806D01*
X144028199Y-93121806D01*
X143911854Y-92837000D01*
X142367000Y-92837000D01*
X142113000Y-92837000D01*
X140568146Y-92837000D01*
X140451801Y-93121806D01*
X139281609Y-93121806D01*
X136494802Y-90335000D01*
X136666335Y-90335000D01*
X136943574Y-90279853D01*
X137204727Y-90171680D01*
X137439759Y-90014637D01*
X137639637Y-89814759D01*
X137795000Y-89582241D01*
X137950363Y-89814759D01*
X138150241Y-90014637D01*
X138385273Y-90171680D01*
X138646426Y-90279853D01*
X138923665Y-90335000D01*
X139206335Y-90335000D01*
X139388886Y-90298688D01*
X140741834Y-91651636D01*
X140566500Y-91957246D01*
X140451801Y-92298194D01*
X140568146Y-92583000D01*
X142113000Y-92583000D01*
X142113000Y-92563000D01*
X142367000Y-92563000D01*
X142367000Y-92583000D01*
X143911854Y-92583000D01*
X144028199Y-92298194D01*
X143913500Y-91957246D01*
X143906474Y-91944999D01*
X146923526Y-91944999D01*
X146916500Y-91957246D01*
X146801801Y-92298194D01*
X146918146Y-92583000D01*
X148463000Y-92583000D01*
X148463000Y-92563000D01*
X148717000Y-92563000D01*
X148717000Y-92583000D01*
X150261854Y-92583000D01*
X150378199Y-92298194D01*
X150263500Y-91957246D01*
X150256474Y-91944999D01*
X150560198Y-91944999D01*
X153220750Y-94605551D01*
X153175518Y-94714750D01*
X153105000Y-95069268D01*
X153105000Y-95430732D01*
X153175518Y-95785250D01*
X153313844Y-96119199D01*
X153514662Y-96419744D01*
X153770256Y-96675338D01*
X154070801Y-96876156D01*
X154404750Y-97014482D01*
X154759268Y-97085000D01*
X155120732Y-97085000D01*
X155475250Y-97014482D01*
X155809199Y-96876156D01*
X156109744Y-96675338D01*
X156365338Y-96419744D01*
X156566156Y-96119199D01*
X156704482Y-95785250D01*
X156775000Y-95430732D01*
X156775000Y-95069268D01*
X156704482Y-94714750D01*
X156566156Y-94380801D01*
X156365338Y-94080256D01*
X156109744Y-93824662D01*
X155809199Y-93623844D01*
X155475250Y-93485518D01*
X155120732Y-93415000D01*
X154759268Y-93415000D01*
X154404750Y-93485518D01*
X154295551Y-93530750D01*
X151438803Y-90674002D01*
X151415000Y-90644998D01*
X151299275Y-90550025D01*
X151167246Y-90479453D01*
X151023985Y-90435996D01*
X150912332Y-90424999D01*
X150912321Y-90424999D01*
X150874999Y-90421323D01*
X150837677Y-90424999D01*
X141664801Y-90424999D01*
X141574802Y-90335000D01*
X141746335Y-90335000D01*
X142023574Y-90279853D01*
X142284727Y-90171680D01*
X142519759Y-90014637D01*
X142719637Y-89814759D01*
X142876680Y-89579727D01*
X142984853Y-89318574D01*
X143040000Y-89041335D01*
X143040000Y-88758665D01*
X142984853Y-88481426D01*
X142876680Y-88220273D01*
X142719637Y-87985241D01*
X142519759Y-87785363D01*
X142474317Y-87755000D01*
X144465199Y-87755000D01*
X144756201Y-88046003D01*
X144780000Y-88075002D01*
X144895725Y-88169975D01*
X145027754Y-88240547D01*
X145171015Y-88284004D01*
X145282668Y-88295001D01*
X145282676Y-88295001D01*
X145320001Y-88298677D01*
X145357326Y-88295001D01*
X151614733Y-88295001D01*
X151652055Y-88298677D01*
X151689377Y-88295001D01*
X151689388Y-88295001D01*
X151801041Y-88284004D01*
X151944302Y-88240547D01*
X152076331Y-88169975D01*
X152192056Y-88075002D01*
X152215859Y-88045998D01*
X155451008Y-84810851D01*
X155480001Y-84787057D01*
X155503795Y-84758064D01*
X155503799Y-84758060D01*
X155561811Y-84687371D01*
X155574974Y-84671332D01*
X155645546Y-84539303D01*
X155689003Y-84396042D01*
X155700000Y-84284389D01*
X155700000Y-84284380D01*
X155703676Y-84247057D01*
X155701103Y-84220931D01*
X155809199Y-84176156D01*
X156109744Y-83975338D01*
X156365338Y-83719744D01*
X156566156Y-83419199D01*
X156704482Y-83085250D01*
X156775000Y-82730732D01*
X156775000Y-82369268D01*
X156704482Y-82014750D01*
X156566156Y-81680801D01*
X156365338Y-81380256D01*
X156109744Y-81124662D01*
X155809199Y-80923844D01*
X155475250Y-80785518D01*
X155120732Y-80715000D01*
X154759268Y-80715000D01*
X154404750Y-80785518D01*
X154070801Y-80923844D01*
X153770256Y-81124662D01*
X153514662Y-81380256D01*
X153313844Y-81680801D01*
X153175518Y-82014750D01*
X153105000Y-82369268D01*
X153105000Y-82730732D01*
X153175518Y-83085250D01*
X153313844Y-83419199D01*
X153514662Y-83719744D01*
X153770256Y-83975338D01*
X153990052Y-84122201D01*
X151966481Y-86145774D01*
X151922932Y-85926842D01*
X151810990Y-85656589D01*
X151675296Y-85453508D01*
X152181009Y-84947796D01*
X152210002Y-84924002D01*
X152233796Y-84895009D01*
X152233800Y-84895005D01*
X152304974Y-84808278D01*
X152304975Y-84808277D01*
X152375547Y-84676248D01*
X152419004Y-84532987D01*
X152430001Y-84421334D01*
X152430001Y-84421325D01*
X152433677Y-84384002D01*
X152430001Y-84346679D01*
X152430001Y-83293321D01*
X152433677Y-83255998D01*
X152430001Y-83218675D01*
X152430001Y-83218666D01*
X152419004Y-83107013D01*
X152375547Y-82963752D01*
X152304975Y-82831723D01*
X152274004Y-82793985D01*
X152233800Y-82744995D01*
X152233796Y-82744991D01*
X152210002Y-82715998D01*
X152181010Y-82692205D01*
X151667987Y-82179184D01*
X151766641Y-82046920D01*
X151891825Y-81784099D01*
X151936476Y-81636890D01*
X151815155Y-81407000D01*
X150622000Y-81407000D01*
X150622000Y-81427000D01*
X150368000Y-81427000D01*
X150368000Y-81407000D01*
X150348000Y-81407000D01*
X150348000Y-81153000D01*
X150368000Y-81153000D01*
X150368000Y-79959186D01*
X150622000Y-79959186D01*
X150622000Y-81153000D01*
X151815155Y-81153000D01*
X151936476Y-80923110D01*
X151891825Y-80775901D01*
X151766641Y-80513080D01*
X151592588Y-80279731D01*
X151376355Y-80084822D01*
X151126252Y-79935843D01*
X150851891Y-79838519D01*
X150622000Y-79959186D01*
X150368000Y-79959186D01*
X150138109Y-79838519D01*
X149863748Y-79935843D01*
X149613645Y-80084822D01*
X149417498Y-80261626D01*
X149394502Y-80185820D01*
X149335537Y-80075506D01*
X149256185Y-79978815D01*
X149159494Y-79899463D01*
X149049180Y-79840498D01*
X148929482Y-79804188D01*
X148805000Y-79791928D01*
X147105000Y-79791928D01*
X146980518Y-79804188D01*
X146860820Y-79840498D01*
X146750506Y-79899463D01*
X146653815Y-79978815D01*
X146574463Y-80075506D01*
X146515498Y-80185820D01*
X146479188Y-80305518D01*
X146466928Y-80430000D01*
X146466928Y-81884999D01*
X143970801Y-81884999D01*
X144050001Y-81820001D01*
X144073804Y-81790997D01*
X146364803Y-79500000D01*
X156530199Y-79500000D01*
X157990001Y-80959803D01*
X157990000Y-84775198D01*
X155584449Y-87180750D01*
X155475250Y-87135518D01*
X155120732Y-87065000D01*
X154759268Y-87065000D01*
X154404750Y-87135518D01*
X154070801Y-87273844D01*
X153770256Y-87474662D01*
X153514662Y-87730256D01*
X153313844Y-88030801D01*
X153175518Y-88364750D01*
X153105000Y-88719268D01*
X153105000Y-89080732D01*
X153175518Y-89435250D01*
X153313844Y-89769199D01*
X153514662Y-90069744D01*
X153770256Y-90325338D01*
X154070801Y-90526156D01*
X154404750Y-90664482D01*
X154759268Y-90735000D01*
X155120732Y-90735000D01*
X155475250Y-90664482D01*
X155809199Y-90526156D01*
X156109744Y-90325338D01*
X156365338Y-90069744D01*
X156566156Y-89769199D01*
X156704482Y-89435250D01*
X156775000Y-89080732D01*
X156775000Y-88719268D01*
X156704482Y-88364750D01*
X156659250Y-88255551D01*
X159261004Y-85653798D01*
X159290001Y-85630001D01*
X159384974Y-85514276D01*
X159455546Y-85382247D01*
X159499003Y-85238986D01*
X159510000Y-85127333D01*
X159510000Y-85127325D01*
X159513676Y-85090000D01*
X159510000Y-85052675D01*
X159510000Y-80682323D01*
X159513676Y-80645000D01*
X159510000Y-80607677D01*
X159510000Y-80607667D01*
X159499003Y-80496014D01*
X159455546Y-80352753D01*
X159384974Y-80220724D01*
X159290001Y-80104999D01*
X159261003Y-80081201D01*
X157408804Y-78229003D01*
X157385001Y-78199999D01*
X157269276Y-78105026D01*
X157231811Y-78085000D01*
X157555656Y-78085000D01*
X157919834Y-78012561D01*
X158262882Y-77870466D01*
X158571618Y-77664175D01*
X158834175Y-77401618D01*
X159040466Y-77092882D01*
X159182561Y-76749834D01*
X159255000Y-76385656D01*
X159255000Y-76014344D01*
X159182561Y-75650166D01*
X159040466Y-75307118D01*
X158834175Y-74998382D01*
X158571618Y-74735825D01*
X158262882Y-74529534D01*
X157998443Y-74420000D01*
X160701557Y-74420000D01*
X160437118Y-74529534D01*
X160128382Y-74735825D01*
X159865825Y-74998382D01*
X159659534Y-75307118D01*
X159517439Y-75650166D01*
X159445000Y-76014344D01*
X159445000Y-76385656D01*
X159517439Y-76749834D01*
X159659534Y-77092882D01*
X159865825Y-77401618D01*
X160128382Y-77664175D01*
X160437118Y-77870466D01*
X160780166Y-78012561D01*
X161144344Y-78085000D01*
X161515656Y-78085000D01*
X161879834Y-78012561D01*
X162222882Y-77870466D01*
X162531618Y-77664175D01*
X162682188Y-77513605D01*
X164156000Y-77513605D01*
X164281914Y-77803577D01*
X164614126Y-77969433D01*
X164972312Y-78067290D01*
X165342706Y-78093389D01*
X165711075Y-78046725D01*
X166063262Y-77929094D01*
X166298086Y-77803577D01*
X166424000Y-77513605D01*
X165290000Y-76379605D01*
X164156000Y-77513605D01*
X162682188Y-77513605D01*
X162794175Y-77401618D01*
X163000466Y-77092882D01*
X163142561Y-76749834D01*
X163215000Y-76385656D01*
X163215000Y-76252706D01*
X163396611Y-76252706D01*
X163443275Y-76621075D01*
X163560906Y-76973262D01*
X163686423Y-77208086D01*
X163976395Y-77334000D01*
X165110395Y-76200000D01*
X163976395Y-75066000D01*
X163686423Y-75191914D01*
X163520567Y-75524126D01*
X163422710Y-75882312D01*
X163396611Y-76252706D01*
X163215000Y-76252706D01*
X163215000Y-76014344D01*
X163142561Y-75650166D01*
X163000466Y-75307118D01*
X162794175Y-74998382D01*
X162531618Y-74735825D01*
X162222882Y-74529534D01*
X161958443Y-74420000D01*
X164669150Y-74420000D01*
X164516738Y-74470906D01*
X164281914Y-74596423D01*
X164156000Y-74886395D01*
X165290000Y-76020395D01*
X165304143Y-76006253D01*
X165483748Y-76185858D01*
X165469605Y-76200000D01*
X166603605Y-77334000D01*
X166880001Y-77213981D01*
X166880000Y-80878612D01*
X166770801Y-80923844D01*
X166470256Y-81124662D01*
X166214662Y-81380256D01*
X166013844Y-81680801D01*
X165875518Y-82014750D01*
X165805000Y-82369268D01*
X165805000Y-82730732D01*
X165875518Y-83085250D01*
X166013844Y-83419199D01*
X166214662Y-83719744D01*
X166470256Y-83975338D01*
X166770801Y-84176156D01*
X167104750Y-84314482D01*
X167459268Y-84385000D01*
X167820732Y-84385000D01*
X168175250Y-84314482D01*
X168405001Y-84219316D01*
X168405001Y-87060197D01*
X168284449Y-87180750D01*
X168175250Y-87135518D01*
X167820732Y-87065000D01*
X167459268Y-87065000D01*
X167104750Y-87135518D01*
X166770801Y-87273844D01*
X166470256Y-87474662D01*
X166214662Y-87730256D01*
X166013844Y-88030801D01*
X165875518Y-88364750D01*
X165805000Y-88719268D01*
X165805000Y-89080732D01*
X165875518Y-89435250D01*
X166013844Y-89769199D01*
X166214662Y-90069744D01*
X166470256Y-90325338D01*
X166770801Y-90526156D01*
X167104750Y-90664482D01*
X167459268Y-90735000D01*
X167820732Y-90735000D01*
X168175250Y-90664482D01*
X168509199Y-90526156D01*
X168809744Y-90325338D01*
X168855010Y-90280072D01*
X168855010Y-92960188D01*
X168284449Y-93530750D01*
X168175250Y-93485518D01*
X167820732Y-93415000D01*
X167459268Y-93415000D01*
X167104750Y-93485518D01*
X166770801Y-93623844D01*
X166470256Y-93824662D01*
X166214662Y-94080256D01*
X166013844Y-94380801D01*
X165875518Y-94714750D01*
X165805000Y-95069268D01*
X165805000Y-95430732D01*
X165875518Y-95785250D01*
X166013844Y-96119199D01*
X166214662Y-96419744D01*
X166470256Y-96675338D01*
X166770801Y-96876156D01*
X167104750Y-97014482D01*
X167459268Y-97085000D01*
X167820732Y-97085000D01*
X168175250Y-97014482D01*
X168509199Y-96876156D01*
X168809744Y-96675338D01*
X169065338Y-96419744D01*
X169266156Y-96119199D01*
X169404482Y-95785250D01*
X169475000Y-95430732D01*
X169475000Y-95069268D01*
X169404482Y-94714750D01*
X169359250Y-94605551D01*
X170126014Y-93838788D01*
X170155011Y-93814991D01*
X170201976Y-93757764D01*
X170249984Y-93699267D01*
X170320556Y-93567237D01*
X170337915Y-93510010D01*
X170364013Y-93423976D01*
X170375010Y-93312323D01*
X170375010Y-93312313D01*
X170378686Y-93274990D01*
X170375010Y-93237667D01*
X170375010Y-76305922D01*
X170378686Y-76268599D01*
X170375010Y-76231276D01*
X170375010Y-76231267D01*
X170364013Y-76119614D01*
X170320556Y-75976353D01*
X170249984Y-75844324D01*
X170155011Y-75728599D01*
X170126013Y-75704801D01*
X166653532Y-72232320D01*
X166893577Y-72128086D01*
X167059433Y-71795874D01*
X167157290Y-71437688D01*
X167183389Y-71067294D01*
X167136725Y-70698925D01*
X167019094Y-70346738D01*
X166893577Y-70111914D01*
X166603605Y-69986000D01*
X165469605Y-71120000D01*
X165483748Y-71134143D01*
X165304143Y-71313748D01*
X165290000Y-71299605D01*
X165275858Y-71313748D01*
X165096253Y-71134143D01*
X165110395Y-71120000D01*
X163976395Y-69986000D01*
X163686423Y-70111914D01*
X163520567Y-70444126D01*
X163422710Y-70802312D01*
X163396611Y-71172706D01*
X163443275Y-71541075D01*
X163560906Y-71893262D01*
X163583216Y-71935001D01*
X163032725Y-71935001D01*
X163142561Y-71669834D01*
X163215000Y-71305656D01*
X163215000Y-70934344D01*
X163142561Y-70570166D01*
X163000466Y-70227118D01*
X162794175Y-69918382D01*
X162682188Y-69806395D01*
X164156000Y-69806395D01*
X165290000Y-70940395D01*
X166424000Y-69806395D01*
X166298086Y-69516423D01*
X165965874Y-69350567D01*
X165607688Y-69252710D01*
X165237294Y-69226611D01*
X164868925Y-69273275D01*
X164516738Y-69390906D01*
X164281914Y-69516423D01*
X164156000Y-69806395D01*
X162682188Y-69806395D01*
X162531618Y-69655825D01*
X162222882Y-69449534D01*
X161879834Y-69307439D01*
X161515656Y-69235000D01*
X161144344Y-69235000D01*
X160780166Y-69307439D01*
X160437118Y-69449534D01*
X160128382Y-69655825D01*
X159865825Y-69918382D01*
X159659534Y-70227118D01*
X159517439Y-70570166D01*
X159445000Y-70934344D01*
X159445000Y-71305656D01*
X159517439Y-71669834D01*
X159627275Y-71935001D01*
X159072725Y-71935001D01*
X159182561Y-71669834D01*
X159255000Y-71305656D01*
X159255000Y-70934344D01*
X159182561Y-70570166D01*
X159040466Y-70227118D01*
X158834175Y-69918382D01*
X158571618Y-69655825D01*
X158262882Y-69449534D01*
X157919834Y-69307439D01*
X157555656Y-69235000D01*
X157184344Y-69235000D01*
X156820166Y-69307439D01*
X156477118Y-69449534D01*
X156168382Y-69655825D01*
X155905825Y-69918382D01*
X155699534Y-70227118D01*
X155557439Y-70570166D01*
X155485000Y-70934344D01*
X155485000Y-71305656D01*
X155557439Y-71669834D01*
X155667275Y-71935001D01*
X155112725Y-71935001D01*
X155222561Y-71669834D01*
X155295000Y-71305656D01*
X155295000Y-70934344D01*
X155222561Y-70570166D01*
X155080466Y-70227118D01*
X154874175Y-69918382D01*
X154611618Y-69655825D01*
X154302882Y-69449534D01*
X153959834Y-69307439D01*
X153595656Y-69235000D01*
X153224344Y-69235000D01*
X152860166Y-69307439D01*
X152517118Y-69449534D01*
X152208382Y-69655825D01*
X151945825Y-69918382D01*
X151739534Y-70227118D01*
X151597439Y-70570166D01*
X151525000Y-70934344D01*
X151525000Y-71305656D01*
X151597439Y-71669834D01*
X151707275Y-71935001D01*
X151152725Y-71935001D01*
X151262561Y-71669834D01*
X151335000Y-71305656D01*
X151335000Y-70934344D01*
X151262561Y-70570166D01*
X151120466Y-70227118D01*
X150914175Y-69918382D01*
X150651618Y-69655825D01*
X150342882Y-69449534D01*
X149999834Y-69307439D01*
X149635656Y-69235000D01*
X149264344Y-69235000D01*
X148900166Y-69307439D01*
X148557118Y-69449534D01*
X148248382Y-69655825D01*
X147985825Y-69918382D01*
X147779534Y-70227118D01*
X147637439Y-70570166D01*
X147565000Y-70934344D01*
X147565000Y-71305656D01*
X147637439Y-71669834D01*
X147747275Y-71935001D01*
X147192725Y-71935001D01*
X147302561Y-71669834D01*
X147375000Y-71305656D01*
X147375000Y-70934344D01*
X147302561Y-70570166D01*
X147160466Y-70227118D01*
X146954175Y-69918382D01*
X146691618Y-69655825D01*
X146382882Y-69449534D01*
X146039834Y-69307439D01*
X145675656Y-69235000D01*
X145304344Y-69235000D01*
X144940166Y-69307439D01*
X144597118Y-69449534D01*
X144288382Y-69655825D01*
X144025825Y-69918382D01*
X143819534Y-70227118D01*
X143677439Y-70570166D01*
X143605000Y-70934344D01*
X143605000Y-71305656D01*
X143677439Y-71669834D01*
X143787275Y-71935001D01*
X143232725Y-71935001D01*
X143342561Y-71669834D01*
X143415000Y-71305656D01*
X143415000Y-70934344D01*
X143342561Y-70570166D01*
X143200466Y-70227118D01*
X142994175Y-69918382D01*
X142731618Y-69655825D01*
X142422882Y-69449534D01*
X142079834Y-69307439D01*
X141715656Y-69235000D01*
X141344344Y-69235000D01*
X140980166Y-69307439D01*
X140637118Y-69449534D01*
X140328382Y-69655825D01*
X140065825Y-69918382D01*
X139859534Y-70227118D01*
X139717439Y-70570166D01*
X139645000Y-70934344D01*
X139645000Y-71305656D01*
X139717439Y-71669834D01*
X139827275Y-71935001D01*
X139272725Y-71935001D01*
X139382561Y-71669834D01*
X139455000Y-71305656D01*
X139455000Y-70934344D01*
X139382561Y-70570166D01*
X139240466Y-70227118D01*
X139034175Y-69918382D01*
X138771618Y-69655825D01*
X138462882Y-69449534D01*
X138119834Y-69307439D01*
X137755656Y-69235000D01*
X137384344Y-69235000D01*
X137020166Y-69307439D01*
X136677118Y-69449534D01*
X136368382Y-69655825D01*
X136105825Y-69918382D01*
X135899534Y-70227118D01*
X135757439Y-70570166D01*
X135685000Y-70934344D01*
X135685000Y-71305656D01*
X135757439Y-71669834D01*
X135867275Y-71935001D01*
X135312725Y-71935001D01*
X135422561Y-71669834D01*
X135495000Y-71305656D01*
X135495000Y-70934344D01*
X135422561Y-70570166D01*
X135280466Y-70227118D01*
X135074175Y-69918382D01*
X134811618Y-69655825D01*
X134502882Y-69449534D01*
X134159834Y-69307439D01*
X133795656Y-69235000D01*
X133424344Y-69235000D01*
X133060166Y-69307439D01*
X132717118Y-69449534D01*
X132408382Y-69655825D01*
X132145825Y-69918382D01*
X131939534Y-70227118D01*
X131797439Y-70570166D01*
X131725000Y-70934344D01*
X131725000Y-71305656D01*
X131797439Y-71669834D01*
X131907275Y-71935001D01*
X131352725Y-71935001D01*
X131462561Y-71669834D01*
X131535000Y-71305656D01*
X131535000Y-70934344D01*
X131462561Y-70570166D01*
X131320466Y-70227118D01*
X131114175Y-69918382D01*
X130851618Y-69655825D01*
X130542882Y-69449534D01*
X130199834Y-69307439D01*
X129835656Y-69235000D01*
X129464344Y-69235000D01*
X129100166Y-69307439D01*
X128757118Y-69449534D01*
X128448382Y-69655825D01*
X128185825Y-69918382D01*
X127979534Y-70227118D01*
X127837439Y-70570166D01*
X127765000Y-70934344D01*
X127765000Y-71305656D01*
X127837439Y-71669834D01*
X127947275Y-71935001D01*
X127392725Y-71935001D01*
X127502561Y-71669834D01*
X127575000Y-71305656D01*
X127575000Y-70934344D01*
X127502561Y-70570166D01*
X127360466Y-70227118D01*
X127154175Y-69918382D01*
X126891618Y-69655825D01*
X126582882Y-69449534D01*
X126239834Y-69307439D01*
X125875656Y-69235000D01*
X125504344Y-69235000D01*
X125140166Y-69307439D01*
X124797118Y-69449534D01*
X124488382Y-69655825D01*
X124225825Y-69918382D01*
X124019534Y-70227118D01*
X123877439Y-70570166D01*
X123805000Y-70934344D01*
X123805000Y-71305656D01*
X123877439Y-71669834D01*
X123987275Y-71935001D01*
X123432725Y-71935001D01*
X123542561Y-71669834D01*
X123615000Y-71305656D01*
X123615000Y-70934344D01*
X123542561Y-70570166D01*
X123400466Y-70227118D01*
X123194175Y-69918382D01*
X122931618Y-69655825D01*
X122622882Y-69449534D01*
X122279834Y-69307439D01*
X121915656Y-69235000D01*
X121544344Y-69235000D01*
X121180166Y-69307439D01*
X120837118Y-69449534D01*
X120528382Y-69655825D01*
X120265825Y-69918382D01*
X120059534Y-70227118D01*
X119917439Y-70570166D01*
X119845000Y-70934344D01*
X119845000Y-71305656D01*
X119917439Y-71669834D01*
X120027275Y-71935001D01*
X108569803Y-71935001D01*
X108163731Y-71528930D01*
X108215000Y-71271184D01*
X108215000Y-70968816D01*
X108156011Y-70672257D01*
X108040299Y-70392905D01*
X107872312Y-70141495D01*
X107658505Y-69927688D01*
X107407095Y-69759701D01*
X107127743Y-69643989D01*
X106831184Y-69585000D01*
X106528816Y-69585000D01*
X106232257Y-69643989D01*
X105952905Y-69759701D01*
X105701495Y-69927688D01*
X105635056Y-69994127D01*
X105629502Y-69975820D01*
X105570537Y-69865506D01*
X105491185Y-69768815D01*
X105394494Y-69689463D01*
X105284180Y-69630498D01*
X105164482Y-69594188D01*
X105040000Y-69581928D01*
X103240000Y-69581928D01*
X103115518Y-69594188D01*
X102995820Y-69630498D01*
X102885506Y-69689463D01*
X102788815Y-69768815D01*
X102709463Y-69865506D01*
X102650498Y-69975820D01*
X102614188Y-70095518D01*
X102601928Y-70220000D01*
X102601928Y-72020000D01*
X102614188Y-72144482D01*
X102650498Y-72264180D01*
X102709463Y-72374494D01*
X102718094Y-72385011D01*
X102669813Y-72385011D01*
X101813731Y-71528930D01*
X101865000Y-71271184D01*
X101865000Y-70968816D01*
X101806011Y-70672257D01*
X101690299Y-70392905D01*
X101522312Y-70141495D01*
X101308505Y-69927688D01*
X101057095Y-69759701D01*
X100777743Y-69643989D01*
X100481184Y-69585000D01*
X100178816Y-69585000D01*
X99882257Y-69643989D01*
X99602905Y-69759701D01*
X99351495Y-69927688D01*
X99285056Y-69994127D01*
X99279502Y-69975820D01*
X99220537Y-69865506D01*
X99141185Y-69768815D01*
X99044494Y-69689463D01*
X98934180Y-69630498D01*
X98814482Y-69594188D01*
X98690000Y-69581928D01*
X96890000Y-69581928D01*
X96765518Y-69594188D01*
X96645820Y-69630498D01*
X96535506Y-69689463D01*
X96438815Y-69768815D01*
X96359463Y-69865506D01*
X96300498Y-69975820D01*
X96264188Y-70095518D01*
X96251928Y-70220000D01*
X96251928Y-72020000D01*
X96264188Y-72144482D01*
X96300498Y-72264180D01*
X96359463Y-72374494D01*
X96438815Y-72471185D01*
X96535506Y-72550537D01*
X96645820Y-72609502D01*
X96765518Y-72645812D01*
X96890000Y-72658072D01*
X98690000Y-72658072D01*
X98814482Y-72645812D01*
X98934180Y-72609502D01*
X99044494Y-72550537D01*
X99141185Y-72471185D01*
X99220537Y-72374494D01*
X99279502Y-72264180D01*
X99285056Y-72245873D01*
X99351495Y-72312312D01*
X99602905Y-72480299D01*
X99882257Y-72596011D01*
X100178816Y-72655000D01*
X100481184Y-72655000D01*
X100738930Y-72603731D01*
X101035198Y-72900000D01*
X96834803Y-72900000D01*
X95463731Y-71528930D01*
X95515000Y-71271184D01*
X95515000Y-70968816D01*
X95456011Y-70672257D01*
X95340299Y-70392905D01*
X95172312Y-70141495D01*
X94958505Y-69927688D01*
X94707095Y-69759701D01*
X94427743Y-69643989D01*
X94131184Y-69585000D01*
X93828816Y-69585000D01*
X93532257Y-69643989D01*
X93252905Y-69759701D01*
X93001495Y-69927688D01*
X92935056Y-69994127D01*
X92929502Y-69975820D01*
X92870537Y-69865506D01*
X92791185Y-69768815D01*
X92694494Y-69689463D01*
X92584180Y-69630498D01*
X92464482Y-69594188D01*
X92340000Y-69581928D01*
X90540000Y-69581928D01*
X90415518Y-69594188D01*
X90295820Y-69630498D01*
X90195000Y-69684388D01*
X90195000Y-67970000D01*
X178410001Y-67970000D01*
X178410000Y-113640000D01*
G37*
X178410000Y-113640000D02*
X90195000Y-113640000D01*
X90195000Y-109945098D01*
X93870000Y-109945098D01*
X93870000Y-110414902D01*
X93961654Y-110875679D01*
X94141440Y-111309721D01*
X94402450Y-111700349D01*
X94734651Y-112032550D01*
X95125279Y-112293560D01*
X95559321Y-112473346D01*
X96020098Y-112565000D01*
X96489902Y-112565000D01*
X96950679Y-112473346D01*
X97384721Y-112293560D01*
X97775349Y-112032550D01*
X98107550Y-111700349D01*
X98368560Y-111309721D01*
X98548346Y-110875679D01*
X98640000Y-110414902D01*
X98640000Y-109945098D01*
X98548346Y-109484321D01*
X98368560Y-109050279D01*
X98107550Y-108659651D01*
X97775349Y-108327450D01*
X97384721Y-108066440D01*
X96950679Y-107886654D01*
X96489902Y-107795000D01*
X96020098Y-107795000D01*
X95559321Y-107886654D01*
X95125279Y-108066440D01*
X94734651Y-108327450D01*
X94402450Y-108659651D01*
X94141440Y-109050279D01*
X93961654Y-109484321D01*
X93870000Y-109945098D01*
X90195000Y-109945098D01*
X90195000Y-97905098D01*
X93870000Y-97905098D01*
X93870000Y-98374902D01*
X93961654Y-98835679D01*
X94141440Y-99269721D01*
X94402450Y-99660349D01*
X94734651Y-99992550D01*
X95125279Y-100253560D01*
X95559321Y-100433346D01*
X96020098Y-100525000D01*
X96489902Y-100525000D01*
X96950679Y-100433346D01*
X97384721Y-100253560D01*
X97775349Y-99992550D01*
X98107550Y-99660349D01*
X98368560Y-99269721D01*
X98548346Y-98835679D01*
X98640000Y-98374902D01*
X98640000Y-97905098D01*
X98548346Y-97444321D01*
X98368560Y-97010279D01*
X98107550Y-96619651D01*
X97775349Y-96287450D01*
X97384721Y-96026440D01*
X96950679Y-95846654D01*
X96489902Y-95755000D01*
X96020098Y-95755000D01*
X95559321Y-95846654D01*
X95125279Y-96026440D01*
X94734651Y-96287450D01*
X94402450Y-96619651D01*
X94141440Y-97010279D01*
X93961654Y-97444321D01*
X93870000Y-97905098D01*
X90195000Y-97905098D01*
X90195000Y-93858363D01*
X104715000Y-93858363D01*
X104715000Y-94101637D01*
X104762460Y-94340236D01*
X104855557Y-94564992D01*
X104990713Y-94767267D01*
X105162733Y-94939287D01*
X105365008Y-95074443D01*
X105589764Y-95167540D01*
X105828363Y-95215000D01*
X106071637Y-95215000D01*
X106310236Y-95167540D01*
X106534992Y-95074443D01*
X106737267Y-94939287D01*
X106792501Y-94884053D01*
X106819463Y-94934494D01*
X106898815Y-95031185D01*
X106995506Y-95110537D01*
X107105820Y-95169502D01*
X107225518Y-95205812D01*
X107350000Y-95218072D01*
X107664250Y-95215000D01*
X107823000Y-95056250D01*
X107823000Y-94107000D01*
X108077000Y-94107000D01*
X108077000Y-95056250D01*
X108235750Y-95215000D01*
X108550000Y-95218072D01*
X108674482Y-95205812D01*
X108794180Y-95169502D01*
X108904494Y-95110537D01*
X109001185Y-95031185D01*
X109080537Y-94934494D01*
X109139502Y-94824180D01*
X109175812Y-94704482D01*
X109188072Y-94580000D01*
X109186233Y-94391806D01*
X111241801Y-94391806D01*
X111356500Y-94732754D01*
X111535511Y-95044774D01*
X111771954Y-95315875D01*
X112056743Y-95535639D01*
X112378934Y-95695621D01*
X112618195Y-95768195D01*
X112903000Y-95651432D01*
X112903000Y-94107000D01*
X113157000Y-94107000D01*
X113157000Y-95651432D01*
X113441805Y-95768195D01*
X113681066Y-95695621D01*
X114003257Y-95535639D01*
X114288046Y-95315875D01*
X114524489Y-95044774D01*
X114703500Y-94732754D01*
X114818199Y-94391806D01*
X114701854Y-94107000D01*
X113157000Y-94107000D01*
X112903000Y-94107000D01*
X111358146Y-94107000D01*
X111241801Y-94391806D01*
X109186233Y-94391806D01*
X109185000Y-94265750D01*
X109026250Y-94107000D01*
X108077000Y-94107000D01*
X107823000Y-94107000D01*
X107803000Y-94107000D01*
X107803000Y-93853000D01*
X107823000Y-93853000D01*
X107823000Y-92903750D01*
X108077000Y-92903750D01*
X108077000Y-93853000D01*
X109026250Y-93853000D01*
X109185000Y-93694250D01*
X109186232Y-93568194D01*
X111241801Y-93568194D01*
X111358146Y-93853000D01*
X112903000Y-93853000D01*
X112903000Y-92308568D01*
X113157000Y-92308568D01*
X113157000Y-93853000D01*
X114701854Y-93853000D01*
X114818199Y-93568194D01*
X114703500Y-93227246D01*
X114524489Y-92915226D01*
X114288046Y-92644125D01*
X114003257Y-92424361D01*
X113681066Y-92264379D01*
X113441805Y-92191805D01*
X113157000Y-92308568D01*
X112903000Y-92308568D01*
X112618195Y-92191805D01*
X112378934Y-92264379D01*
X112056743Y-92424361D01*
X111771954Y-92644125D01*
X111535511Y-92915226D01*
X111356500Y-93227246D01*
X111241801Y-93568194D01*
X109186232Y-93568194D01*
X109188072Y-93380000D01*
X109175812Y-93255518D01*
X109139502Y-93135820D01*
X109080537Y-93025506D01*
X109001185Y-92928815D01*
X108904494Y-92849463D01*
X108794180Y-92790498D01*
X108674482Y-92754188D01*
X108550000Y-92741928D01*
X108235750Y-92745000D01*
X108077000Y-92903750D01*
X107823000Y-92903750D01*
X107664250Y-92745000D01*
X107350000Y-92741928D01*
X107225518Y-92754188D01*
X107105820Y-92790498D01*
X106995506Y-92849463D01*
X106898815Y-92928815D01*
X106819463Y-93025506D01*
X106792501Y-93075947D01*
X106737267Y-93020713D01*
X106534992Y-92885557D01*
X106310236Y-92792460D01*
X106071637Y-92745000D01*
X105828363Y-92745000D01*
X105589764Y-92792460D01*
X105365008Y-92885557D01*
X105162733Y-93020713D01*
X104990713Y-93192733D01*
X104855557Y-93395008D01*
X104762460Y-93619764D01*
X104715000Y-93858363D01*
X90195000Y-93858363D01*
X90195000Y-86873363D01*
X104715000Y-86873363D01*
X104715000Y-87116637D01*
X104762460Y-87355236D01*
X104855557Y-87579992D01*
X104990713Y-87782267D01*
X105162733Y-87954287D01*
X105365008Y-88089443D01*
X105589764Y-88182540D01*
X105828363Y-88230000D01*
X106071637Y-88230000D01*
X106310236Y-88182540D01*
X106534992Y-88089443D01*
X106737267Y-87954287D01*
X106792501Y-87899053D01*
X106819463Y-87949494D01*
X106898815Y-88046185D01*
X106995506Y-88125537D01*
X107105820Y-88184502D01*
X107225518Y-88220812D01*
X107350000Y-88233072D01*
X107664250Y-88230000D01*
X107823000Y-88071250D01*
X107823000Y-87122000D01*
X108077000Y-87122000D01*
X108077000Y-88071250D01*
X108235750Y-88230000D01*
X108550000Y-88233072D01*
X108674482Y-88220812D01*
X108794180Y-88184502D01*
X108904494Y-88125537D01*
X109001185Y-88046185D01*
X109080537Y-87949494D01*
X109139502Y-87839180D01*
X109175812Y-87719482D01*
X109188072Y-87595000D01*
X109185000Y-87280750D01*
X109026250Y-87122000D01*
X108077000Y-87122000D01*
X107823000Y-87122000D01*
X107803000Y-87122000D01*
X107803000Y-86868000D01*
X107823000Y-86868000D01*
X107823000Y-85918750D01*
X108077000Y-85918750D01*
X108077000Y-86868000D01*
X109026250Y-86868000D01*
X109185000Y-86709250D01*
X109188072Y-86395000D01*
X109175812Y-86270518D01*
X109139502Y-86150820D01*
X109080537Y-86040506D01*
X109001185Y-85943815D01*
X108904494Y-85864463D01*
X108794180Y-85805498D01*
X108674482Y-85769188D01*
X108550000Y-85756928D01*
X108235750Y-85760000D01*
X108077000Y-85918750D01*
X107823000Y-85918750D01*
X107664250Y-85760000D01*
X107350000Y-85756928D01*
X107225518Y-85769188D01*
X107105820Y-85805498D01*
X106995506Y-85864463D01*
X106898815Y-85943815D01*
X106819463Y-86040506D01*
X106792501Y-86090947D01*
X106737267Y-86035713D01*
X106534992Y-85900557D01*
X106310236Y-85807460D01*
X106071637Y-85760000D01*
X105828363Y-85760000D01*
X105589764Y-85807460D01*
X105365008Y-85900557D01*
X105162733Y-86035713D01*
X104990713Y-86207733D01*
X104855557Y-86410008D01*
X104762460Y-86634764D01*
X104715000Y-86873363D01*
X90195000Y-86873363D01*
X90195000Y-72555612D01*
X90295820Y-72609502D01*
X90415518Y-72645812D01*
X90540000Y-72658072D01*
X92340000Y-72658072D01*
X92464482Y-72645812D01*
X92584180Y-72609502D01*
X92694494Y-72550537D01*
X92791185Y-72471185D01*
X92870537Y-72374494D01*
X92929502Y-72264180D01*
X92935056Y-72245873D01*
X93001495Y-72312312D01*
X93252905Y-72480299D01*
X93532257Y-72596011D01*
X93828816Y-72655000D01*
X94131184Y-72655000D01*
X94388930Y-72603731D01*
X95956205Y-74171008D01*
X95979999Y-74200001D01*
X96008992Y-74223795D01*
X96008996Y-74223799D01*
X96079685Y-74281811D01*
X96095724Y-74294974D01*
X96227753Y-74365546D01*
X96371014Y-74409003D01*
X96482667Y-74420000D01*
X96482676Y-74420000D01*
X96519999Y-74423676D01*
X96557322Y-74420000D01*
X120104196Y-74420000D01*
X119643997Y-74880200D01*
X119614999Y-74903998D01*
X119591201Y-74932996D01*
X119591200Y-74932997D01*
X119520025Y-75019723D01*
X119449453Y-75151753D01*
X119405997Y-75295014D01*
X119391323Y-75443999D01*
X119395000Y-75481331D01*
X119394999Y-80007644D01*
X119228087Y-79928754D01*
X119094039Y-79888096D01*
X118872000Y-80010085D01*
X118872000Y-81153000D01*
X118892000Y-81153000D01*
X118892000Y-81407000D01*
X118872000Y-81407000D01*
X118872000Y-82549915D01*
X119094039Y-82671904D01*
X119228087Y-82631246D01*
X119482420Y-82511037D01*
X119651157Y-82385960D01*
X122771200Y-85506004D01*
X122794998Y-85535002D01*
X122823996Y-85558800D01*
X122874198Y-85600000D01*
X121322322Y-85600000D01*
X121284999Y-85596324D01*
X121247676Y-85600000D01*
X121247667Y-85600000D01*
X121136014Y-85610997D01*
X120992753Y-85654454D01*
X120860724Y-85725026D01*
X120860722Y-85725027D01*
X120860723Y-85725027D01*
X120773996Y-85796201D01*
X120773992Y-85796205D01*
X120744999Y-85819999D01*
X120721205Y-85848992D01*
X119108270Y-87461928D01*
X117945000Y-87461928D01*
X117820518Y-87474188D01*
X117700820Y-87510498D01*
X117590506Y-87569463D01*
X117493815Y-87648815D01*
X117414463Y-87745506D01*
X117355498Y-87855820D01*
X117319188Y-87975518D01*
X117306928Y-88100000D01*
X117306928Y-88140000D01*
X115884803Y-88140000D01*
X113790000Y-86045199D01*
X113790000Y-82951388D01*
X113899199Y-82906156D01*
X114199744Y-82705338D01*
X114455338Y-82449744D01*
X114656156Y-82149199D01*
X114794482Y-81815250D01*
X114831521Y-81629040D01*
X117353091Y-81629040D01*
X117447930Y-81893881D01*
X117592615Y-82135131D01*
X117781586Y-82343519D01*
X118007580Y-82511037D01*
X118261913Y-82631246D01*
X118395961Y-82671904D01*
X118618000Y-82549915D01*
X118618000Y-81407000D01*
X117474376Y-81407000D01*
X117353091Y-81629040D01*
X114831521Y-81629040D01*
X114865000Y-81460732D01*
X114865000Y-81099268D01*
X114831522Y-80930960D01*
X117353091Y-80930960D01*
X117474376Y-81153000D01*
X118618000Y-81153000D01*
X118618000Y-80010085D01*
X118395961Y-79888096D01*
X118261913Y-79928754D01*
X118007580Y-80048963D01*
X117781586Y-80216481D01*
X117592615Y-80424869D01*
X117447930Y-80666119D01*
X117353091Y-80930960D01*
X114831522Y-80930960D01*
X114794482Y-80744750D01*
X114656156Y-80410801D01*
X114455338Y-80110256D01*
X114199744Y-79854662D01*
X113899199Y-79653844D01*
X113565250Y-79515518D01*
X113210732Y-79445000D01*
X112849268Y-79445000D01*
X112494750Y-79515518D01*
X112160801Y-79653844D01*
X111860256Y-79854662D01*
X111604662Y-80110256D01*
X111403844Y-80410801D01*
X111265518Y-80744750D01*
X111195000Y-81099268D01*
X111195000Y-81460732D01*
X111265518Y-81815250D01*
X111403844Y-82149199D01*
X111604662Y-82449744D01*
X111860256Y-82705338D01*
X112160801Y-82906156D01*
X112270000Y-82951388D01*
X112270001Y-86322668D01*
X112266324Y-86360000D01*
X112270001Y-86397333D01*
X112280998Y-86508986D01*
X112294180Y-86552442D01*
X112324454Y-86652246D01*
X112395026Y-86784276D01*
X112463737Y-86868000D01*
X112490000Y-86900001D01*
X112518998Y-86923799D01*
X115006205Y-89411008D01*
X115029999Y-89440001D01*
X115058992Y-89463795D01*
X115058996Y-89463799D01*
X115129685Y-89521811D01*
X115145724Y-89534974D01*
X115277753Y-89605546D01*
X115421014Y-89649003D01*
X115532667Y-89660000D01*
X115532676Y-89660000D01*
X115569999Y-89663676D01*
X115607322Y-89660000D01*
X117306928Y-89660000D01*
X117306928Y-89700000D01*
X117319188Y-89824482D01*
X117355498Y-89944180D01*
X117414463Y-90054494D01*
X117493815Y-90151185D01*
X117590506Y-90230537D01*
X117700820Y-90289502D01*
X117820518Y-90325812D01*
X117945000Y-90338072D01*
X119545000Y-90338072D01*
X119669482Y-90325812D01*
X119789180Y-90289502D01*
X119899494Y-90230537D01*
X119996185Y-90151185D01*
X120075537Y-90054494D01*
X120134502Y-89944180D01*
X120170812Y-89824482D01*
X120171643Y-89816039D01*
X120370241Y-90014637D01*
X120605273Y-90171680D01*
X120866426Y-90279853D01*
X121143665Y-90335000D01*
X121426335Y-90335000D01*
X121608886Y-90298688D01*
X123170198Y-91860000D01*
X123062998Y-91860000D01*
X123062998Y-92018748D01*
X122904250Y-91860000D01*
X122340000Y-91856928D01*
X122215518Y-91869188D01*
X122095820Y-91905498D01*
X121985506Y-91964463D01*
X121888815Y-92043815D01*
X121809463Y-92140506D01*
X121750498Y-92250820D01*
X121714188Y-92370518D01*
X121701928Y-92495000D01*
X121705000Y-93059250D01*
X121863750Y-93218000D01*
X123063000Y-93218000D01*
X123063000Y-93198000D01*
X123317000Y-93198000D01*
X123317000Y-93218000D01*
X123337000Y-93218000D01*
X123337000Y-93472000D01*
X123317000Y-93472000D01*
X123317000Y-93492000D01*
X123063000Y-93492000D01*
X123063000Y-93472000D01*
X121863750Y-93472000D01*
X121705000Y-93630750D01*
X121701928Y-94195000D01*
X121714188Y-94319482D01*
X121750498Y-94439180D01*
X121809463Y-94549494D01*
X121888815Y-94646185D01*
X121985506Y-94725537D01*
X122095820Y-94784502D01*
X122168380Y-94806513D01*
X122036525Y-94938368D01*
X121874010Y-95181589D01*
X121762068Y-95451842D01*
X121705000Y-95738740D01*
X121705000Y-96031260D01*
X121762068Y-96318158D01*
X121874010Y-96588411D01*
X122036525Y-96831632D01*
X122243368Y-97038475D01*
X122417760Y-97155000D01*
X122243368Y-97271525D01*
X122036525Y-97478368D01*
X121874010Y-97721589D01*
X121762068Y-97991842D01*
X121705000Y-98278740D01*
X121705000Y-98571260D01*
X121762068Y-98858158D01*
X121874010Y-99128411D01*
X122036525Y-99371632D01*
X122243368Y-99578475D01*
X122417760Y-99695000D01*
X122243368Y-99811525D01*
X122036525Y-100018368D01*
X121874010Y-100261589D01*
X121762068Y-100531842D01*
X121705000Y-100818740D01*
X121705000Y-101111260D01*
X121762068Y-101398158D01*
X121874010Y-101668411D01*
X122036525Y-101911632D01*
X122243368Y-102118475D01*
X122486589Y-102280990D01*
X122756842Y-102392932D01*
X123043740Y-102450000D01*
X123336260Y-102450000D01*
X123623158Y-102392932D01*
X123893411Y-102280990D01*
X124136632Y-102118475D01*
X124343475Y-101911632D01*
X124505990Y-101668411D01*
X124617932Y-101398158D01*
X124675000Y-101111260D01*
X124675000Y-100818740D01*
X124617932Y-100531842D01*
X124505990Y-100261589D01*
X124343475Y-100018368D01*
X124136632Y-99811525D01*
X123962240Y-99695000D01*
X124136632Y-99578475D01*
X124343475Y-99371632D01*
X124505990Y-99128411D01*
X124617932Y-98858158D01*
X124675000Y-98571260D01*
X124675000Y-98278740D01*
X124631210Y-98058592D01*
X125326014Y-97363788D01*
X125355011Y-97339991D01*
X125449984Y-97224266D01*
X125520556Y-97092237D01*
X125564013Y-96948976D01*
X125575010Y-96837323D01*
X125575010Y-96837314D01*
X125578686Y-96799991D01*
X125575010Y-96762668D01*
X125575010Y-90098005D01*
X125605000Y-90118044D01*
X125605001Y-91857668D01*
X125601324Y-91895000D01*
X125605001Y-91932333D01*
X125613513Y-92018750D01*
X125615998Y-92043985D01*
X125659454Y-92187246D01*
X125730026Y-92319276D01*
X125801201Y-92406002D01*
X125825000Y-92435001D01*
X125853998Y-92458799D01*
X128363833Y-94968635D01*
X128335000Y-95113589D01*
X128335000Y-95386411D01*
X128388225Y-95653989D01*
X128492629Y-95906043D01*
X128644201Y-96132886D01*
X128837114Y-96325799D01*
X128960000Y-96407909D01*
X128960001Y-98880532D01*
X128765537Y-98961082D01*
X128497748Y-99140013D01*
X128270013Y-99367748D01*
X128091082Y-99635537D01*
X127967832Y-99933088D01*
X127905000Y-100248967D01*
X127905000Y-100571033D01*
X127967832Y-100886912D01*
X128091082Y-101184463D01*
X128270013Y-101452252D01*
X128497748Y-101679987D01*
X128765537Y-101858918D01*
X129063088Y-101982168D01*
X129378967Y-102045000D01*
X129701033Y-102045000D01*
X130016912Y-101982168D01*
X130314463Y-101858918D01*
X130582252Y-101679987D01*
X130809987Y-101452252D01*
X130988918Y-101184463D01*
X131112168Y-100886912D01*
X131175000Y-100571033D01*
X131175000Y-100248967D01*
X131112168Y-99933088D01*
X130988918Y-99635537D01*
X130809987Y-99367748D01*
X130582252Y-99140013D01*
X130480000Y-99071690D01*
X130480000Y-96407909D01*
X130602886Y-96325799D01*
X130795799Y-96132886D01*
X130947371Y-95906043D01*
X131051775Y-95653989D01*
X131105000Y-95386411D01*
X131105000Y-95113589D01*
X131051775Y-94846011D01*
X130947371Y-94593957D01*
X130795799Y-94367114D01*
X130602886Y-94174201D01*
X130376043Y-94022629D01*
X130123989Y-93918225D01*
X129856411Y-93865000D01*
X129583589Y-93865000D01*
X129438635Y-93893833D01*
X127125000Y-91580199D01*
X127125000Y-90118043D01*
X127279759Y-90014637D01*
X127479637Y-89814759D01*
X127635000Y-89582241D01*
X127790363Y-89814759D01*
X127990241Y-90014637D01*
X128225273Y-90171680D01*
X128486426Y-90279853D01*
X128763665Y-90335000D01*
X129046335Y-90335000D01*
X129228887Y-90298688D01*
X133445311Y-94515113D01*
X133392629Y-94593957D01*
X133288225Y-94846011D01*
X133235000Y-95113589D01*
X133235000Y-95386411D01*
X133288225Y-95653989D01*
X133392629Y-95906043D01*
X133544201Y-96132886D01*
X133737114Y-96325799D01*
X133860000Y-96407909D01*
X133860001Y-98875091D01*
X133845537Y-98881082D01*
X133577748Y-99060013D01*
X133350013Y-99287748D01*
X133171082Y-99555537D01*
X133047832Y-99853088D01*
X132985000Y-100168967D01*
X132985000Y-100491033D01*
X133047832Y-100806912D01*
X133171082Y-101104463D01*
X133350013Y-101372252D01*
X133577748Y-101599987D01*
X133845537Y-101778918D01*
X134143088Y-101902168D01*
X134458967Y-101965000D01*
X134781033Y-101965000D01*
X135096912Y-101902168D01*
X135394463Y-101778918D01*
X135662252Y-101599987D01*
X135889987Y-101372252D01*
X136068918Y-101104463D01*
X136192168Y-100806912D01*
X136255000Y-100491033D01*
X136255000Y-100168967D01*
X136192168Y-99853088D01*
X136068918Y-99555537D01*
X135889987Y-99287748D01*
X135662252Y-99060013D01*
X135394463Y-98881082D01*
X135380000Y-98875091D01*
X135380000Y-96407909D01*
X135502886Y-96325799D01*
X135695799Y-96132886D01*
X135847371Y-95906043D01*
X135951775Y-95653989D01*
X136005000Y-95386411D01*
X136005000Y-95113589D01*
X135951775Y-94846011D01*
X135847371Y-94593957D01*
X135695799Y-94367114D01*
X135502886Y-94174201D01*
X135276043Y-94022629D01*
X135023989Y-93918225D01*
X134991580Y-93911778D01*
X131414801Y-90335000D01*
X131586335Y-90335000D01*
X131768887Y-90298688D01*
X137925002Y-96454804D01*
X137925001Y-103570197D01*
X136255000Y-105240199D01*
X136255000Y-105168967D01*
X136192168Y-104853088D01*
X136068918Y-104555537D01*
X135889987Y-104287748D01*
X135662252Y-104060013D01*
X135394463Y-103881082D01*
X135096912Y-103757832D01*
X134781033Y-103695000D01*
X134458967Y-103695000D01*
X134143088Y-103757832D01*
X133845537Y-103881082D01*
X133577748Y-104060013D01*
X133350013Y-104287748D01*
X133171082Y-104555537D01*
X133047832Y-104853088D01*
X132985000Y-105168967D01*
X132985000Y-105491033D01*
X133047832Y-105806912D01*
X133171082Y-106104463D01*
X133350013Y-106372252D01*
X133532761Y-106555000D01*
X130707239Y-106555000D01*
X130809987Y-106452252D01*
X130988918Y-106184463D01*
X131112168Y-105886912D01*
X131175000Y-105571033D01*
X131175000Y-105248967D01*
X131112168Y-104933088D01*
X130988918Y-104635537D01*
X130809987Y-104367748D01*
X130582252Y-104140013D01*
X130314463Y-103961082D01*
X130016912Y-103837832D01*
X129701033Y-103775000D01*
X129378967Y-103775000D01*
X129063088Y-103837832D01*
X128765537Y-103961082D01*
X128497748Y-104140013D01*
X128270013Y-104367748D01*
X128091082Y-104635537D01*
X127967832Y-104933088D01*
X127905000Y-105248967D01*
X127905000Y-105571033D01*
X127967832Y-105886912D01*
X128091082Y-106184463D01*
X128270013Y-106452252D01*
X128372761Y-106555000D01*
X126044802Y-106555000D01*
X120464250Y-100974449D01*
X120509482Y-100865250D01*
X120580000Y-100510732D01*
X120580000Y-100149268D01*
X120509482Y-99794750D01*
X120371156Y-99460801D01*
X120170338Y-99160256D01*
X119914744Y-98904662D01*
X119614199Y-98703844D01*
X119280250Y-98565518D01*
X118925732Y-98495000D01*
X118564268Y-98495000D01*
X118209750Y-98565518D01*
X117875801Y-98703844D01*
X117575256Y-98904662D01*
X117319662Y-99160256D01*
X117118844Y-99460801D01*
X116980518Y-99794750D01*
X116910000Y-100149268D01*
X116910000Y-100510732D01*
X116980518Y-100865250D01*
X117118844Y-101199199D01*
X117319662Y-101499744D01*
X117575256Y-101755338D01*
X117875801Y-101956156D01*
X118209750Y-102094482D01*
X118564268Y-102165000D01*
X118925732Y-102165000D01*
X119280250Y-102094482D01*
X119389449Y-102049250D01*
X124530198Y-107190000D01*
X120416388Y-107190000D01*
X120371156Y-107080801D01*
X120170338Y-106780256D01*
X119914744Y-106524662D01*
X119614199Y-106323844D01*
X119280250Y-106185518D01*
X118925732Y-106115000D01*
X118564268Y-106115000D01*
X118209750Y-106185518D01*
X117875801Y-106323844D01*
X117575256Y-106524662D01*
X117319662Y-106780256D01*
X117118844Y-107080801D01*
X116980518Y-107414750D01*
X116910000Y-107769268D01*
X116910000Y-108130732D01*
X116980518Y-108485250D01*
X117075684Y-108715001D01*
X115504804Y-108715001D01*
X107764250Y-100974449D01*
X107809482Y-100865250D01*
X107880000Y-100510732D01*
X107880000Y-100149268D01*
X107809482Y-99794750D01*
X107671156Y-99460801D01*
X107470338Y-99160256D01*
X107214744Y-98904662D01*
X106914199Y-98703844D01*
X106580250Y-98565518D01*
X106225732Y-98495000D01*
X105864268Y-98495000D01*
X105509750Y-98565518D01*
X105175801Y-98703844D01*
X104875256Y-98904662D01*
X104619662Y-99160256D01*
X104418844Y-99460801D01*
X104373612Y-99570000D01*
X101582322Y-99570000D01*
X101545000Y-99566324D01*
X101507677Y-99570000D01*
X101507667Y-99570000D01*
X101396014Y-99580997D01*
X101252753Y-99624454D01*
X101120723Y-99695026D01*
X101037083Y-99763668D01*
X101004999Y-99789999D01*
X100981201Y-99818997D01*
X99331408Y-101468791D01*
X99111260Y-101425000D01*
X98818740Y-101425000D01*
X98531842Y-101482068D01*
X98261589Y-101594010D01*
X98018368Y-101756525D01*
X97811525Y-101963368D01*
X97649010Y-102206589D01*
X97537068Y-102476842D01*
X97480000Y-102763740D01*
X97480000Y-103056260D01*
X97537068Y-103343158D01*
X97649010Y-103613411D01*
X97811525Y-103856632D01*
X98018368Y-104063475D01*
X98162828Y-104160000D01*
X98018368Y-104256525D01*
X97811525Y-104463368D01*
X97649010Y-104706589D01*
X97537068Y-104976842D01*
X97480000Y-105263740D01*
X97480000Y-105556260D01*
X97537068Y-105843158D01*
X97649010Y-106113411D01*
X97811525Y-106356632D01*
X98018368Y-106563475D01*
X98261589Y-106725990D01*
X98531842Y-106837932D01*
X98818740Y-106895000D01*
X99111260Y-106895000D01*
X99398158Y-106837932D01*
X99668411Y-106725990D01*
X99675822Y-106721038D01*
X99760506Y-106790537D01*
X99870820Y-106849502D01*
X99990518Y-106885812D01*
X100115000Y-106898072D01*
X100679250Y-106895000D01*
X100838000Y-106736250D01*
X100838000Y-105537000D01*
X101092000Y-105537000D01*
X101092000Y-106736250D01*
X101250750Y-106895000D01*
X101815000Y-106898072D01*
X101939482Y-106885812D01*
X102059180Y-106849502D01*
X102169494Y-106790537D01*
X102266185Y-106711185D01*
X102345537Y-106614494D01*
X102404502Y-106504180D01*
X102440812Y-106384482D01*
X102453072Y-106260000D01*
X102450000Y-105695750D01*
X102291250Y-105537000D01*
X101092000Y-105537000D01*
X100838000Y-105537000D01*
X100818000Y-105537000D01*
X100818000Y-105283000D01*
X100838000Y-105283000D01*
X100838000Y-105263000D01*
X101092000Y-105263000D01*
X101092000Y-105283000D01*
X102291250Y-105283000D01*
X102450000Y-105124250D01*
X102453072Y-104560000D01*
X102440812Y-104435518D01*
X102404502Y-104315820D01*
X102345537Y-104205506D01*
X102266185Y-104108815D01*
X102169494Y-104029463D01*
X102059180Y-103970498D01*
X102017310Y-103957797D01*
X102118475Y-103856632D01*
X102243178Y-103670000D01*
X103230199Y-103670000D01*
X105285000Y-105724802D01*
X105285000Y-106278612D01*
X105175801Y-106323844D01*
X104875256Y-106524662D01*
X104619662Y-106780256D01*
X104418844Y-107080801D01*
X104280518Y-107414750D01*
X104210000Y-107769268D01*
X104210000Y-108130732D01*
X104280518Y-108485250D01*
X104418844Y-108819199D01*
X104619662Y-109119744D01*
X104875256Y-109375338D01*
X105175801Y-109576156D01*
X105509750Y-109714482D01*
X105864268Y-109785000D01*
X106225732Y-109785000D01*
X106580250Y-109714482D01*
X106689449Y-109669250D01*
X109111202Y-112091004D01*
X109135000Y-112120002D01*
X109250725Y-112214975D01*
X109382754Y-112285547D01*
X109526015Y-112329004D01*
X109637668Y-112340001D01*
X109637676Y-112340001D01*
X109675001Y-112343677D01*
X109712326Y-112340001D01*
X143862679Y-112340001D01*
X143900001Y-112343677D01*
X143937323Y-112340001D01*
X143937334Y-112340001D01*
X144048987Y-112329004D01*
X144192248Y-112285547D01*
X144324277Y-112214975D01*
X144440002Y-112120002D01*
X144463805Y-112090998D01*
X146900233Y-109654570D01*
X152905000Y-109654570D01*
X152905000Y-110055430D01*
X152983204Y-110448587D01*
X153136607Y-110818934D01*
X153359313Y-111152237D01*
X153642763Y-111435687D01*
X153976066Y-111658393D01*
X154346413Y-111811796D01*
X154739570Y-111890000D01*
X155140430Y-111890000D01*
X155533587Y-111811796D01*
X155903934Y-111658393D01*
X156237237Y-111435687D01*
X156520687Y-111152237D01*
X156743393Y-110818934D01*
X156896796Y-110448587D01*
X156975000Y-110055430D01*
X156975000Y-109654570D01*
X156896796Y-109261413D01*
X156743393Y-108891066D01*
X156520687Y-108557763D01*
X156237237Y-108274313D01*
X155903934Y-108051607D01*
X155533587Y-107898204D01*
X155140430Y-107820000D01*
X154739570Y-107820000D01*
X154346413Y-107898204D01*
X153976066Y-108051607D01*
X153642763Y-108274313D01*
X153359313Y-108557763D01*
X153136607Y-108891066D01*
X152983204Y-109261413D01*
X152905000Y-109654570D01*
X146900233Y-109654570D01*
X149101004Y-107453800D01*
X149130001Y-107430003D01*
X149224974Y-107314278D01*
X149295546Y-107182249D01*
X149322713Y-107092690D01*
X149459199Y-107036156D01*
X149759744Y-106835338D01*
X150015338Y-106579744D01*
X150216156Y-106279199D01*
X150261388Y-106170000D01*
X152188041Y-106170000D01*
X152270000Y-106178072D01*
X155070000Y-106178072D01*
X155194482Y-106165812D01*
X155314180Y-106129502D01*
X155424494Y-106070537D01*
X155521185Y-105991185D01*
X155600537Y-105894494D01*
X155659502Y-105784180D01*
X155695812Y-105664482D01*
X155708072Y-105540000D01*
X155708072Y-103939570D01*
X164335000Y-103939570D01*
X164335000Y-104340430D01*
X164413204Y-104733587D01*
X164566607Y-105103934D01*
X164789313Y-105437237D01*
X165072763Y-105720687D01*
X165406066Y-105943393D01*
X165776413Y-106096796D01*
X166169570Y-106175000D01*
X166570430Y-106175000D01*
X166963587Y-106096796D01*
X167333934Y-105943393D01*
X167667237Y-105720687D01*
X167950687Y-105437237D01*
X168173393Y-105103934D01*
X168326796Y-104733587D01*
X168405000Y-104340430D01*
X168405000Y-103939570D01*
X168326796Y-103546413D01*
X168173393Y-103176066D01*
X167950687Y-102842763D01*
X167667237Y-102559313D01*
X167333934Y-102336607D01*
X166963587Y-102183204D01*
X166570430Y-102105000D01*
X166169570Y-102105000D01*
X165776413Y-102183204D01*
X165406066Y-102336607D01*
X165072763Y-102559313D01*
X164789313Y-102842763D01*
X164566607Y-103176066D01*
X164413204Y-103546413D01*
X164335000Y-103939570D01*
X155708072Y-103939570D01*
X155708072Y-102740000D01*
X155695812Y-102615518D01*
X155659502Y-102495820D01*
X155600537Y-102385506D01*
X155521185Y-102288815D01*
X155424494Y-102209463D01*
X155314180Y-102150498D01*
X155194482Y-102114188D01*
X155070000Y-102101928D01*
X152270000Y-102101928D01*
X152145518Y-102114188D01*
X152025820Y-102150498D01*
X151915506Y-102209463D01*
X151818815Y-102288815D01*
X151739463Y-102385506D01*
X151680498Y-102495820D01*
X151644188Y-102615518D01*
X151631928Y-102740000D01*
X151631928Y-104650000D01*
X150261388Y-104650000D01*
X150216156Y-104540801D01*
X150015338Y-104240256D01*
X149759744Y-103984662D01*
X149459199Y-103783844D01*
X149125250Y-103645518D01*
X148770732Y-103575000D01*
X148409268Y-103575000D01*
X148054750Y-103645518D01*
X147720801Y-103783844D01*
X147420256Y-103984662D01*
X147164662Y-104240256D01*
X146963844Y-104540801D01*
X146825518Y-104874750D01*
X146755000Y-105229268D01*
X146755000Y-105590732D01*
X146825518Y-105945250D01*
X146963844Y-106279199D01*
X147164662Y-106579744D01*
X147420256Y-106835338D01*
X147509938Y-106895262D01*
X144278072Y-110127129D01*
X144278072Y-108455000D01*
X144265812Y-108330518D01*
X144229502Y-108210820D01*
X144170537Y-108100506D01*
X144091185Y-108003815D01*
X143994494Y-107924463D01*
X143884180Y-107865498D01*
X143764482Y-107829188D01*
X143640000Y-107816928D01*
X143000000Y-107816928D01*
X143000000Y-107081388D01*
X143109199Y-107036156D01*
X143409744Y-106835338D01*
X143665338Y-106579744D01*
X143866156Y-106279199D01*
X144004482Y-105945250D01*
X144075000Y-105590732D01*
X144075000Y-105229268D01*
X144004482Y-104874750D01*
X143866156Y-104540801D01*
X143665338Y-104240256D01*
X143409744Y-103984662D01*
X143109199Y-103783844D01*
X142775250Y-103645518D01*
X142420732Y-103575000D01*
X142059268Y-103575000D01*
X141704750Y-103645518D01*
X141370801Y-103783844D01*
X141070256Y-103984662D01*
X140814662Y-104240256D01*
X140613844Y-104540801D01*
X140475518Y-104874750D01*
X140405000Y-105229268D01*
X140405000Y-105590732D01*
X140475518Y-105945250D01*
X140520750Y-106054449D01*
X137860198Y-108715001D01*
X120414316Y-108715001D01*
X120416388Y-108710000D01*
X135219088Y-108710000D01*
X135256410Y-108713676D01*
X135293732Y-108710000D01*
X135293743Y-108710000D01*
X135405396Y-108699003D01*
X135548657Y-108655546D01*
X135680686Y-108584974D01*
X135796411Y-108490001D01*
X135820214Y-108460997D01*
X139646015Y-104635197D01*
X139675012Y-104611400D01*
X139732951Y-104540801D01*
X139769985Y-104495676D01*
X139840557Y-104363646D01*
X139848357Y-104337932D01*
X139884014Y-104220385D01*
X139895011Y-104108732D01*
X139895011Y-104108723D01*
X139898687Y-104071400D01*
X139895011Y-104034077D01*
X139895011Y-94087333D01*
X139898687Y-94050010D01*
X139895011Y-94012687D01*
X139895011Y-94012678D01*
X139884014Y-93901025D01*
X139840557Y-93757764D01*
X139769985Y-93625735D01*
X139756822Y-93609696D01*
X139698810Y-93539007D01*
X139698806Y-93539003D01*
X139675012Y-93510010D01*
X139646019Y-93486216D01*
X139281609Y-93121806D01*
X140451801Y-93121806D01*
X140566500Y-93462754D01*
X140745511Y-93774774D01*
X140981954Y-94045875D01*
X141266743Y-94265639D01*
X141588934Y-94425621D01*
X141828195Y-94498195D01*
X142113000Y-94381432D01*
X142113000Y-92837000D01*
X142367000Y-92837000D01*
X142367000Y-94381432D01*
X142651805Y-94498195D01*
X142891066Y-94425621D01*
X143213257Y-94265639D01*
X143498046Y-94045875D01*
X143734489Y-93774774D01*
X143913500Y-93462754D01*
X144028199Y-93121806D01*
X146801801Y-93121806D01*
X146916500Y-93462754D01*
X147095511Y-93774774D01*
X147331954Y-94045875D01*
X147616743Y-94265639D01*
X147938934Y-94425621D01*
X148178195Y-94498195D01*
X148463000Y-94381432D01*
X148463000Y-92837000D01*
X148717000Y-92837000D01*
X148717000Y-94381432D01*
X149001805Y-94498195D01*
X149241066Y-94425621D01*
X149563257Y-94265639D01*
X149848046Y-94045875D01*
X150084489Y-93774774D01*
X150263500Y-93462754D01*
X150378199Y-93121806D01*
X150261854Y-92837000D01*
X148717000Y-92837000D01*
X148463000Y-92837000D01*
X146918146Y-92837000D01*
X146801801Y-93121806D01*
X144028199Y-93121806D01*
X143911854Y-92837000D01*
X142367000Y-92837000D01*
X142113000Y-92837000D01*
X140568146Y-92837000D01*
X140451801Y-93121806D01*
X139281609Y-93121806D01*
X136494802Y-90335000D01*
X136666335Y-90335000D01*
X136943574Y-90279853D01*
X137204727Y-90171680D01*
X137439759Y-90014637D01*
X137639637Y-89814759D01*
X137795000Y-89582241D01*
X137950363Y-89814759D01*
X138150241Y-90014637D01*
X138385273Y-90171680D01*
X138646426Y-90279853D01*
X138923665Y-90335000D01*
X139206335Y-90335000D01*
X139388886Y-90298688D01*
X140741834Y-91651636D01*
X140566500Y-91957246D01*
X140451801Y-92298194D01*
X140568146Y-92583000D01*
X142113000Y-92583000D01*
X142113000Y-92563000D01*
X142367000Y-92563000D01*
X142367000Y-92583000D01*
X143911854Y-92583000D01*
X144028199Y-92298194D01*
X143913500Y-91957246D01*
X143906474Y-91944999D01*
X146923526Y-91944999D01*
X146916500Y-91957246D01*
X146801801Y-92298194D01*
X146918146Y-92583000D01*
X148463000Y-92583000D01*
X148463000Y-92563000D01*
X148717000Y-92563000D01*
X148717000Y-92583000D01*
X150261854Y-92583000D01*
X150378199Y-92298194D01*
X150263500Y-91957246D01*
X150256474Y-91944999D01*
X150560198Y-91944999D01*
X153220750Y-94605551D01*
X153175518Y-94714750D01*
X153105000Y-95069268D01*
X153105000Y-95430732D01*
X153175518Y-95785250D01*
X153313844Y-96119199D01*
X153514662Y-96419744D01*
X153770256Y-96675338D01*
X154070801Y-96876156D01*
X154404750Y-97014482D01*
X154759268Y-97085000D01*
X155120732Y-97085000D01*
X155475250Y-97014482D01*
X155809199Y-96876156D01*
X156109744Y-96675338D01*
X156365338Y-96419744D01*
X156566156Y-96119199D01*
X156704482Y-95785250D01*
X156775000Y-95430732D01*
X156775000Y-95069268D01*
X156704482Y-94714750D01*
X156566156Y-94380801D01*
X156365338Y-94080256D01*
X156109744Y-93824662D01*
X155809199Y-93623844D01*
X155475250Y-93485518D01*
X155120732Y-93415000D01*
X154759268Y-93415000D01*
X154404750Y-93485518D01*
X154295551Y-93530750D01*
X151438803Y-90674002D01*
X151415000Y-90644998D01*
X151299275Y-90550025D01*
X151167246Y-90479453D01*
X151023985Y-90435996D01*
X150912332Y-90424999D01*
X150912321Y-90424999D01*
X150874999Y-90421323D01*
X150837677Y-90424999D01*
X141664801Y-90424999D01*
X141574802Y-90335000D01*
X141746335Y-90335000D01*
X142023574Y-90279853D01*
X142284727Y-90171680D01*
X142519759Y-90014637D01*
X142719637Y-89814759D01*
X142876680Y-89579727D01*
X142984853Y-89318574D01*
X143040000Y-89041335D01*
X143040000Y-88758665D01*
X142984853Y-88481426D01*
X142876680Y-88220273D01*
X142719637Y-87985241D01*
X142519759Y-87785363D01*
X142474317Y-87755000D01*
X144465199Y-87755000D01*
X144756201Y-88046003D01*
X144780000Y-88075002D01*
X144895725Y-88169975D01*
X145027754Y-88240547D01*
X145171015Y-88284004D01*
X145282668Y-88295001D01*
X145282676Y-88295001D01*
X145320001Y-88298677D01*
X145357326Y-88295001D01*
X151614733Y-88295001D01*
X151652055Y-88298677D01*
X151689377Y-88295001D01*
X151689388Y-88295001D01*
X151801041Y-88284004D01*
X151944302Y-88240547D01*
X152076331Y-88169975D01*
X152192056Y-88075002D01*
X152215859Y-88045998D01*
X155451008Y-84810851D01*
X155480001Y-84787057D01*
X155503795Y-84758064D01*
X155503799Y-84758060D01*
X155561811Y-84687371D01*
X155574974Y-84671332D01*
X155645546Y-84539303D01*
X155689003Y-84396042D01*
X155700000Y-84284389D01*
X155700000Y-84284380D01*
X155703676Y-84247057D01*
X155701103Y-84220931D01*
X155809199Y-84176156D01*
X156109744Y-83975338D01*
X156365338Y-83719744D01*
X156566156Y-83419199D01*
X156704482Y-83085250D01*
X156775000Y-82730732D01*
X156775000Y-82369268D01*
X156704482Y-82014750D01*
X156566156Y-81680801D01*
X156365338Y-81380256D01*
X156109744Y-81124662D01*
X155809199Y-80923844D01*
X155475250Y-80785518D01*
X155120732Y-80715000D01*
X154759268Y-80715000D01*
X154404750Y-80785518D01*
X154070801Y-80923844D01*
X153770256Y-81124662D01*
X153514662Y-81380256D01*
X153313844Y-81680801D01*
X153175518Y-82014750D01*
X153105000Y-82369268D01*
X153105000Y-82730732D01*
X153175518Y-83085250D01*
X153313844Y-83419199D01*
X153514662Y-83719744D01*
X153770256Y-83975338D01*
X153990052Y-84122201D01*
X151966481Y-86145774D01*
X151922932Y-85926842D01*
X151810990Y-85656589D01*
X151675296Y-85453508D01*
X152181009Y-84947796D01*
X152210002Y-84924002D01*
X152233796Y-84895009D01*
X152233800Y-84895005D01*
X152304974Y-84808278D01*
X152304975Y-84808277D01*
X152375547Y-84676248D01*
X152419004Y-84532987D01*
X152430001Y-84421334D01*
X152430001Y-84421325D01*
X152433677Y-84384002D01*
X152430001Y-84346679D01*
X152430001Y-83293321D01*
X152433677Y-83255998D01*
X152430001Y-83218675D01*
X152430001Y-83218666D01*
X152419004Y-83107013D01*
X152375547Y-82963752D01*
X152304975Y-82831723D01*
X152274004Y-82793985D01*
X152233800Y-82744995D01*
X152233796Y-82744991D01*
X152210002Y-82715998D01*
X152181010Y-82692205D01*
X151667987Y-82179184D01*
X151766641Y-82046920D01*
X151891825Y-81784099D01*
X151936476Y-81636890D01*
X151815155Y-81407000D01*
X150622000Y-81407000D01*
X150622000Y-81427000D01*
X150368000Y-81427000D01*
X150368000Y-81407000D01*
X150348000Y-81407000D01*
X150348000Y-81153000D01*
X150368000Y-81153000D01*
X150368000Y-79959186D01*
X150622000Y-79959186D01*
X150622000Y-81153000D01*
X151815155Y-81153000D01*
X151936476Y-80923110D01*
X151891825Y-80775901D01*
X151766641Y-80513080D01*
X151592588Y-80279731D01*
X151376355Y-80084822D01*
X151126252Y-79935843D01*
X150851891Y-79838519D01*
X150622000Y-79959186D01*
X150368000Y-79959186D01*
X150138109Y-79838519D01*
X149863748Y-79935843D01*
X149613645Y-80084822D01*
X149417498Y-80261626D01*
X149394502Y-80185820D01*
X149335537Y-80075506D01*
X149256185Y-79978815D01*
X149159494Y-79899463D01*
X149049180Y-79840498D01*
X148929482Y-79804188D01*
X148805000Y-79791928D01*
X147105000Y-79791928D01*
X146980518Y-79804188D01*
X146860820Y-79840498D01*
X146750506Y-79899463D01*
X146653815Y-79978815D01*
X146574463Y-80075506D01*
X146515498Y-80185820D01*
X146479188Y-80305518D01*
X146466928Y-80430000D01*
X146466928Y-81884999D01*
X143970801Y-81884999D01*
X144050001Y-81820001D01*
X144073804Y-81790997D01*
X146364803Y-79500000D01*
X156530199Y-79500000D01*
X157990001Y-80959803D01*
X157990000Y-84775198D01*
X155584449Y-87180750D01*
X155475250Y-87135518D01*
X155120732Y-87065000D01*
X154759268Y-87065000D01*
X154404750Y-87135518D01*
X154070801Y-87273844D01*
X153770256Y-87474662D01*
X153514662Y-87730256D01*
X153313844Y-88030801D01*
X153175518Y-88364750D01*
X153105000Y-88719268D01*
X153105000Y-89080732D01*
X153175518Y-89435250D01*
X153313844Y-89769199D01*
X153514662Y-90069744D01*
X153770256Y-90325338D01*
X154070801Y-90526156D01*
X154404750Y-90664482D01*
X154759268Y-90735000D01*
X155120732Y-90735000D01*
X155475250Y-90664482D01*
X155809199Y-90526156D01*
X156109744Y-90325338D01*
X156365338Y-90069744D01*
X156566156Y-89769199D01*
X156704482Y-89435250D01*
X156775000Y-89080732D01*
X156775000Y-88719268D01*
X156704482Y-88364750D01*
X156659250Y-88255551D01*
X159261004Y-85653798D01*
X159290001Y-85630001D01*
X159384974Y-85514276D01*
X159455546Y-85382247D01*
X159499003Y-85238986D01*
X159510000Y-85127333D01*
X159510000Y-85127325D01*
X159513676Y-85090000D01*
X159510000Y-85052675D01*
X159510000Y-80682323D01*
X159513676Y-80645000D01*
X159510000Y-80607677D01*
X159510000Y-80607667D01*
X159499003Y-80496014D01*
X159455546Y-80352753D01*
X159384974Y-80220724D01*
X159290001Y-80104999D01*
X159261003Y-80081201D01*
X157408804Y-78229003D01*
X157385001Y-78199999D01*
X157269276Y-78105026D01*
X157231811Y-78085000D01*
X157555656Y-78085000D01*
X157919834Y-78012561D01*
X158262882Y-77870466D01*
X158571618Y-77664175D01*
X158834175Y-77401618D01*
X159040466Y-77092882D01*
X159182561Y-76749834D01*
X159255000Y-76385656D01*
X159255000Y-76014344D01*
X159182561Y-75650166D01*
X159040466Y-75307118D01*
X158834175Y-74998382D01*
X158571618Y-74735825D01*
X158262882Y-74529534D01*
X157998443Y-74420000D01*
X160701557Y-74420000D01*
X160437118Y-74529534D01*
X160128382Y-74735825D01*
X159865825Y-74998382D01*
X159659534Y-75307118D01*
X159517439Y-75650166D01*
X159445000Y-76014344D01*
X159445000Y-76385656D01*
X159517439Y-76749834D01*
X159659534Y-77092882D01*
X159865825Y-77401618D01*
X160128382Y-77664175D01*
X160437118Y-77870466D01*
X160780166Y-78012561D01*
X161144344Y-78085000D01*
X161515656Y-78085000D01*
X161879834Y-78012561D01*
X162222882Y-77870466D01*
X162531618Y-77664175D01*
X162682188Y-77513605D01*
X164156000Y-77513605D01*
X164281914Y-77803577D01*
X164614126Y-77969433D01*
X164972312Y-78067290D01*
X165342706Y-78093389D01*
X165711075Y-78046725D01*
X166063262Y-77929094D01*
X166298086Y-77803577D01*
X166424000Y-77513605D01*
X165290000Y-76379605D01*
X164156000Y-77513605D01*
X162682188Y-77513605D01*
X162794175Y-77401618D01*
X163000466Y-77092882D01*
X163142561Y-76749834D01*
X163215000Y-76385656D01*
X163215000Y-76252706D01*
X163396611Y-76252706D01*
X163443275Y-76621075D01*
X163560906Y-76973262D01*
X163686423Y-77208086D01*
X163976395Y-77334000D01*
X165110395Y-76200000D01*
X163976395Y-75066000D01*
X163686423Y-75191914D01*
X163520567Y-75524126D01*
X163422710Y-75882312D01*
X163396611Y-76252706D01*
X163215000Y-76252706D01*
X163215000Y-76014344D01*
X163142561Y-75650166D01*
X163000466Y-75307118D01*
X162794175Y-74998382D01*
X162531618Y-74735825D01*
X162222882Y-74529534D01*
X161958443Y-74420000D01*
X164669150Y-74420000D01*
X164516738Y-74470906D01*
X164281914Y-74596423D01*
X164156000Y-74886395D01*
X165290000Y-76020395D01*
X165304143Y-76006253D01*
X165483748Y-76185858D01*
X165469605Y-76200000D01*
X166603605Y-77334000D01*
X166880001Y-77213981D01*
X166880000Y-80878612D01*
X166770801Y-80923844D01*
X166470256Y-81124662D01*
X166214662Y-81380256D01*
X166013844Y-81680801D01*
X165875518Y-82014750D01*
X165805000Y-82369268D01*
X165805000Y-82730732D01*
X165875518Y-83085250D01*
X166013844Y-83419199D01*
X166214662Y-83719744D01*
X166470256Y-83975338D01*
X166770801Y-84176156D01*
X167104750Y-84314482D01*
X167459268Y-84385000D01*
X167820732Y-84385000D01*
X168175250Y-84314482D01*
X168405001Y-84219316D01*
X168405001Y-87060197D01*
X168284449Y-87180750D01*
X168175250Y-87135518D01*
X167820732Y-87065000D01*
X167459268Y-87065000D01*
X167104750Y-87135518D01*
X166770801Y-87273844D01*
X166470256Y-87474662D01*
X166214662Y-87730256D01*
X166013844Y-88030801D01*
X165875518Y-88364750D01*
X165805000Y-88719268D01*
X165805000Y-89080732D01*
X165875518Y-89435250D01*
X166013844Y-89769199D01*
X166214662Y-90069744D01*
X166470256Y-90325338D01*
X166770801Y-90526156D01*
X167104750Y-90664482D01*
X167459268Y-90735000D01*
X167820732Y-90735000D01*
X168175250Y-90664482D01*
X168509199Y-90526156D01*
X168809744Y-90325338D01*
X168855010Y-90280072D01*
X168855010Y-92960188D01*
X168284449Y-93530750D01*
X168175250Y-93485518D01*
X167820732Y-93415000D01*
X167459268Y-93415000D01*
X167104750Y-93485518D01*
X166770801Y-93623844D01*
X166470256Y-93824662D01*
X166214662Y-94080256D01*
X166013844Y-94380801D01*
X165875518Y-94714750D01*
X165805000Y-95069268D01*
X165805000Y-95430732D01*
X165875518Y-95785250D01*
X166013844Y-96119199D01*
X166214662Y-96419744D01*
X166470256Y-96675338D01*
X166770801Y-96876156D01*
X167104750Y-97014482D01*
X167459268Y-97085000D01*
X167820732Y-97085000D01*
X168175250Y-97014482D01*
X168509199Y-96876156D01*
X168809744Y-96675338D01*
X169065338Y-96419744D01*
X169266156Y-96119199D01*
X169404482Y-95785250D01*
X169475000Y-95430732D01*
X169475000Y-95069268D01*
X169404482Y-94714750D01*
X169359250Y-94605551D01*
X170126014Y-93838788D01*
X170155011Y-93814991D01*
X170201976Y-93757764D01*
X170249984Y-93699267D01*
X170320556Y-93567237D01*
X170337915Y-93510010D01*
X170364013Y-93423976D01*
X170375010Y-93312323D01*
X170375010Y-93312313D01*
X170378686Y-93274990D01*
X170375010Y-93237667D01*
X170375010Y-76305922D01*
X170378686Y-76268599D01*
X170375010Y-76231276D01*
X170375010Y-76231267D01*
X170364013Y-76119614D01*
X170320556Y-75976353D01*
X170249984Y-75844324D01*
X170155011Y-75728599D01*
X170126013Y-75704801D01*
X166653532Y-72232320D01*
X166893577Y-72128086D01*
X167059433Y-71795874D01*
X167157290Y-71437688D01*
X167183389Y-71067294D01*
X167136725Y-70698925D01*
X167019094Y-70346738D01*
X166893577Y-70111914D01*
X166603605Y-69986000D01*
X165469605Y-71120000D01*
X165483748Y-71134143D01*
X165304143Y-71313748D01*
X165290000Y-71299605D01*
X165275858Y-71313748D01*
X165096253Y-71134143D01*
X165110395Y-71120000D01*
X163976395Y-69986000D01*
X163686423Y-70111914D01*
X163520567Y-70444126D01*
X163422710Y-70802312D01*
X163396611Y-71172706D01*
X163443275Y-71541075D01*
X163560906Y-71893262D01*
X163583216Y-71935001D01*
X163032725Y-71935001D01*
X163142561Y-71669834D01*
X163215000Y-71305656D01*
X163215000Y-70934344D01*
X163142561Y-70570166D01*
X163000466Y-70227118D01*
X162794175Y-69918382D01*
X162682188Y-69806395D01*
X164156000Y-69806395D01*
X165290000Y-70940395D01*
X166424000Y-69806395D01*
X166298086Y-69516423D01*
X165965874Y-69350567D01*
X165607688Y-69252710D01*
X165237294Y-69226611D01*
X164868925Y-69273275D01*
X164516738Y-69390906D01*
X164281914Y-69516423D01*
X164156000Y-69806395D01*
X162682188Y-69806395D01*
X162531618Y-69655825D01*
X162222882Y-69449534D01*
X161879834Y-69307439D01*
X161515656Y-69235000D01*
X161144344Y-69235000D01*
X160780166Y-69307439D01*
X160437118Y-69449534D01*
X160128382Y-69655825D01*
X159865825Y-69918382D01*
X159659534Y-70227118D01*
X159517439Y-70570166D01*
X159445000Y-70934344D01*
X159445000Y-71305656D01*
X159517439Y-71669834D01*
X159627275Y-71935001D01*
X159072725Y-71935001D01*
X159182561Y-71669834D01*
X159255000Y-71305656D01*
X159255000Y-70934344D01*
X159182561Y-70570166D01*
X159040466Y-70227118D01*
X158834175Y-69918382D01*
X158571618Y-69655825D01*
X158262882Y-69449534D01*
X157919834Y-69307439D01*
X157555656Y-69235000D01*
X157184344Y-69235000D01*
X156820166Y-69307439D01*
X156477118Y-69449534D01*
X156168382Y-69655825D01*
X155905825Y-69918382D01*
X155699534Y-70227118D01*
X155557439Y-70570166D01*
X155485000Y-70934344D01*
X155485000Y-71305656D01*
X155557439Y-71669834D01*
X155667275Y-71935001D01*
X155112725Y-71935001D01*
X155222561Y-71669834D01*
X155295000Y-71305656D01*
X155295000Y-70934344D01*
X155222561Y-70570166D01*
X155080466Y-70227118D01*
X154874175Y-69918382D01*
X154611618Y-69655825D01*
X154302882Y-69449534D01*
X153959834Y-69307439D01*
X153595656Y-69235000D01*
X153224344Y-69235000D01*
X152860166Y-69307439D01*
X152517118Y-69449534D01*
X152208382Y-69655825D01*
X151945825Y-69918382D01*
X151739534Y-70227118D01*
X151597439Y-70570166D01*
X151525000Y-70934344D01*
X151525000Y-71305656D01*
X151597439Y-71669834D01*
X151707275Y-71935001D01*
X151152725Y-71935001D01*
X151262561Y-71669834D01*
X151335000Y-71305656D01*
X151335000Y-70934344D01*
X151262561Y-70570166D01*
X151120466Y-70227118D01*
X150914175Y-69918382D01*
X150651618Y-69655825D01*
X150342882Y-69449534D01*
X149999834Y-69307439D01*
X149635656Y-69235000D01*
X149264344Y-69235000D01*
X148900166Y-69307439D01*
X148557118Y-69449534D01*
X148248382Y-69655825D01*
X147985825Y-69918382D01*
X147779534Y-70227118D01*
X147637439Y-70570166D01*
X147565000Y-70934344D01*
X147565000Y-71305656D01*
X147637439Y-71669834D01*
X147747275Y-71935001D01*
X147192725Y-71935001D01*
X147302561Y-71669834D01*
X147375000Y-71305656D01*
X147375000Y-70934344D01*
X147302561Y-70570166D01*
X147160466Y-70227118D01*
X146954175Y-69918382D01*
X146691618Y-69655825D01*
X146382882Y-69449534D01*
X146039834Y-69307439D01*
X145675656Y-69235000D01*
X145304344Y-69235000D01*
X144940166Y-69307439D01*
X144597118Y-69449534D01*
X144288382Y-69655825D01*
X144025825Y-69918382D01*
X143819534Y-70227118D01*
X143677439Y-70570166D01*
X143605000Y-70934344D01*
X143605000Y-71305656D01*
X143677439Y-71669834D01*
X143787275Y-71935001D01*
X143232725Y-71935001D01*
X143342561Y-71669834D01*
X143415000Y-71305656D01*
X143415000Y-70934344D01*
X143342561Y-70570166D01*
X143200466Y-70227118D01*
X142994175Y-69918382D01*
X142731618Y-69655825D01*
X142422882Y-69449534D01*
X142079834Y-69307439D01*
X141715656Y-69235000D01*
X141344344Y-69235000D01*
X140980166Y-69307439D01*
X140637118Y-69449534D01*
X140328382Y-69655825D01*
X140065825Y-69918382D01*
X139859534Y-70227118D01*
X139717439Y-70570166D01*
X139645000Y-70934344D01*
X139645000Y-71305656D01*
X139717439Y-71669834D01*
X139827275Y-71935001D01*
X139272725Y-71935001D01*
X139382561Y-71669834D01*
X139455000Y-71305656D01*
X139455000Y-70934344D01*
X139382561Y-70570166D01*
X139240466Y-70227118D01*
X139034175Y-69918382D01*
X138771618Y-69655825D01*
X138462882Y-69449534D01*
X138119834Y-69307439D01*
X137755656Y-69235000D01*
X137384344Y-69235000D01*
X137020166Y-69307439D01*
X136677118Y-69449534D01*
X136368382Y-69655825D01*
X136105825Y-69918382D01*
X135899534Y-70227118D01*
X135757439Y-70570166D01*
X135685000Y-70934344D01*
X135685000Y-71305656D01*
X135757439Y-71669834D01*
X135867275Y-71935001D01*
X135312725Y-71935001D01*
X135422561Y-71669834D01*
X135495000Y-71305656D01*
X135495000Y-70934344D01*
X135422561Y-70570166D01*
X135280466Y-70227118D01*
X135074175Y-69918382D01*
X134811618Y-69655825D01*
X134502882Y-69449534D01*
X134159834Y-69307439D01*
X133795656Y-69235000D01*
X133424344Y-69235000D01*
X133060166Y-69307439D01*
X132717118Y-69449534D01*
X132408382Y-69655825D01*
X132145825Y-69918382D01*
X131939534Y-70227118D01*
X131797439Y-70570166D01*
X131725000Y-70934344D01*
X131725000Y-71305656D01*
X131797439Y-71669834D01*
X131907275Y-71935001D01*
X131352725Y-71935001D01*
X131462561Y-71669834D01*
X131535000Y-71305656D01*
X131535000Y-70934344D01*
X131462561Y-70570166D01*
X131320466Y-70227118D01*
X131114175Y-69918382D01*
X130851618Y-69655825D01*
X130542882Y-69449534D01*
X130199834Y-69307439D01*
X129835656Y-69235000D01*
X129464344Y-69235000D01*
X129100166Y-69307439D01*
X128757118Y-69449534D01*
X128448382Y-69655825D01*
X128185825Y-69918382D01*
X127979534Y-70227118D01*
X127837439Y-70570166D01*
X127765000Y-70934344D01*
X127765000Y-71305656D01*
X127837439Y-71669834D01*
X127947275Y-71935001D01*
X127392725Y-71935001D01*
X127502561Y-71669834D01*
X127575000Y-71305656D01*
X127575000Y-70934344D01*
X127502561Y-70570166D01*
X127360466Y-70227118D01*
X127154175Y-69918382D01*
X126891618Y-69655825D01*
X126582882Y-69449534D01*
X126239834Y-69307439D01*
X125875656Y-69235000D01*
X125504344Y-69235000D01*
X125140166Y-69307439D01*
X124797118Y-69449534D01*
X124488382Y-69655825D01*
X124225825Y-69918382D01*
X124019534Y-70227118D01*
X123877439Y-70570166D01*
X123805000Y-70934344D01*
X123805000Y-71305656D01*
X123877439Y-71669834D01*
X123987275Y-71935001D01*
X123432725Y-71935001D01*
X123542561Y-71669834D01*
X123615000Y-71305656D01*
X123615000Y-70934344D01*
X123542561Y-70570166D01*
X123400466Y-70227118D01*
X123194175Y-69918382D01*
X122931618Y-69655825D01*
X122622882Y-69449534D01*
X122279834Y-69307439D01*
X121915656Y-69235000D01*
X121544344Y-69235000D01*
X121180166Y-69307439D01*
X120837118Y-69449534D01*
X120528382Y-69655825D01*
X120265825Y-69918382D01*
X120059534Y-70227118D01*
X119917439Y-70570166D01*
X119845000Y-70934344D01*
X119845000Y-71305656D01*
X119917439Y-71669834D01*
X120027275Y-71935001D01*
X108569803Y-71935001D01*
X108163731Y-71528930D01*
X108215000Y-71271184D01*
X108215000Y-70968816D01*
X108156011Y-70672257D01*
X108040299Y-70392905D01*
X107872312Y-70141495D01*
X107658505Y-69927688D01*
X107407095Y-69759701D01*
X107127743Y-69643989D01*
X106831184Y-69585000D01*
X106528816Y-69585000D01*
X106232257Y-69643989D01*
X105952905Y-69759701D01*
X105701495Y-69927688D01*
X105635056Y-69994127D01*
X105629502Y-69975820D01*
X105570537Y-69865506D01*
X105491185Y-69768815D01*
X105394494Y-69689463D01*
X105284180Y-69630498D01*
X105164482Y-69594188D01*
X105040000Y-69581928D01*
X103240000Y-69581928D01*
X103115518Y-69594188D01*
X102995820Y-69630498D01*
X102885506Y-69689463D01*
X102788815Y-69768815D01*
X102709463Y-69865506D01*
X102650498Y-69975820D01*
X102614188Y-70095518D01*
X102601928Y-70220000D01*
X102601928Y-72020000D01*
X102614188Y-72144482D01*
X102650498Y-72264180D01*
X102709463Y-72374494D01*
X102718094Y-72385011D01*
X102669813Y-72385011D01*
X101813731Y-71528930D01*
X101865000Y-71271184D01*
X101865000Y-70968816D01*
X101806011Y-70672257D01*
X101690299Y-70392905D01*
X101522312Y-70141495D01*
X101308505Y-69927688D01*
X101057095Y-69759701D01*
X100777743Y-69643989D01*
X100481184Y-69585000D01*
X100178816Y-69585000D01*
X99882257Y-69643989D01*
X99602905Y-69759701D01*
X99351495Y-69927688D01*
X99285056Y-69994127D01*
X99279502Y-69975820D01*
X99220537Y-69865506D01*
X99141185Y-69768815D01*
X99044494Y-69689463D01*
X98934180Y-69630498D01*
X98814482Y-69594188D01*
X98690000Y-69581928D01*
X96890000Y-69581928D01*
X96765518Y-69594188D01*
X96645820Y-69630498D01*
X96535506Y-69689463D01*
X96438815Y-69768815D01*
X96359463Y-69865506D01*
X96300498Y-69975820D01*
X96264188Y-70095518D01*
X96251928Y-70220000D01*
X96251928Y-72020000D01*
X96264188Y-72144482D01*
X96300498Y-72264180D01*
X96359463Y-72374494D01*
X96438815Y-72471185D01*
X96535506Y-72550537D01*
X96645820Y-72609502D01*
X96765518Y-72645812D01*
X96890000Y-72658072D01*
X98690000Y-72658072D01*
X98814482Y-72645812D01*
X98934180Y-72609502D01*
X99044494Y-72550537D01*
X99141185Y-72471185D01*
X99220537Y-72374494D01*
X99279502Y-72264180D01*
X99285056Y-72245873D01*
X99351495Y-72312312D01*
X99602905Y-72480299D01*
X99882257Y-72596011D01*
X100178816Y-72655000D01*
X100481184Y-72655000D01*
X100738930Y-72603731D01*
X101035198Y-72900000D01*
X96834803Y-72900000D01*
X95463731Y-71528930D01*
X95515000Y-71271184D01*
X95515000Y-70968816D01*
X95456011Y-70672257D01*
X95340299Y-70392905D01*
X95172312Y-70141495D01*
X94958505Y-69927688D01*
X94707095Y-69759701D01*
X94427743Y-69643989D01*
X94131184Y-69585000D01*
X93828816Y-69585000D01*
X93532257Y-69643989D01*
X93252905Y-69759701D01*
X93001495Y-69927688D01*
X92935056Y-69994127D01*
X92929502Y-69975820D01*
X92870537Y-69865506D01*
X92791185Y-69768815D01*
X92694494Y-69689463D01*
X92584180Y-69630498D01*
X92464482Y-69594188D01*
X92340000Y-69581928D01*
X90540000Y-69581928D01*
X90415518Y-69594188D01*
X90295820Y-69630498D01*
X90195000Y-69684388D01*
X90195000Y-67970000D01*
X178410001Y-67970000D01*
X178410000Y-113640000D01*
%TD*%
M02*
